STARTFONT 2.1
COMMENT
COMMENT Converted from TrueType font "arialbd.ttf" by "ttf2bdf 2.6".
COMMENT
FONT -FreeType-Arial-Bold-R-Normal--19-140-100-100-P-98-ISO10646-1
SIZE 14 100 100
FONTBOUNDINGBOX 34 28 -12 -8
STARTPROPERTIES 22
FOUNDRY "FreeType"
FAMILY_NAME "Arial"
WEIGHT_NAME "Bold"
SLANT "R"
SETWIDTH_NAME "Normal"
ADD_STYLE_NAME ""
PIXEL_SIZE 19
POINT_SIZE 140
RESOLUTION_X 100
RESOLUTION_Y 100
SPACING "P"
AVERAGE_WIDTH 98
CHARSET_REGISTRY "ISO10646"
CHARSET_ENCODING "1"
FONT_ASCENT 17
FONT_DESCENT 4
COPYRIGHT "Typeface © The Monotype Corporation plc. Data © The Monotype Corporation plc/Type Solutions Inc. 1990-1992. All Rights Reserved"
_TTF_FONTFILE "arialbd.ttf"
_TTF_PSNAME "Arial-BoldMT"
_XFREE86_GLYPH_RANGES "32_126 160_383 399 402 416_417 431_432 461_476 506_511 601 710_711 713 728_733 768_769 771 777 803 894 900_906 908 910_929 931_974 1025_1036 1038_1103 1105_1116 1118_1119 1168_1171 1174_1175 1178_1181 1186_1187 1198_1203 1208_1211 1240_1241 1256_1257 1456_1475 1488_1514 1520_1524 1548 1563 1567 1569_1594 1600_1621 1632_1773 1776_1790 7808_7813 7840_7929 8204_8207 8211_8213 8215_8222 8224_8226 8230 8234_8238 8240 8242_8243 8249_8250 8252 8254 8260 8298_8303 8319 8355_8356 8359"
_XFREE86_GLYPH_RANGES "8362_8364 8453 8467 8470 8482 8486 8494 8531_8532 8539_8542 8592_8597 8616 8706 8710 8719 8721_8722 8725 8729_8730 8734_8735 8745 8747 8776 8800_8801 8804_8805 8962 8976 8992_8993 9472 9474 9484 9488 9492 9496 9500 9508 9516 9524 9532 9552_9580 9600 9604 9608 9612 9616_9619 9632_9633 9642_9644 9650 9658 9660 9668 9674_9675 9679 9688_9689 9702 9786_9788 9792 9794 9824 9827 9829_9830 9834_9835 59393_59397 59416 59450 61441_61442 61444_61489 64257_64258 64285_64288 64298_64310"
_XFREE86_GLYPH_RANGES "64312_64316 64318 64320_64321 64323_64324 64326_64433 64467_64487 64508_64511 64606_64610 64830_64831 65010 65152_65276 65532"
ENDPROPERTIES
CHARS 1419
STARTCHAR 0020
ENCODING 32
SWIDTH 257 0
DWIDTH 5 0
BBX 1 1 0 0
BITMAP
00
ENDCHAR
STARTCHAR 0021
ENCODING 33
SWIDTH 257 0
DWIDTH 5 0
BBX 3 14 1 0
BITMAP
E0
E0
E0
E0
E0
E0
E0
E0
40
40
00
E0
E0
E0
ENDCHAR
STARTCHAR 0022
ENCODING 34
SWIDTH 462 0
DWIDTH 9 0
BBX 7 5 1 9
BITMAP
EE
EE
EE
EE
EE
ENDCHAR
STARTCHAR 0023
ENCODING 35
SWIDTH 565 0
DWIDTH 11 0
BBX 11 14 0 0
BITMAP
0CC0
0CC0
1980
FFE0
FFE0
1980
1980
3300
FFE0
FFE0
3300
3300
6600
6600
ENDCHAR
STARTCHAR 0024
ENCODING 36
SWIDTH 565 0
DWIDTH 11 0
BBX 9 17 1 -2
BITMAP
0800
3E00
7F00
EB80
EB80
E800
F800
7E00
1F00
0F80
0B80
EB80
EB80
7F00
3E00
0800
0800
ENDCHAR
STARTCHAR 0025
ENCODING 37
SWIDTH 874 0
DWIDTH 17 0
BBX 15 15 1 -1
BITMAP
7830
CC60
CC60
CCE0
CCC0
CCC0
7980
0180
033C
0366
0666
0666
0C66
0C66
183C
ENDCHAR
STARTCHAR 0026
ENCODING 38
SWIDTH 720 0
DWIDTH 14 0
BBX 13 14 1 0
BITMAP
1E00
7F80
7380
7380
7F80
3F00
3E00
7E40
E770
E7E0
E3C0
E3F0
7FF8
3E30
ENDCHAR
STARTCHAR 0027
ENCODING 39
SWIDTH 257 0
DWIDTH 5 0
BBX 3 5 1 9
BITMAP
E0
E0
E0
E0
E0
ENDCHAR
STARTCHAR 0028
ENCODING 40
SWIDTH 308 0
DWIDTH 6 0
BBX 5 18 1 -4
BITMAP
18
30
30
70
70
E0
E0
E0
E0
E0
E0
E0
E0
70
70
30
30
18
ENDCHAR
STARTCHAR 0029
ENCODING 41
SWIDTH 308 0
DWIDTH 6 0
BBX 5 18 0 -4
BITMAP
C0
60
60
70
70
38
38
38
38
38
38
38
38
70
70
60
60
C0
ENDCHAR
STARTCHAR 002A
ENCODING 42
SWIDTH 360 0
DWIDTH 7 0
BBX 6 7 0 7
BITMAP
30
B4
FC
30
78
CC
48
ENDCHAR
STARTCHAR 002B
ENCODING 43
SWIDTH 565 0
DWIDTH 11 0
BBX 11 11 0 2
BITMAP
0E00
0E00
0E00
0E00
FFE0
FFE0
FFE0
0E00
0E00
0E00
0E00
ENDCHAR
STARTCHAR 002C
ENCODING 44
SWIDTH 257 0
DWIDTH 5 0
BBX 3 6 1 -3
BITMAP
E0
E0
E0
20
60
C0
ENDCHAR
STARTCHAR 002D
ENCODING 45
SWIDTH 308 0
DWIDTH 6 0
BBX 5 3 1 4
BITMAP
F8
F8
F8
ENDCHAR
STARTCHAR 002E
ENCODING 46
SWIDTH 257 0
DWIDTH 5 0
BBX 3 3 1 0
BITMAP
E0
E0
E0
ENDCHAR
STARTCHAR 002F
ENCODING 47
SWIDTH 257 0
DWIDTH 5 0
BBX 5 14 0 0
BITMAP
18
18
30
30
30
30
30
60
60
60
60
60
C0
C0
ENDCHAR
STARTCHAR 0030
ENCODING 48
SWIDTH 565 0
DWIDTH 11 0
BBX 9 14 1 0
BITMAP
1C00
7F00
7700
E380
E380
E380
E380
E380
E380
E380
E380
7700
7F00
1C00
ENDCHAR
STARTCHAR 0031
ENCODING 49
SWIDTH 565 0
DWIDTH 11 0
BBX 6 14 2 0
BITMAP
0C
1C
7C
FC
DC
9C
1C
1C
1C
1C
1C
1C
1C
1C
ENDCHAR
STARTCHAR 0032
ENCODING 50
SWIDTH 565 0
DWIDTH 11 0
BBX 9 14 1 0
BITMAP
3E00
7F00
E380
E380
0380
0380
0700
0F00
1E00
3C00
3800
7000
FF80
FF80
ENDCHAR
STARTCHAR 0033
ENCODING 51
SWIDTH 565 0
DWIDTH 11 0
BBX 9 14 1 0
BITMAP
3E00
7F00
E380
E380
0380
0F00
0F00
0380
0380
0380
E380
E380
7F00
3E00
ENDCHAR
STARTCHAR 0034
ENCODING 52
SWIDTH 565 0
DWIDTH 11 0
BBX 10 14 0 0
BITMAP
0700
0F00
0F00
1F00
1F00
3700
3700
6700
C700
FFC0
FFC0
0700
0700
0700
ENDCHAR
STARTCHAR 0035
ENCODING 53
SWIDTH 565 0
DWIDTH 11 0
BBX 9 14 1 0
BITMAP
3F00
3F00
7000
7000
7E00
FF00
E780
0380
0380
0380
E380
F700
7F00
3E00
ENDCHAR
STARTCHAR 0036
ENCODING 54
SWIDTH 565 0
DWIDTH 11 0
BBX 9 14 1 0
BITMAP
1E00
7F00
7380
E000
EE00
FF00
F780
E380
E380
E380
E380
7700
7F00
1C00
ENDCHAR
STARTCHAR 0037
ENCODING 55
SWIDTH 565 0
DWIDTH 11 0
BBX 9 14 1 0
BITMAP
FF80
FF80
0380
0700
0E00
1C00
1C00
3800
3800
3800
7000
7000
7000
7000
ENDCHAR
STARTCHAR 0038
ENCODING 56
SWIDTH 565 0
DWIDTH 11 0
BBX 9 14 1 0
BITMAP
3E00
7F00
E380
E380
E380
7700
3E00
3E00
7700
E380
E380
E380
7F00
3E00
ENDCHAR
STARTCHAR 0039
ENCODING 57
SWIDTH 565 0
DWIDTH 11 0
BBX 9 14 1 0
BITMAP
1C00
7F00
7700
E380
E380
E380
E380
F780
7F80
3B80
0380
E700
7F00
3C00
ENDCHAR
STARTCHAR 003A
ENCODING 58
SWIDTH 360 0
DWIDTH 7 0
BBX 3 11 2 0
BITMAP
E0
E0
E0
00
00
00
00
00
E0
E0
E0
ENDCHAR
STARTCHAR 003B
ENCODING 59
SWIDTH 360 0
DWIDTH 7 0
BBX 3 14 2 -3
BITMAP
E0
E0
E0
00
00
00
00
00
E0
E0
E0
20
60
C0
ENDCHAR
STARTCHAR 003C
ENCODING 60
SWIDTH 565 0
DWIDTH 11 0
BBX 9 10 1 2
BITMAP
0080
0380
1F80
7E00
F000
F000
7E00
1F80
0380
0080
ENDCHAR
STARTCHAR 003D
ENCODING 61
SWIDTH 565 0
DWIDTH 11 0
BBX 9 8 1 3
BITMAP
FF80
FF80
FF80
0000
0000
FF80
FF80
FF80
ENDCHAR
STARTCHAR 003E
ENCODING 62
SWIDTH 565 0
DWIDTH 11 0
BBX 9 10 1 2
BITMAP
8000
E000
FC00
3F00
0780
0780
3F00
FC00
E000
8000
ENDCHAR
STARTCHAR 003F
ENCODING 63
SWIDTH 617 0
DWIDTH 12 0
BBX 10 14 1 0
BITMAP
3F00
7F80
F3C0
E1C0
03C0
0780
0F00
1E00
1C00
1C00
0000
1C00
1C00
1C00
ENDCHAR
STARTCHAR 0040
ENCODING 64
SWIDTH 977 0
DWIDTH 19 0
BBX 18 18 1 -4
BITMAP
03F000
0FFC00
1C0E00
39DF00
73FB80
663980
E63980
CC3980
CC3180
CC3180
CC7300
CC7700
E7FE00
63B800
7001C0
3C0780
0FFF00
03F800
ENDCHAR
STARTCHAR 0041
ENCODING 65
SWIDTH 668 0
DWIDTH 13 0
BBX 13 14 0 0
BITMAP
0F80
0F80
0F80
1DC0
1DC0
1DC0
38E0
38E0
3FE0
7FF0
7FF0
7070
F078
E038
ENDCHAR
STARTCHAR 0042
ENCODING 66
SWIDTH 720 0
DWIDTH 14 0
BBX 12 14 1 0
BITMAP
FF80
FFC0
FFE0
E0E0
E0E0
FFC0
FFC0
FFE0
E070
E070
E070
FFF0
FFE0
FFC0
ENDCHAR
STARTCHAR 0043
ENCODING 67
SWIDTH 720 0
DWIDTH 14 0
BBX 12 14 1 0
BITMAP
0F80
3FE0
7FE0
70F0
E060
E000
E000
E000
E000
E060
70F0
7FE0
3FE0
0F80
ENDCHAR
STARTCHAR 0044
ENCODING 68
SWIDTH 720 0
DWIDTH 14 0
BBX 12 14 1 0
BITMAP
FF80
FFC0
FFE0
E0E0
E070
E070
E070
E070
E070
E070
E0E0
FFE0
FFC0
FF80
ENDCHAR
STARTCHAR 0045
ENCODING 69
SWIDTH 668 0
DWIDTH 13 0
BBX 11 14 1 0
BITMAP
FFE0
FFE0
FFE0
E000
E000
FFC0
FFC0
FFC0
E000
E000
E000
FFE0
FFE0
FFE0
ENDCHAR
STARTCHAR 0046
ENCODING 70
SWIDTH 617 0
DWIDTH 12 0
BBX 10 14 1 0
BITMAP
FFC0
FFC0
FFC0
E000
E000
FF80
FF80
FF80
E000
E000
E000
E000
E000
E000
ENDCHAR
STARTCHAR 0047
ENCODING 71
SWIDTH 771 0
DWIDTH 15 0
BBX 13 14 1 0
BITMAP
0FC0
3FF0
7FF0
7878
F030
E000
E000
E1F8
E1F8
F1F8
7838
7FF8
3FF0
0FC0
ENDCHAR
STARTCHAR 0048
ENCODING 72
SWIDTH 668 0
DWIDTH 13 0
BBX 11 14 1 0
BITMAP
E0E0
E0E0
E0E0
E0E0
FFE0
FFE0
FFE0
E0E0
E0E0
E0E0
E0E0
E0E0
E0E0
E0E0
ENDCHAR
STARTCHAR 0049
ENCODING 73
SWIDTH 257 0
DWIDTH 5 0
BBX 3 14 1 0
BITMAP
E0
E0
E0
E0
E0
E0
E0
E0
E0
E0
E0
E0
E0
E0
ENDCHAR
STARTCHAR 004A
ENCODING 74
SWIDTH 565 0
DWIDTH 11 0
BBX 10 14 0 0
BITMAP
01C0
01C0
01C0
01C0
01C0
01C0
01C0
01C0
01C0
E1C0
E1C0
FFC0
7F80
3F00
ENDCHAR
STARTCHAR 004B
ENCODING 75
SWIDTH 720 0
DWIDTH 14 0
BBX 12 14 1 0
BITMAP
E0F0
E1E0
E3C0
E780
E700
EE00
FF00
FF80
F380
E1C0
E1C0
E0E0
E070
E070
ENDCHAR
STARTCHAR 004C
ENCODING 76
SWIDTH 617 0
DWIDTH 12 0
BBX 10 14 1 0
BITMAP
E000
E000
E000
E000
E000
E000
E000
E000
E000
E000
E000
FFC0
FFC0
FFC0
ENDCHAR
STARTCHAR 004D
ENCODING 77
SWIDTH 874 0
DWIDTH 17 0
BBX 15 14 1 0
BITMAP
F83E
F83E
FC7E
EC6E
EC6E
EC6E
EEEE
E6CE
E6CE
E6CE
E7CE
E38E
E38E
E38E
ENDCHAR
STARTCHAR 004E
ENCODING 78
SWIDTH 668 0
DWIDTH 13 0
BBX 11 14 1 0
BITMAP
F0E0
F0E0
F8E0
F8E0
FCE0
FCE0
EEE0
EEE0
E7E0
E3E0
E3E0
E1E0
E1E0
E0E0
ENDCHAR
STARTCHAR 004F
ENCODING 79
SWIDTH 771 0
DWIDTH 15 0
BBX 13 14 1 0
BITMAP
0F80
3FE0
7FF0
78F0
F078
E038
E038
E038
E038
F078
78F0
7FF0
3FE0
0F80
ENDCHAR
STARTCHAR 0050
ENCODING 80
SWIDTH 668 0
DWIDTH 13 0
BBX 11 14 1 0
BITMAP
FF80
FFC0
FFE0
E0E0
E0E0
E1E0
FFE0
FFC0
FF80
E000
E000
E000
E000
E000
ENDCHAR
STARTCHAR 0051
ENCODING 81
SWIDTH 771 0
DWIDTH 15 0
BBX 14 15 1 -1
BITMAP
0F80
3FE0
7FF0
78F0
F078
E038
E038
E038
E138
F3B8
79F0
7FF0
3FF8
0FBC
0008
ENDCHAR
STARTCHAR 0052
ENCODING 82
SWIDTH 668 0
DWIDTH 13 0
BBX 12 14 1 0
BITMAP
FF80
FFC0
FFE0
E0E0
E0E0
E0E0
FFC0
FFC0
FF00
E780
E3C0
E1C0
E1E0
E0F0
ENDCHAR
STARTCHAR 0053
ENCODING 83
SWIDTH 668 0
DWIDTH 13 0
BBX 11 14 1 0
BITMAP
3F00
7FC0
FFC0
E1E0
E0E0
F800
7F00
3FC0
03E0
E0E0
F0E0
7FE0
7FC0
1F80
ENDCHAR
STARTCHAR 0054
ENCODING 84
SWIDTH 668 0
DWIDTH 13 0
BBX 11 14 1 0
BITMAP
FFE0
FFE0
FFE0
0E00
0E00
0E00
0E00
0E00
0E00
0E00
0E00
0E00
0E00
0E00
ENDCHAR
STARTCHAR 0055
ENCODING 85
SWIDTH 668 0
DWIDTH 13 0
BBX 11 14 1 0
BITMAP
E0E0
E0E0
E0E0
E0E0
E0E0
E0E0
E0E0
E0E0
E0E0
E0E0
F1E0
7FC0
7FC0
1F00
ENDCHAR
STARTCHAR 0056
ENCODING 86
SWIDTH 668 0
DWIDTH 13 0
BBX 13 14 0 0
BITMAP
E038
7070
7070
7070
38E0
38E0
38E0
1DC0
1DC0
1DC0
0F80
0F80
0F80
0700
ENDCHAR
STARTCHAR 0057
ENCODING 87
SWIDTH 874 0
DWIDTH 17 0
BBX 17 14 0 0
BITMAP
E1C380
E1C380
E3E380
73E700
736700
736700
777700
777700
763700
763700
3E3E00
3E3E00
3C1E00
3C1E00
ENDCHAR
STARTCHAR 0058
ENCODING 88
SWIDTH 668 0
DWIDTH 13 0
BBX 11 14 1 0
BITMAP
E0E0
F1E0
71C0
3B80
3B80
1F00
0E00
0E00
1F00
3B80
3B80
71C0
F1E0
E0E0
ENDCHAR
STARTCHAR 0059
ENCODING 89
SWIDTH 668 0
DWIDTH 13 0
BBX 11 14 1 0
BITMAP
E0E0
E0E0
71C0
71C0
3B80
1F00
1F00
0E00
0E00
0E00
0E00
0E00
0E00
0E00
ENDCHAR
STARTCHAR 005A
ENCODING 90
SWIDTH 565 0
DWIDTH 11 0
BBX 11 14 0 0
BITMAP
7FE0
7FE0
7FE0
01E0
03C0
0780
0F00
1E00
3C00
7800
F000
FFE0
FFE0
FFE0
ENDCHAR
STARTCHAR 005B
ENCODING 91
SWIDTH 308 0
DWIDTH 6 0
BBX 5 18 1 -4
BITMAP
F8
F8
F8
E0
E0
E0
E0
E0
E0
E0
E0
E0
E0
E0
E0
F8
F8
F8
ENDCHAR
STARTCHAR 005C
ENCODING 92
SWIDTH 257 0
DWIDTH 5 0
BBX 5 14 0 0
BITMAP
C0
C0
60
60
60
60
60
30
30
30
30
30
18
18
ENDCHAR
STARTCHAR 005D
ENCODING 93
SWIDTH 308 0
DWIDTH 6 0
BBX 5 18 0 -4
BITMAP
F8
F8
F8
38
38
38
38
38
38
38
38
38
38
38
38
F8
F8
F8
ENDCHAR
STARTCHAR 005E
ENCODING 94
SWIDTH 565 0
DWIDTH 11 0
BBX 9 7 1 7
BITMAP
1C00
1C00
3E00
3600
7700
6300
E380
ENDCHAR
STARTCHAR 005F
ENCODING 95
SWIDTH 565 0
DWIDTH 11 0
BBX 11 2 0 -4
BITMAP
FFE0
FFE0
ENDCHAR
STARTCHAR 0060
ENCODING 96
SWIDTH 308 0
DWIDTH 6 0
BBX 4 3 0 11
BITMAP
E0
60
30
ENDCHAR
STARTCHAR 0061
ENCODING 97
SWIDTH 565 0
DWIDTH 11 0
BBX 10 11 1 0
BITMAP
3E00
7F00
C380
0780
3F80
7B80
E380
E380
E780
7F80
3DC0
ENDCHAR
STARTCHAR 0062
ENCODING 98
SWIDTH 617 0
DWIDTH 12 0
BBX 10 14 1 0
BITMAP
E000
E000
E000
EF00
FF80
F380
E1C0
E1C0
E1C0
E1C0
E1C0
F380
FF80
EF00
ENDCHAR
STARTCHAR 0063
ENCODING 99
SWIDTH 565 0
DWIDTH 11 0
BBX 9 11 1 0
BITMAP
1E00
7F00
7380
E100
E000
E000
E000
E100
7380
7F00
1E00
ENDCHAR
STARTCHAR 0064
ENCODING 100
SWIDTH 617 0
DWIDTH 12 0
BBX 10 14 1 0
BITMAP
01C0
01C0
01C0
3DC0
7FC0
73C0
E1C0
E1C0
E1C0
E1C0
E1C0
73C0
7FC0
3DC0
ENDCHAR
STARTCHAR 0065
ENCODING 101
SWIDTH 565 0
DWIDTH 11 0
BBX 9 11 1 0
BITMAP
1E00
7F00
7380
E380
FF80
FF80
E000
E000
7380
7F00
1E00
ENDCHAR
STARTCHAR 0066
ENCODING 102
SWIDTH 308 0
DWIDTH 6 0
BBX 7 14 0 0
BITMAP
3E
7E
70
FC
FC
70
70
70
70
70
70
70
70
70
ENDCHAR
STARTCHAR 0067
ENCODING 103
SWIDTH 617 0
DWIDTH 12 0
BBX 10 15 1 -4
BITMAP
3DC0
7FC0
73C0
E1C0
E1C0
E1C0
E1C0
E1C0
73C0
7FC0
3DC0
01C0
E1C0
FF80
3F00
ENDCHAR
STARTCHAR 0068
ENCODING 104
SWIDTH 617 0
DWIDTH 12 0
BBX 10 14 1 0
BITMAP
E000
E000
E000
EF00
FF80
F1C0
E1C0
E1C0
E1C0
E1C0
E1C0
E1C0
E1C0
E1C0
ENDCHAR
STARTCHAR 0069
ENCODING 105
SWIDTH 257 0
DWIDTH 5 0
BBX 3 14 1 0
BITMAP
E0
E0
00
E0
E0
E0
E0
E0
E0
E0
E0
E0
E0
E0
ENDCHAR
STARTCHAR 006A
ENCODING 106
SWIDTH 257 0
DWIDTH 5 0
BBX 5 18 -1 -4
BITMAP
38
38
00
38
38
38
38
38
38
38
38
38
38
38
38
38
F8
F0
ENDCHAR
STARTCHAR 006B
ENCODING 107
SWIDTH 565 0
DWIDTH 11 0
BBX 9 14 1 0
BITMAP
E000
E000
E000
E380
E700
EE00
FC00
FC00
FE00
EE00
E700
E700
E380
E380
ENDCHAR
STARTCHAR 006C
ENCODING 108
SWIDTH 257 0
DWIDTH 5 0
BBX 3 14 1 0
BITMAP
E0
E0
E0
E0
E0
E0
E0
E0
E0
E0
E0
E0
E0
E0
ENDCHAR
STARTCHAR 006D
ENCODING 109
SWIDTH 874 0
DWIDTH 17 0
BBX 15 11 1 0
BITMAP
EE38
FF7C
F3CE
E38E
E38E
E38E
E38E
E38E
E38E
E38E
E38E
ENDCHAR
STARTCHAR 006E
ENCODING 110
SWIDTH 617 0
DWIDTH 12 0
BBX 10 11 1 0
BITMAP
EF00
FF80
F3C0
E1C0
E1C0
E1C0
E1C0
E1C0
E1C0
E1C0
E1C0
ENDCHAR
STARTCHAR 006F
ENCODING 111
SWIDTH 617 0
DWIDTH 12 0
BBX 10 11 1 0
BITMAP
1E00
7F80
7380
E1C0
E1C0
E1C0
E1C0
E1C0
7380
7F80
1E00
ENDCHAR
STARTCHAR 0070
ENCODING 112
SWIDTH 617 0
DWIDTH 12 0
BBX 10 15 1 -4
BITMAP
EF00
FF80
F380
E1C0
E1C0
E1C0
E1C0
E1C0
F380
FF80
EF00
E000
E000
E000
E000
ENDCHAR
STARTCHAR 0071
ENCODING 113
SWIDTH 617 0
DWIDTH 12 0
BBX 10 15 1 -4
BITMAP
3DC0
7FC0
F3C0
E1C0
E1C0
E1C0
E1C0
E1C0
73C0
7FC0
3DC0
01C0
01C0
01C0
01C0
ENDCHAR
STARTCHAR 0072
ENCODING 114
SWIDTH 411 0
DWIDTH 8 0
BBX 7 11 1 0
BITMAP
EE
FE
F0
E0
E0
E0
E0
E0
E0
E0
E0
ENDCHAR
STARTCHAR 0073
ENCODING 115
SWIDTH 565 0
DWIDTH 11 0
BBX 9 11 1 0
BITMAP
3E00
7F00
E380
E000
FC00
7F00
1F80
0380
E380
7F00
3E00
ENDCHAR
STARTCHAR 0074
ENCODING 116
SWIDTH 308 0
DWIDTH 6 0
BBX 6 14 0 0
BITMAP
10
30
70
FC
FC
70
70
70
70
70
70
70
7C
3C
ENDCHAR
STARTCHAR 0075
ENCODING 117
SWIDTH 617 0
DWIDTH 12 0
BBX 10 11 1 0
BITMAP
E1C0
E1C0
E1C0
E1C0
E1C0
E1C0
E1C0
E1C0
E3C0
7FC0
3DC0
ENDCHAR
STARTCHAR 0076
ENCODING 118
SWIDTH 565 0
DWIDTH 11 0
BBX 9 11 1 0
BITMAP
E380
E380
E380
6300
7700
7700
3600
3E00
1E00
1C00
1C00
ENDCHAR
STARTCHAR 0077
ENCODING 119
SWIDTH 771 0
DWIDTH 15 0
BBX 15 11 0 0
BITMAP
E38E
E38E
638C
77DC
76DC
36D8
36D8
3EF8
3C78
1C70
1C70
ENDCHAR
STARTCHAR 0078
ENCODING 120
SWIDTH 565 0
DWIDTH 11 0
BBX 9 11 1 0
BITMAP
E380
E780
7700
3E00
3E00
1C00
3E00
3E00
7700
E380
E380
ENDCHAR
STARTCHAR 0079
ENCODING 121
SWIDTH 565 0
DWIDTH 11 0
BBX 11 15 0 -4
BITMAP
E0E0
E0E0
71C0
71C0
71C0
3B80
3B80
1B00
1F00
1F00
0E00
0E00
1C00
7C00
7800
ENDCHAR
STARTCHAR 007A
ENCODING 122
SWIDTH 514 0
DWIDTH 10 0
BBX 8 11 1 0
BITMAP
FF
FF
07
0E
1C
3C
38
70
E0
FF
FF
ENDCHAR
STARTCHAR 007B
ENCODING 123
SWIDTH 360 0
DWIDTH 7 0
BBX 6 18 1 -4
BITMAP
1C
3C
30
30
30
30
30
70
E0
E0
70
30
30
30
30
30
3C
1C
ENDCHAR
STARTCHAR 007C
ENCODING 124
SWIDTH 205 0
DWIDTH 4 0
BBX 2 18 1 -4
BITMAP
C0
C0
C0
C0
C0
C0
C0
C0
C0
C0
C0
C0
C0
C0
C0
C0
C0
C0
ENDCHAR
STARTCHAR 007D
ENCODING 125
SWIDTH 360 0
DWIDTH 7 0
BBX 6 18 0 -4
BITMAP
E0
F0
30
30
30
30
30
38
1C
1C
38
30
30
30
30
30
F0
E0
ENDCHAR
STARTCHAR 007E
ENCODING 126
SWIDTH 565 0
DWIDTH 11 0
BBX 10 4 0 5
BITMAP
7840
FFC0
FFC0
8780
ENDCHAR
STARTCHAR 00A0
ENCODING 160
SWIDTH 257 0
DWIDTH 5 0
BBX 1 1 0 0
BITMAP
00
ENDCHAR
STARTCHAR 00A1
ENCODING 161
SWIDTH 360 0
DWIDTH 7 0
BBX 3 15 2 -4
BITMAP
E0
E0
E0
00
40
40
E0
E0
E0
E0
E0
E0
E0
E0
E0
ENDCHAR
STARTCHAR 00A2
ENCODING 162
SWIDTH 565 0
DWIDTH 11 0
BBX 10 18 1 -4
BITMAP
0080
0180
0100
1F00
7F00
7380
E3C0
E400
E400
E400
E9C0
7B80
7F80
3F00
1000
1000
2000
2000
ENDCHAR
STARTCHAR 00A3
ENCODING 163
SWIDTH 565 0
DWIDTH 11 0
BBX 11 14 0 0
BITMAP
1F00
3F80
73C0
71C0
7000
7000
FE00
FE00
3800
3800
7000
FE40
FFE0
47C0
ENDCHAR
STARTCHAR 00A4
ENCODING 164
SWIDTH 565 0
DWIDTH 11 0
BBX 10 10 0 2
BITMAP
2100
7F80
FFC0
7380
6180
6180
7380
FFC0
7F80
2100
ENDCHAR
STARTCHAR 00A5
ENCODING 165
SWIDTH 565 0
DWIDTH 11 0
BBX 11 14 0 0
BITMAP
E0E0
71C0
71C0
3B80
3B80
1F00
7FC0
7FC0
0E00
7FC0
7FC0
0E00
0E00
0E00
ENDCHAR
STARTCHAR 00A6
ENCODING 166
SWIDTH 205 0
DWIDTH 4 0
BBX 2 18 1 -4
BITMAP
C0
C0
C0
C0
C0
C0
C0
C0
00
00
00
C0
C0
C0
C0
C0
C0
C0
ENDCHAR
STARTCHAR 00A7
ENCODING 167
SWIDTH 565 0
DWIDTH 11 0
BBX 10 18 0 -4
BITMAP
1E00
3F00
7380
7000
3800
3E00
6F00
E780
E3C0
F1C0
79C0
3F80
1F00
0780
7380
7380
3F00
1E00
ENDCHAR
STARTCHAR 00A8
ENCODING 168
SWIDTH 308 0
DWIDTH 6 0
BBX 6 2 0 12
BITMAP
CC
CC
ENDCHAR
STARTCHAR 00A9
ENCODING 169
SWIDTH 720 0
DWIDTH 14 0
BBX 14 14 0 0
BITMAP
0780
1860
2010
4788
4CC8
9804
9804
9804
9804
4CC8
4788
2010
1860
0780
ENDCHAR
STARTCHAR 00AA
ENCODING 170
SWIDTH 360 0
DWIDTH 7 0
BBX 6 7 0 7
BITMAP
78
CC
0C
7C
CC
CC
7C
ENDCHAR
STARTCHAR 00AB
ENCODING 171
SWIDTH 565 0
DWIDTH 11 0
BBX 9 9 1 1
BITMAP
1980
3300
7700
6600
EE00
6600
7700
3300
1980
ENDCHAR
STARTCHAR 00AC
ENCODING 172
SWIDTH 565 0
DWIDTH 11 0
BBX 9 7 1 4
BITMAP
FF80
FF80
FF80
0380
0380
0380
0380
ENDCHAR
STARTCHAR 00AD
ENCODING 173
SWIDTH 308 0
DWIDTH 6 0
BBX 5 3 1 4
BITMAP
F8
F8
F8
ENDCHAR
STARTCHAR 00AE
ENCODING 174
SWIDTH 720 0
DWIDTH 14 0
BBX 14 14 0 0
BITMAP
0780
1860
2010
4F88
4CC8
8CC4
8CC4
8F84
8D84
4CC8
4CC8
2010
1860
0780
ENDCHAR
STARTCHAR 00AF
ENCODING 175
SWIDTH 565 0
DWIDTH 11 0
BBX 11 2 0 14
BITMAP
FFE0
FFE0
ENDCHAR
STARTCHAR 00B0
ENCODING 176
SWIDTH 411 0
DWIDTH 8 0
BBX 6 6 1 8
BITMAP
78
FC
CC
CC
FC
78
ENDCHAR
STARTCHAR 00B1
ENCODING 177
SWIDTH 514 0
DWIDTH 10 0
BBX 11 15 0 0
BITMAP
0E00
0E00
0E00
0E00
FFE0
FFE0
FFE0
0E00
0E00
0E00
0E00
0000
FFE0
FFE0
FFE0
ENDCHAR
STARTCHAR 00B2
ENCODING 178
SWIDTH 308 0
DWIDTH 6 0
BBX 5 7 0 7
BITMAP
70
D8
18
38
70
E0
F8
ENDCHAR
STARTCHAR 00B3
ENCODING 179
SWIDTH 308 0
DWIDTH 6 0
BBX 6 7 0 7
BITMAP
78
CC
0C
38
0C
CC
78
ENDCHAR
STARTCHAR 00B4
ENCODING 180
SWIDTH 308 0
DWIDTH 6 0
BBX 4 3 2 11
BITMAP
70
60
C0
ENDCHAR
STARTCHAR 00B5
ENCODING 181
SWIDTH 565 0
DWIDTH 11 0
BBX 9 15 1 -4
BITMAP
E380
E380
E380
E380
E380
E380
E380
E380
F780
FF80
EB80
E000
E000
E000
E000
ENDCHAR
STARTCHAR 00B6
ENCODING 182
SWIDTH 565 0
DWIDTH 11 0
BBX 10 18 0 -4
BITMAP
3FC0
7FC0
FD80
FD80
FD80
FD80
7D80
3D80
0D80
0D80
0D80
0D80
0D80
0D80
0D80
0D80
0D80
0D80
ENDCHAR
STARTCHAR 00B7
ENCODING 183
SWIDTH 257 0
DWIDTH 5 0
BBX 3 3 1 5
BITMAP
E0
E0
E0
ENDCHAR
STARTCHAR 00B8
ENCODING 184
SWIDTH 308 0
DWIDTH 6 0
BBX 5 3 0 -3
BITMAP
78
18
F0
ENDCHAR
STARTCHAR 00B9
ENCODING 185
SWIDTH 308 0
DWIDTH 6 0
BBX 4 7 0 7
BITMAP
30
70
F0
30
30
30
30
ENDCHAR
STARTCHAR 00BA
ENCODING 186
SWIDTH 360 0
DWIDTH 7 0
BBX 6 7 1 7
BITMAP
78
CC
CC
CC
CC
CC
78
ENDCHAR
STARTCHAR 00BB
ENCODING 187
SWIDTH 565 0
DWIDTH 11 0
BBX 9 9 1 1
BITMAP
CC00
6600
7700
3300
3B80
3300
7700
6600
CC00
ENDCHAR
STARTCHAR 00BC
ENCODING 188
SWIDTH 822 0
DWIDTH 16 0
BBX 15 14 1 0
BITMAP
3060
7060
F0C0
30C0
3180
3180
3300
030C
061C
0C1C
0C2C
184C
187E
300C
ENDCHAR
STARTCHAR 00BD
ENCODING 189
SWIDTH 822 0
DWIDTH 16 0
BBX 15 14 0 0
BITMAP
3030
7030
F060
30C0
30C0
3180
3180
031C
0636
0606
0C0E
1C1C
1838
303E
ENDCHAR
STARTCHAR 00BE
ENCODING 190
SWIDTH 822 0
DWIDTH 16 0
BBX 16 14 0 0
BITMAP
7818
CC30
0C30
3860
0C60
CCC0
79C0
0186
030E
030E
0616
0626
0C3F
1806
ENDCHAR
STARTCHAR 00BF
ENCODING 191
SWIDTH 617 0
DWIDTH 12 0
BBX 10 15 1 -4
BITMAP
0E00
0E00
0E00
0000
0E00
0E00
1E00
3C00
7800
F000
E000
E1C0
F3C0
7F80
1E00
ENDCHAR
STARTCHAR 00C0
ENCODING 192
SWIDTH 668 0
DWIDTH 13 0
BBX 13 18 0 0
BITMAP
0E00
0600
0300
0000
0F80
0F80
0F80
1DC0
1DC0
1DC0
38E0
38E0
3FE0
7FF0
7FF0
7070
F078
E038
ENDCHAR
STARTCHAR 00C1
ENCODING 193
SWIDTH 668 0
DWIDTH 13 0
BBX 13 18 0 0
BITMAP
0380
0300
0600
0000
0F80
0F80
0F80
1DC0
1DC0
1DC0
38E0
38E0
3FE0
7FF0
7FF0
7070
F078
E038
ENDCHAR
STARTCHAR 00C2
ENCODING 194
SWIDTH 668 0
DWIDTH 13 0
BBX 13 17 0 0
BITMAP
0700
0D80
0000
0F80
0F80
0F80
1DC0
1DC0
1DC0
38E0
38E0
3FE0
7FF0
7FF0
7070
F078
E038
ENDCHAR
STARTCHAR 00C3
ENCODING 195
SWIDTH 668 0
DWIDTH 13 0
BBX 13 18 0 0
BITMAP
0640
0FC0
0980
0000
0F80
0F80
0F80
1DC0
1DC0
1DC0
38E0
38E0
3FE0
7FF0
7FF0
7070
F078
E038
ENDCHAR
STARTCHAR 00C4
ENCODING 196
SWIDTH 668 0
DWIDTH 13 0
BBX 13 17 0 0
BITMAP
0CC0
0CC0
0000
0F80
0F80
0F80
1DC0
1DC0
1DC0
38E0
38E0
3FE0
7FF0
7FF0
7070
F078
E038
ENDCHAR
STARTCHAR 00C5
ENCODING 197
SWIDTH 668 0
DWIDTH 13 0
BBX 13 17 0 0
BITMAP
0300
0480
0480
0F80
0F80
0F80
1DC0
1DC0
1DC0
38E0
38E0
3FE0
7FF0
7FF0
7070
F078
E038
ENDCHAR
STARTCHAR 00C6
ENCODING 198
SWIDTH 977 0
DWIDTH 19 0
BBX 19 14 -1 0
BITMAP
01FFE0
03FFE0
03FFE0
077000
077000
0E7FC0
0E7FC0
1C7FC0
1FF000
3FF000
3FF000
707FE0
707FE0
E07FE0
ENDCHAR
STARTCHAR 00C7
ENCODING 199
SWIDTH 720 0
DWIDTH 14 0
BBX 12 17 1 -3
BITMAP
0F80
3FE0
7FE0
70F0
E060
E000
E000
E000
E000
E060
70F0
7FE0
3FE0
0F80
0F00
0300
1E00
ENDCHAR
STARTCHAR 00C8
ENCODING 200
SWIDTH 668 0
DWIDTH 13 0
BBX 11 18 1 0
BITMAP
1C00
0C00
0600
0000
FFE0
FFE0
FFE0
E000
E000
FFC0
FFC0
FFC0
E000
E000
E000
FFE0
FFE0
FFE0
ENDCHAR
STARTCHAR 00C9
ENCODING 201
SWIDTH 668 0
DWIDTH 13 0
BBX 11 18 1 0
BITMAP
0700
0600
0C00
0000
FFE0
FFE0
FFE0
E000
E000
FFC0
FFC0
FFC0
E000
E000
E000
FFE0
FFE0
FFE0
ENDCHAR
STARTCHAR 00CA
ENCODING 202
SWIDTH 668 0
DWIDTH 13 0
BBX 11 17 1 0
BITMAP
0E00
1B00
0000
FFE0
FFE0
FFE0
E000
E000
FFC0
FFC0
FFC0
E000
E000
E000
FFE0
FFE0
FFE0
ENDCHAR
STARTCHAR 00CB
ENCODING 203
SWIDTH 668 0
DWIDTH 13 0
BBX 11 17 1 0
BITMAP
1980
1980
0000
FFE0
FFE0
FFE0
E000
E000
FFC0
FFC0
FFC0
E000
E000
E000
FFE0
FFE0
FFE0
ENDCHAR
STARTCHAR 00CC
ENCODING 204
SWIDTH 257 0
DWIDTH 5 0
BBX 4 18 0 0
BITMAP
E0
60
30
00
70
70
70
70
70
70
70
70
70
70
70
70
70
70
ENDCHAR
STARTCHAR 00CD
ENCODING 205
SWIDTH 257 0
DWIDTH 5 0
BBX 4 18 1 0
BITMAP
70
60
C0
00
E0
E0
E0
E0
E0
E0
E0
E0
E0
E0
E0
E0
E0
E0
ENDCHAR
STARTCHAR 00CE
ENCODING 206
SWIDTH 257 0
DWIDTH 5 0
BBX 5 17 0 0
BITMAP
70
D8
00
70
70
70
70
70
70
70
70
70
70
70
70
70
70
ENDCHAR
STARTCHAR 00CF
ENCODING 207
SWIDTH 257 0
DWIDTH 5 0
BBX 6 17 0 0
BITMAP
CC
CC
00
70
70
70
70
70
70
70
70
70
70
70
70
70
70
ENDCHAR
STARTCHAR 00D0
ENCODING 208
SWIDTH 720 0
DWIDTH 14 0
BBX 13 14 0 0
BITMAP
7FC0
7FE0
7FF0
7070
7038
7038
FE38
FE38
7038
7038
7070
7FF0
7FE0
7FC0
ENDCHAR
STARTCHAR 00D1
ENCODING 209
SWIDTH 668 0
DWIDTH 13 0
BBX 11 18 1 0
BITMAP
0C80
1F80
1300
0000
F0E0
F0E0
F8E0
F8E0
FCE0
FCE0
EEE0
EEE0
E7E0
E3E0
E3E0
E1E0
E1E0
E0E0
ENDCHAR
STARTCHAR 00D2
ENCODING 210
SWIDTH 771 0
DWIDTH 15 0
BBX 13 18 1 0
BITMAP
0700
0300
0180
0000
0F80
3FE0
7FF0
78F0
F078
E038
E038
E038
E038
F078
78F0
7FF0
3FE0
0F80
ENDCHAR
STARTCHAR 00D3
ENCODING 211
SWIDTH 771 0
DWIDTH 15 0
BBX 13 18 1 0
BITMAP
0380
0300
0600
0000
0F80
3FE0
7FF0
78F0
F078
E038
E038
E038
E038
F078
78F0
7FF0
3FE0
0F80
ENDCHAR
STARTCHAR 00D4
ENCODING 212
SWIDTH 771 0
DWIDTH 15 0
BBX 13 17 1 0
BITMAP
0700
0D80
0000
0F80
3FE0
7FF0
78F0
F078
E038
E038
E038
E038
F078
78F0
7FF0
3FE0
0F80
ENDCHAR
STARTCHAR 00D5
ENCODING 213
SWIDTH 771 0
DWIDTH 15 0
BBX 13 18 1 0
BITMAP
0640
0FC0
0980
0000
0F80
3FE0
7FF0
78F0
F078
E038
E038
E038
E038
F078
78F0
7FF0
3FE0
0F80
ENDCHAR
STARTCHAR 00D6
ENCODING 214
SWIDTH 771 0
DWIDTH 15 0
BBX 13 17 1 0
BITMAP
0CC0
0CC0
0000
0F80
3FE0
7FF0
78F0
F078
E038
E038
E038
E038
F078
78F0
7FF0
3FE0
0F80
ENDCHAR
STARTCHAR 00D7
ENCODING 215
SWIDTH 565 0
DWIDTH 11 0
BBX 9 9 1 2
BITMAP
4100
E380
7700
3E00
1C00
3E00
7700
E380
4100
ENDCHAR
STARTCHAR 00D8
ENCODING 216
SWIDTH 771 0
DWIDTH 15 0
BBX 15 16 0 -1
BITMAP
0004
07C6
1FFC
3FF8
3C78
787C
70DC
719C
731C
761C
7C3C
3C78
3FF8
7FF0
CFC0
4000
ENDCHAR
STARTCHAR 00D9
ENCODING 217
SWIDTH 668 0
DWIDTH 13 0
BBX 11 18 1 0
BITMAP
1C00
0C00
0600
0000
E0E0
E0E0
E0E0
E0E0
E0E0
E0E0
E0E0
E0E0
E0E0
E0E0
F1E0
7FC0
7FC0
1F00
ENDCHAR
STARTCHAR 00DA
ENCODING 218
SWIDTH 668 0
DWIDTH 13 0
BBX 11 18 1 0
BITMAP
0700
0600
0C00
0000
E0E0
E0E0
E0E0
E0E0
E0E0
E0E0
E0E0
E0E0
E0E0
E0E0
F1E0
7FC0
7FC0
1F00
ENDCHAR
STARTCHAR 00DB
ENCODING 219
SWIDTH 668 0
DWIDTH 13 0
BBX 11 17 1 0
BITMAP
0E00
1B00
0000
E0E0
E0E0
E0E0
E0E0
E0E0
E0E0
E0E0
E0E0
E0E0
E0E0
F1E0
7FC0
7FC0
1F00
ENDCHAR
STARTCHAR 00DC
ENCODING 220
SWIDTH 668 0
DWIDTH 13 0
BBX 11 17 1 0
BITMAP
1980
1980
0000
E0E0
E0E0
E0E0
E0E0
E0E0
E0E0
E0E0
E0E0
E0E0
E0E0
F1E0
7FC0
7FC0
1F00
ENDCHAR
STARTCHAR 00DD
ENCODING 221
SWIDTH 668 0
DWIDTH 13 0
BBX 11 18 1 0
BITMAP
0700
0600
0C00
0000
E0E0
E0E0
71C0
71C0
3B80
1F00
1F00
0E00
0E00
0E00
0E00
0E00
0E00
0E00
ENDCHAR
STARTCHAR 00DE
ENCODING 222
SWIDTH 668 0
DWIDTH 13 0
BBX 10 14 2 0
BITMAP
E000
E000
FF00
FF80
FFC0
E1C0
E1C0
E1C0
FFC0
FF80
FF00
E000
E000
E000
ENDCHAR
STARTCHAR 00DF
ENCODING 223
SWIDTH 617 0
DWIDTH 12 0
BBX 10 14 1 0
BITMAP
3E00
7F00
E700
E700
E700
EE00
EE00
EF00
E780
E3C0
E1C0
E9C0
FFC0
EF00
ENDCHAR
STARTCHAR 00E0
ENCODING 224
SWIDTH 565 0
DWIDTH 11 0
BBX 10 15 1 0
BITMAP
1C00
0C00
0600
0000
3E00
7F00
C380
0780
3F80
7B80
E380
E380
E780
7F80
3DC0
ENDCHAR
STARTCHAR 00E1
ENCODING 225
SWIDTH 565 0
DWIDTH 11 0
BBX 10 15 1 0
BITMAP
0E00
0C00
1800
0000
3E00
7F00
C380
0780
3F80
7B80
E380
E380
E780
7F80
3DC0
ENDCHAR
STARTCHAR 00E2
ENCODING 226
SWIDTH 565 0
DWIDTH 11 0
BBX 10 14 1 0
BITMAP
1C00
3600
0000
3E00
7F00
C380
0780
3F80
7B80
E380
E380
E780
7F80
3DC0
ENDCHAR
STARTCHAR 00E3
ENCODING 227
SWIDTH 565 0
DWIDTH 11 0
BBX 10 15 1 0
BITMAP
1900
3F00
2600
0000
3E00
7F00
C380
0780
3F80
7B80
E380
E380
E780
7F80
3DC0
ENDCHAR
STARTCHAR 00E4
ENCODING 228
SWIDTH 565 0
DWIDTH 11 0
BBX 10 14 1 0
BITMAP
3300
3300
0000
3E00
7F00
C380
0780
3F80
7B80
E380
E380
E780
7F80
3DC0
ENDCHAR
STARTCHAR 00E5
ENCODING 229
SWIDTH 565 0
DWIDTH 11 0
BBX 10 16 1 0
BITMAP
0C00
1200
1200
0C00
0000
3E00
7F00
C380
0780
3F80
7B80
E380
E380
E780
7F80
3DC0
ENDCHAR
STARTCHAR 00E6
ENCODING 230
SWIDTH 874 0
DWIDTH 17 0
BBX 15 11 1 0
BITMAP
3E78
7FFC
C38C
0F8E
7FFE
FBFE
E380
E380
E7CE
7FFC
7C78
ENDCHAR
STARTCHAR 00E7
ENCODING 231
SWIDTH 565 0
DWIDTH 11 0
BBX 9 14 1 -3
BITMAP
1E00
7F00
7380
E100
E000
E000
E000
E100
7380
7F00
1E00
1E00
0600
3C00
ENDCHAR
STARTCHAR 00E8
ENCODING 232
SWIDTH 565 0
DWIDTH 11 0
BBX 9 15 1 0
BITMAP
1C00
0C00
0600
0000
1E00
7F00
7380
E380
FF80
FF80
E000
E000
7380
7F00
1E00
ENDCHAR
STARTCHAR 00E9
ENCODING 233
SWIDTH 565 0
DWIDTH 11 0
BBX 9 15 1 0
BITMAP
0E00
0C00
1800
0000
1E00
7F00
7380
E380
FF80
FF80
E000
E000
7380
7F00
1E00
ENDCHAR
STARTCHAR 00EA
ENCODING 234
SWIDTH 565 0
DWIDTH 11 0
BBX 9 14 1 0
BITMAP
1C00
3600
0000
1E00
7F00
7380
E380
FF80
FF80
E000
E000
7380
7F00
1E00
ENDCHAR
STARTCHAR 00EB
ENCODING 235
SWIDTH 565 0
DWIDTH 11 0
BBX 9 14 1 0
BITMAP
3300
3300
0000
1E00
7F00
7380
E380
FF80
FF80
E000
E000
7380
7F00
1E00
ENDCHAR
STARTCHAR 00EC
ENCODING 236
SWIDTH 257 0
DWIDTH 5 0
BBX 4 15 0 0
BITMAP
E0
60
30
00
70
70
70
70
70
70
70
70
70
70
70
ENDCHAR
STARTCHAR 00ED
ENCODING 237
SWIDTH 257 0
DWIDTH 5 0
BBX 4 15 1 0
BITMAP
70
60
C0
00
E0
E0
E0
E0
E0
E0
E0
E0
E0
E0
E0
ENDCHAR
STARTCHAR 00EE
ENCODING 238
SWIDTH 257 0
DWIDTH 5 0
BBX 5 14 0 0
BITMAP
70
D8
00
70
70
70
70
70
70
70
70
70
70
70
ENDCHAR
STARTCHAR 00EF
ENCODING 239
SWIDTH 257 0
DWIDTH 5 0
BBX 6 14 0 0
BITMAP
CC
CC
00
70
70
70
70
70
70
70
70
70
70
70
ENDCHAR
STARTCHAR 00F0
ENCODING 240
SWIDTH 617 0
DWIDTH 12 0
BBX 10 14 1 0
BITMAP
1D00
0E00
1300
1D80
3F80
73C0
E1C0
E1C0
E1C0
E1C0
E1C0
7380
7F80
1E00
ENDCHAR
STARTCHAR 00F1
ENCODING 241
SWIDTH 617 0
DWIDTH 12 0
BBX 10 15 1 0
BITMAP
1900
3F00
2600
0000
EF00
FF80
F3C0
E1C0
E1C0
E1C0
E1C0
E1C0
E1C0
E1C0
E1C0
ENDCHAR
STARTCHAR 00F2
ENCODING 242
SWIDTH 617 0
DWIDTH 12 0
BBX 10 15 1 0
BITMAP
1C00
0C00
0600
0000
1E00
7F80
7380
E1C0
E1C0
E1C0
E1C0
E1C0
7380
7F80
1E00
ENDCHAR
STARTCHAR 00F3
ENCODING 243
SWIDTH 617 0
DWIDTH 12 0
BBX 10 15 1 0
BITMAP
0E00
0C00
1800
0000
1E00
7F80
7380
E1C0
E1C0
E1C0
E1C0
E1C0
7380
7F80
1E00
ENDCHAR
STARTCHAR 00F4
ENCODING 244
SWIDTH 617 0
DWIDTH 12 0
BBX 10 14 1 0
BITMAP
0E00
1B00
0000
1E00
7F80
7380
E1C0
E1C0
E1C0
E1C0
E1C0
7380
7F80
1E00
ENDCHAR
STARTCHAR 00F5
ENCODING 245
SWIDTH 617 0
DWIDTH 12 0
BBX 10 15 1 0
BITMAP
1900
3F00
2600
0000
1E00
7F80
7380
E1C0
E1C0
E1C0
E1C0
E1C0
7380
7F80
1E00
ENDCHAR
STARTCHAR 00F6
ENCODING 246
SWIDTH 617 0
DWIDTH 12 0
BBX 10 14 1 0
BITMAP
3300
3300
0000
1E00
7F80
7380
E1C0
E1C0
E1C0
E1C0
E1C0
7380
7F80
1E00
ENDCHAR
STARTCHAR 00F7
ENCODING 247
SWIDTH 514 0
DWIDTH 10 0
BBX 11 11 0 2
BITMAP
0E00
0E00
0E00
0000
FFE0
FFE0
FFE0
0000
0E00
0E00
0E00
ENDCHAR
STARTCHAR 00F8
ENCODING 248
SWIDTH 617 0
DWIDTH 12 0
BBX 10 13 1 -1
BITMAP
0080
1CC0
7F80
7380
E380
E7C0
EDC0
F9C0
F1C0
7380
7F80
CE00
4000
ENDCHAR
STARTCHAR 00F9
ENCODING 249
SWIDTH 617 0
DWIDTH 12 0
BBX 10 15 1 0
BITMAP
1C00
0C00
0600
0000
E1C0
E1C0
E1C0
E1C0
E1C0
E1C0
E1C0
E1C0
E3C0
7FC0
3DC0
ENDCHAR
STARTCHAR 00FA
ENCODING 250
SWIDTH 617 0
DWIDTH 12 0
BBX 10 15 1 0
BITMAP
0700
0600
0C00
0000
E1C0
E1C0
E1C0
E1C0
E1C0
E1C0
E1C0
E1C0
E3C0
7FC0
3DC0
ENDCHAR
STARTCHAR 00FB
ENCODING 251
SWIDTH 617 0
DWIDTH 12 0
BBX 10 14 1 0
BITMAP
0E00
1B00
0000
E1C0
E1C0
E1C0
E1C0
E1C0
E1C0
E1C0
E1C0
E3C0
7FC0
3DC0
ENDCHAR
STARTCHAR 00FC
ENCODING 252
SWIDTH 617 0
DWIDTH 12 0
BBX 10 14 1 0
BITMAP
3300
3300
0000
E1C0
E1C0
E1C0
E1C0
E1C0
E1C0
E1C0
E1C0
E3C0
7FC0
3DC0
ENDCHAR
STARTCHAR 00FD
ENCODING 253
SWIDTH 565 0
DWIDTH 11 0
BBX 11 19 0 -4
BITMAP
0700
0600
0C00
0000
E0E0
E0E0
71C0
71C0
71C0
3B80
3B80
1B00
1F00
1F00
0E00
0E00
1C00
7C00
7800
ENDCHAR
STARTCHAR 00FE
ENCODING 254
SWIDTH 617 0
DWIDTH 12 0
BBX 10 18 1 -4
BITMAP
E000
E000
E000
EF00
FF80
F380
E1C0
E1C0
E1C0
E1C0
E1C0
F380
FF80
EF00
E000
E000
E000
E000
ENDCHAR
STARTCHAR 00FF
ENCODING 255
SWIDTH 565 0
DWIDTH 11 0
BBX 11 18 0 -4
BITMAP
1980
1980
0000
E0E0
E0E0
71C0
71C0
71C0
3B80
3B80
1B00
1F00
1F00
0E00
0E00
1C00
7C00
7800
ENDCHAR
STARTCHAR 0100
ENCODING 256
SWIDTH 668 0
DWIDTH 13 0
BBX 13 17 0 0
BITMAP
0FC0
0FC0
0000
0F80
0F80
0F80
1DC0
1DC0
1DC0
38E0
38E0
3FE0
7FF0
7FF0
7070
F078
E038
ENDCHAR
STARTCHAR 0101
ENCODING 257
SWIDTH 565 0
DWIDTH 11 0
BBX 10 14 1 0
BITMAP
3F00
3F00
0000
3E00
7F00
C380
0780
3F80
7B80
E380
E380
E780
7F80
3DC0
ENDCHAR
STARTCHAR 0102
ENCODING 258
SWIDTH 668 0
DWIDTH 13 0
BBX 13 17 0 0
BITMAP
0840
0780
0000
0F80
0F80
0F80
1DC0
1DC0
1DC0
38E0
38E0
3FE0
7FF0
7FF0
7070
F078
E038
ENDCHAR
STARTCHAR 0103
ENCODING 259
SWIDTH 565 0
DWIDTH 11 0
BBX 10 14 1 0
BITMAP
2100
1E00
0000
3E00
7F00
C380
0780
3F80
7B80
E380
E380
E780
7F80
3DC0
ENDCHAR
STARTCHAR 0104
ENCODING 260
SWIDTH 668 0
DWIDTH 13 0
BBX 15 18 0 -4
BITMAP
0F80
0F80
0F80
1DC0
1DC0
1DC0
38E0
38E0
3FE0
7FF0
7FF0
7070
F078
E038
0030
0030
0030
001E
ENDCHAR
STARTCHAR 0105
ENCODING 261
SWIDTH 565 0
DWIDTH 11 0
BBX 12 15 1 -4
BITMAP
3E00
7F00
C380
0780
3F80
7B80
E380
E380
E780
7F80
3DC0
0180
0180
0180
00F0
ENDCHAR
STARTCHAR 0106
ENCODING 262
SWIDTH 720 0
DWIDTH 14 0
BBX 12 18 1 0
BITMAP
0380
0300
0600
0000
0F80
3FE0
7FE0
70F0
E060
E000
E000
E000
E000
E060
70F0
7FE0
3FE0
0F80
ENDCHAR
STARTCHAR 0107
ENCODING 263
SWIDTH 565 0
DWIDTH 11 0
BBX 9 15 1 0
BITMAP
0E00
0C00
1800
0000
1E00
7F00
7380
E100
E000
E000
E000
E100
7380
7F00
1E00
ENDCHAR
STARTCHAR 0108
ENCODING 264
SWIDTH 720 0
DWIDTH 14 0
BBX 12 17 1 0
BITMAP
0700
0D80
0000
0F80
3FE0
7FE0
70F0
E060
E000
E000
E000
E000
E060
70F0
7FE0
3FE0
0F80
ENDCHAR
STARTCHAR 0109
ENCODING 265
SWIDTH 565 0
DWIDTH 11 0
BBX 9 14 1 0
BITMAP
1C00
3600
0000
1E00
7F00
7380
E100
E000
E000
E000
E100
7380
7F00
1E00
ENDCHAR
STARTCHAR 010A
ENCODING 266
SWIDTH 720 0
DWIDTH 14 0
BBX 12 18 1 0
BITMAP
0700
0700
0700
0000
0F80
3FE0
7FE0
70F0
E060
E000
E000
E000
E000
E060
70F0
7FE0
3FE0
0F80
ENDCHAR
STARTCHAR 010B
ENCODING 267
SWIDTH 565 0
DWIDTH 11 0
BBX 9 15 1 0
BITMAP
1C00
1C00
1C00
0000
1E00
7F00
7380
E100
E000
E000
E000
E100
7380
7F00
1E00
ENDCHAR
STARTCHAR 010C
ENCODING 268
SWIDTH 720 0
DWIDTH 14 0
BBX 12 17 1 0
BITMAP
0D80
0700
0000
0F80
3FE0
7FE0
70F0
E060
E000
E000
E000
E000
E060
70F0
7FE0
3FE0
0F80
ENDCHAR
STARTCHAR 010D
ENCODING 269
SWIDTH 565 0
DWIDTH 11 0
BBX 9 14 1 0
BITMAP
3600
1C00
0000
1E00
7F00
7380
E100
E000
E000
E000
E100
7380
7F00
1E00
ENDCHAR
STARTCHAR 010E
ENCODING 270
SWIDTH 720 0
DWIDTH 14 0
BBX 12 17 1 0
BITMAP
1B00
0E00
0000
FF80
FFC0
FFE0
E0E0
E070
E070
E070
E070
E070
E070
E0E0
FFE0
FFC0
FF80
ENDCHAR
STARTCHAR 010F
ENCODING 271
SWIDTH 720 0
DWIDTH 14 0
BBX 13 14 1 0
BITMAP
01D8
01D8
01C8
3DC8
7FD0
73C0
E1C0
E1C0
E1C0
E1C0
E1C0
73C0
7FC0
3DC0
ENDCHAR
STARTCHAR 0110
ENCODING 272
SWIDTH 720 0
DWIDTH 14 0
BBX 13 14 0 0
BITMAP
7FC0
7FE0
7FF0
7070
7038
7038
FE38
FE38
7038
7038
7070
7FF0
7FE0
7FC0
ENDCHAR
STARTCHAR 0111
ENCODING 273
SWIDTH 617 0
DWIDTH 12 0
BBX 11 14 1 0
BITMAP
01C0
0FE0
01C0
3DC0
7FC0
73C0
E1C0
E1C0
E1C0
E1C0
E1C0
73C0
7FC0
3DC0
ENDCHAR
STARTCHAR 0112
ENCODING 274
SWIDTH 668 0
DWIDTH 13 0
BBX 11 17 1 0
BITMAP
1F80
1F80
0000
FFE0
FFE0
FFE0
E000
E000
FFC0
FFC0
FFC0
E000
E000
E000
FFE0
FFE0
FFE0
ENDCHAR
STARTCHAR 0113
ENCODING 275
SWIDTH 565 0
DWIDTH 11 0
BBX 9 14 1 0
BITMAP
3F00
3F00
0000
1E00
7F00
7380
E380
FF80
FF80
E000
E000
7380
7F00
1E00
ENDCHAR
STARTCHAR 0114
ENCODING 276
SWIDTH 668 0
DWIDTH 13 0
BBX 11 17 1 0
BITMAP
1080
0F00
0000
FFE0
FFE0
FFE0
E000
E000
FFC0
FFC0
FFC0
E000
E000
E000
FFE0
FFE0
FFE0
ENDCHAR
STARTCHAR 0115
ENCODING 277
SWIDTH 565 0
DWIDTH 11 0
BBX 9 14 1 0
BITMAP
2100
1E00
0000
1E00
7F00
7380
E380
FF80
FF80
E000
E000
7380
7F00
1E00
ENDCHAR
STARTCHAR 0116
ENCODING 278
SWIDTH 668 0
DWIDTH 13 0
BBX 11 18 1 0
BITMAP
0E00
0E00
0E00
0000
FFE0
FFE0
FFE0
E000
E000
FFC0
FFC0
FFC0
E000
E000
E000
FFE0
FFE0
FFE0
ENDCHAR
STARTCHAR 0117
ENCODING 279
SWIDTH 565 0
DWIDTH 11 0
BBX 9 15 1 0
BITMAP
1C00
1C00
1C00
0000
1E00
7F00
7380
E380
FF80
FF80
E000
E000
7380
7F00
1E00
ENDCHAR
STARTCHAR 0118
ENCODING 280
SWIDTH 668 0
DWIDTH 13 0
BBX 11 18 1 -4
BITMAP
FFE0
FFE0
FFE0
E000
E000
FFC0
FFC0
FFC0
E000
E000
E000
FFE0
FFE0
FFE0
0300
0300
0300
01E0
ENDCHAR
STARTCHAR 0119
ENCODING 281
SWIDTH 565 0
DWIDTH 11 0
BBX 9 15 1 -4
BITMAP
1E00
7F00
7380
E380
FF80
FF80
E000
E000
7380
7F00
1E00
0C00
0C00
0C00
0780
ENDCHAR
STARTCHAR 011A
ENCODING 282
SWIDTH 668 0
DWIDTH 13 0
BBX 11 17 1 0
BITMAP
1B00
0E00
0000
FFE0
FFE0
FFE0
E000
E000
FFC0
FFC0
FFC0
E000
E000
E000
FFE0
FFE0
FFE0
ENDCHAR
STARTCHAR 011B
ENCODING 283
SWIDTH 565 0
DWIDTH 11 0
BBX 9 14 1 0
BITMAP
3600
1C00
0000
1E00
7F00
7380
E380
FF80
FF80
E000
E000
7380
7F00
1E00
ENDCHAR
STARTCHAR 011C
ENCODING 284
SWIDTH 771 0
DWIDTH 15 0
BBX 13 17 1 0
BITMAP
0700
0D80
0000
0FC0
3FF0
7FF0
7878
F030
E000
E000
E1F8
E1F8
F1F8
7838
7FF8
3FF0
0FC0
ENDCHAR
STARTCHAR 011D
ENCODING 285
SWIDTH 617 0
DWIDTH 12 0
BBX 10 18 1 -4
BITMAP
0E00
1B00
0000
3DC0
7FC0
73C0
E1C0
E1C0
E1C0
E1C0
E1C0
73C0
7FC0
3DC0
01C0
E1C0
FF80
3F00
ENDCHAR
STARTCHAR 011E
ENCODING 286
SWIDTH 771 0
DWIDTH 15 0
BBX 13 17 1 0
BITMAP
0840
0780
0000
0FC0
3FF0
7FF0
7878
F030
E000
E000
E1F8
E1F8
F1F8
7838
7FF8
3FF0
0FC0
ENDCHAR
STARTCHAR 011F
ENCODING 287
SWIDTH 617 0
DWIDTH 12 0
BBX 10 18 1 -4
BITMAP
2100
1E00
0000
3DC0
7FC0
73C0
E1C0
E1C0
E1C0
E1C0
E1C0
73C0
7FC0
3DC0
01C0
E1C0
FF80
3F00
ENDCHAR
STARTCHAR 0120
ENCODING 288
SWIDTH 771 0
DWIDTH 15 0
BBX 13 18 1 0
BITMAP
0700
0700
0700
0000
0FC0
3FF0
7FF0
7878
F030
E000
E000
E1F8
E1F8
F1F8
7838
7FF8
3FF0
0FC0
ENDCHAR
STARTCHAR 0121
ENCODING 289
SWIDTH 617 0
DWIDTH 12 0
BBX 10 19 1 -4
BITMAP
0E00
0E00
0E00
0000
3DC0
7FC0
73C0
E1C0
E1C0
E1C0
E1C0
E1C0
73C0
7FC0
3DC0
01C0
E1C0
FF80
3F00
ENDCHAR
STARTCHAR 0122
ENCODING 290
SWIDTH 771 0
DWIDTH 15 0
BBX 13 17 1 -3
BITMAP
0FC0
3FF0
7FF0
7878
F030
E000
E000
E1F8
E1F8
F1F8
7838
7FF8
3FF0
0FC0
0780
0180
0F00
ENDCHAR
STARTCHAR 0123
ENCODING 291
SWIDTH 617 0
DWIDTH 12 0
BBX 10 20 1 -4
BITMAP
0C00
1800
1C00
1C00
0000
3DC0
7FC0
73C0
E1C0
E1C0
E1C0
E1C0
E1C0
73C0
7FC0
3DC0
01C0
E1C0
FF80
3F00
ENDCHAR
STARTCHAR 0124
ENCODING 292
SWIDTH 668 0
DWIDTH 13 0
BBX 11 17 1 0
BITMAP
0E00
1B00
0000
E0E0
E0E0
E0E0
E0E0
FFE0
FFE0
FFE0
E0E0
E0E0
E0E0
E0E0
E0E0
E0E0
E0E0
ENDCHAR
STARTCHAR 0125
ENCODING 293
SWIDTH 617 0
DWIDTH 12 0
BBX 10 17 1 0
BITMAP
0E00
1B00
0000
E000
E000
E000
EF00
FF80
F1C0
E1C0
E1C0
E1C0
E1C0
E1C0
E1C0
E1C0
E1C0
ENDCHAR
STARTCHAR 0126
ENCODING 294
SWIDTH 668 0
DWIDTH 13 0
BBX 13 14 0 0
BITMAP
7070
FFF8
FFF8
7070
7FF0
7FF0
7FF0
7070
7070
7070
7070
7070
7070
7070
ENDCHAR
STARTCHAR 0127
ENCODING 295
SWIDTH 617 0
DWIDTH 12 0
BBX 11 14 0 0
BITMAP
7000
FE00
7000
7780
7FC0
78E0
70E0
70E0
70E0
70E0
70E0
70E0
70E0
70E0
ENDCHAR
STARTCHAR 0128
ENCODING 296
SWIDTH 257 0
DWIDTH 5 0
BBX 6 18 0 0
BITMAP
64
FC
98
00
70
70
70
70
70
70
70
70
70
70
70
70
70
70
ENDCHAR
STARTCHAR 0129
ENCODING 297
SWIDTH 257 0
DWIDTH 5 0
BBX 6 15 0 0
BITMAP
64
FC
98
00
70
70
70
70
70
70
70
70
70
70
70
ENDCHAR
STARTCHAR 012A
ENCODING 298
SWIDTH 257 0
DWIDTH 5 0
BBX 6 17 0 0
BITMAP
FC
FC
00
70
70
70
70
70
70
70
70
70
70
70
70
70
70
ENDCHAR
STARTCHAR 012B
ENCODING 299
SWIDTH 257 0
DWIDTH 5 0
BBX 6 14 0 0
BITMAP
FC
FC
00
70
70
70
70
70
70
70
70
70
70
70
ENDCHAR
STARTCHAR 012C
ENCODING 300
SWIDTH 257 0
DWIDTH 5 0
BBX 6 17 0 0
BITMAP
84
78
00
70
70
70
70
70
70
70
70
70
70
70
70
70
70
ENDCHAR
STARTCHAR 012D
ENCODING 301
SWIDTH 257 0
DWIDTH 5 0
BBX 6 14 0 0
BITMAP
84
78
00
70
70
70
70
70
70
70
70
70
70
70
ENDCHAR
STARTCHAR 012E
ENCODING 302
SWIDTH 257 0
DWIDTH 5 0
BBX 5 18 0 -4
BITMAP
70
70
70
70
70
70
70
70
70
70
70
70
70
70
40
C0
C0
78
ENDCHAR
STARTCHAR 012F
ENCODING 303
SWIDTH 257 0
DWIDTH 5 0
BBX 5 18 0 -4
BITMAP
70
70
00
70
70
70
70
70
70
70
70
70
70
70
40
C0
C0
78
ENDCHAR
STARTCHAR 0130
ENCODING 304
SWIDTH 257 0
DWIDTH 5 0
BBX 3 18 1 0
BITMAP
E0
E0
E0
00
E0
E0
E0
E0
E0
E0
E0
E0
E0
E0
E0
E0
E0
E0
ENDCHAR
STARTCHAR 0131
ENCODING 305
SWIDTH 257 0
DWIDTH 5 0
BBX 3 11 1 0
BITMAP
E0
E0
E0
E0
E0
E0
E0
E0
E0
E0
E0
ENDCHAR
STARTCHAR 0132
ENCODING 306
SWIDTH 771 0
DWIDTH 15 0
BBX 13 14 1 0
BITMAP
E038
E038
E038
E038
E038
E038
E038
E038
E038
FC38
FC38
FFF8
EFF0
E7E0
ENDCHAR
STARTCHAR 0133
ENCODING 307
SWIDTH 565 0
DWIDTH 11 0
BBX 9 18 1 -4
BITMAP
E380
E380
0000
E380
E380
E380
E380
E380
E380
E380
E380
E380
E380
E380
0380
0380
0F80
0F00
ENDCHAR
STARTCHAR 0134
ENCODING 308
SWIDTH 565 0
DWIDTH 11 0
BBX 11 17 0 0
BITMAP
01C0
0360
0000
01C0
01C0
01C0
01C0
01C0
01C0
01C0
01C0
01C0
E1C0
E1C0
FFC0
7F80
3F00
ENDCHAR
STARTCHAR 0135
ENCODING 309
SWIDTH 257 0
DWIDTH 5 0
BBX 6 18 -1 -4
BITMAP
38
6C
00
38
38
38
38
38
38
38
38
38
38
38
38
38
F8
F0
ENDCHAR
STARTCHAR 0136
ENCODING 310
SWIDTH 720 0
DWIDTH 14 0
BBX 12 17 1 -3
BITMAP
E0F0
E1E0
E3C0
E780
E700
EE00
FF00
FF80
F380
E1C0
E1C0
E0E0
E070
E070
0E00
0300
1E00
ENDCHAR
STARTCHAR 0137
ENCODING 311
SWIDTH 565 0
DWIDTH 11 0
BBX 9 17 1 -3
BITMAP
E000
E000
E000
E380
E700
EE00
FC00
FC00
FE00
EE00
E700
E700
E380
E380
1C00
0600
3C00
ENDCHAR
STARTCHAR 0138
ENCODING 312
SWIDTH 565 0
DWIDTH 11 0
BBX 10 11 1 0
BITMAP
E3C0
E380
E700
EE00
FC00
FE00
F700
E700
E380
E380
E1C0
ENDCHAR
STARTCHAR 0139
ENCODING 313
SWIDTH 617 0
DWIDTH 12 0
BBX 10 18 1 0
BITMAP
0E00
0C00
1800
0000
E000
E000
E000
E000
E000
E000
E000
E000
E000
E000
E000
FFC0
FFC0
FFC0
ENDCHAR
STARTCHAR 013A
ENCODING 314
SWIDTH 257 0
DWIDTH 5 0
BBX 4 18 1 0
BITMAP
70
60
C0
00
E0
E0
E0
E0
E0
E0
E0
E0
E0
E0
E0
E0
E0
E0
ENDCHAR
STARTCHAR 013B
ENCODING 315
SWIDTH 617 0
DWIDTH 12 0
BBX 10 17 1 -3
BITMAP
E000
E000
E000
E000
E000
E000
E000
E000
E000
E000
E000
FFC0
FFC0
FFC0
0E00
0300
1E00
ENDCHAR
STARTCHAR 013C
ENCODING 316
SWIDTH 257 0
DWIDTH 5 0
BBX 5 17 0 -3
BITMAP
70
70
70
70
70
70
70
70
70
70
70
70
70
70
70
18
F0
ENDCHAR
STARTCHAR 013D
ENCODING 317
SWIDTH 617 0
DWIDTH 12 0
BBX 10 14 1 0
BITMAP
E380
E380
E380
E080
E180
E300
E000
E000
E000
E000
E000
FFC0
FFC0
FFC0
ENDCHAR
STARTCHAR 013E
ENCODING 318
SWIDTH 360 0
DWIDTH 7 0
BBX 6 14 1 0
BITMAP
EC
EC
E4
E4
E8
E0
E0
E0
E0
E0
E0
E0
E0
E0
ENDCHAR
STARTCHAR 013F
ENCODING 319
SWIDTH 617 0
DWIDTH 12 0
BBX 10 14 1 0
BITMAP
E000
E000
E000
E000
E380
E380
E380
E000
E000
E000
E000
FFC0
FFC0
FFC0
ENDCHAR
STARTCHAR 0140
ENCODING 320
SWIDTH 462 0
DWIDTH 9 0
BBX 7 14 1 0
BITMAP
E0
E0
E0
E0
E0
EE
EE
EE
E0
E0
E0
E0
E0
E0
ENDCHAR
STARTCHAR 0141
ENCODING 321
SWIDTH 617 0
DWIDTH 12 0
BBX 12 14 -1 0
BITMAP
3800
3800
3900
3A00
3C00
3800
3800
7800
B800
3800
3800
3FF0
3FF0
3FF0
ENDCHAR
STARTCHAR 0142
ENCODING 322
SWIDTH 257 0
DWIDTH 5 0
BBX 5 14 0 0
BITMAP
70
70
70
70
78
70
70
70
F0
70
70
70
70
70
ENDCHAR
STARTCHAR 0143
ENCODING 323
SWIDTH 668 0
DWIDTH 13 0
BBX 11 18 1 0
BITMAP
0380
0300
0600
0000
F0E0
F0E0
F8E0
F8E0
FCE0
FCE0
EEE0
EEE0
E7E0
E3E0
E3E0
E1E0
E1E0
E0E0
ENDCHAR
STARTCHAR 0144
ENCODING 324
SWIDTH 617 0
DWIDTH 12 0
BBX 10 15 1 0
BITMAP
0700
0600
0C00
0000
EF00
FF80
F3C0
E1C0
E1C0
E1C0
E1C0
E1C0
E1C0
E1C0
E1C0
ENDCHAR
STARTCHAR 0145
ENCODING 325
SWIDTH 668 0
DWIDTH 13 0
BBX 11 17 1 -3
BITMAP
F0E0
F0E0
F8E0
F8E0
FCE0
FCE0
EEE0
EEE0
E7E0
E3E0
E3E0
E1E0
E1E0
E0E0
0E00
0300
1E00
ENDCHAR
STARTCHAR 0146
ENCODING 326
SWIDTH 617 0
DWIDTH 12 0
BBX 10 14 1 -3
BITMAP
EF00
FF80
F3C0
E1C0
E1C0
E1C0
E1C0
E1C0
E1C0
E1C0
E1C0
1C00
0600
3C00
ENDCHAR
STARTCHAR 0147
ENCODING 327
SWIDTH 668 0
DWIDTH 13 0
BBX 11 17 1 0
BITMAP
1B00
0E00
0000
F0E0
F0E0
F8E0
F8E0
FCE0
FCE0
EEE0
EEE0
E7E0
E3E0
E3E0
E1E0
E1E0
E0E0
ENDCHAR
STARTCHAR 0148
ENCODING 328
SWIDTH 617 0
DWIDTH 12 0
BBX 10 14 1 0
BITMAP
1B00
0E00
0000
EF00
FF80
F3C0
E1C0
E1C0
E1C0
E1C0
E1C0
E1C0
E1C0
E1C0
ENDCHAR
STARTCHAR 0149
ENCODING 329
SWIDTH 668 0
DWIDTH 13 0
BBX 14 14 -1 0
BITMAP
E000
E000
E000
2EF0
6FF8
CF3C
0E1C
0E1C
0E1C
0E1C
0E1C
0E1C
0E1C
0E1C
ENDCHAR
STARTCHAR 014A
ENCODING 330
SWIDTH 720 0
DWIDTH 14 0
BBX 12 14 1 0
BITMAP
E7C0
FFE0
FFE0
F0F0
E070
E070
E070
E070
E070
E070
E0F0
E3F0
E7E0
E3C0
ENDCHAR
STARTCHAR 014B
ENCODING 331
SWIDTH 617 0
DWIDTH 12 0
BBX 10 15 1 -4
BITMAP
EF00
FFC0
F1C0
E1C0
E1C0
E1C0
E1C0
E1C0
E1C0
E1C0
E1C0
01C0
01C0
07C0
0780
ENDCHAR
STARTCHAR 014C
ENCODING 332
SWIDTH 771 0
DWIDTH 15 0
BBX 13 17 1 0
BITMAP
0FC0
0FC0
0000
0F80
3FE0
7FF0
78F0
F078
E038
E038
E038
E038
F078
78F0
7FF0
3FE0
0F80
ENDCHAR
STARTCHAR 014D
ENCODING 333
SWIDTH 617 0
DWIDTH 12 0
BBX 10 14 1 0
BITMAP
3F00
3F00
0000
1E00
7F80
7380
E1C0
E1C0
E1C0
E1C0
E1C0
7380
7F80
1E00
ENDCHAR
STARTCHAR 014E
ENCODING 334
SWIDTH 771 0
DWIDTH 15 0
BBX 13 17 1 0
BITMAP
0840
0780
0000
0F80
3FE0
7FF0
78F0
F078
E038
E038
E038
E038
F078
78F0
7FF0
3FE0
0F80
ENDCHAR
STARTCHAR 014F
ENCODING 335
SWIDTH 617 0
DWIDTH 12 0
BBX 10 14 1 0
BITMAP
2100
1E00
0000
1E00
7F80
7380
E1C0
E1C0
E1C0
E1C0
E1C0
7380
7F80
1E00
ENDCHAR
STARTCHAR 0150
ENCODING 336
SWIDTH 771 0
DWIDTH 15 0
BBX 13 18 1 0
BITMAP
0EE0
0CC0
1980
0000
0F80
3FE0
7FF0
78F0
F078
E038
E038
E038
E038
F078
78F0
7FF0
3FE0
0F80
ENDCHAR
STARTCHAR 0151
ENCODING 337
SWIDTH 617 0
DWIDTH 12 0
BBX 10 15 1 0
BITMAP
1DC0
1980
3300
0000
1E00
7F80
7380
E1C0
E1C0
E1C0
E1C0
E1C0
7380
7F80
1E00
ENDCHAR
STARTCHAR 0152
ENCODING 338
SWIDTH 977 0
DWIDTH 19 0
BBX 18 14 0 0
BITMAP
0F7FC0
3FFFC0
7FFFC0
70F000
E07000
E07F80
E07F80
E07F80
E07000
E07000
70F000
7FFFC0
3FFFC0
0F7FC0
ENDCHAR
STARTCHAR 0153
ENCODING 339
SWIDTH 925 0
DWIDTH 18 0
BBX 16 11 1 0
BITMAP
1F3C
3FFE
71E7
E0E7
E0FF
E0FF
E0E0
E0E0
71E7
3FFE
1F3C
ENDCHAR
STARTCHAR 0154
ENCODING 340
SWIDTH 668 0
DWIDTH 13 0
BBX 12 18 1 0
BITMAP
0700
0600
0C00
0000
FF80
FFC0
FFE0
E0E0
E0E0
E0E0
FFC0
FFC0
FF00
E780
E3C0
E1C0
E1E0
E0F0
ENDCHAR
STARTCHAR 0155
ENCODING 341
SWIDTH 411 0
DWIDTH 8 0
BBX 7 15 1 0
BITMAP
18
38
30
00
EE
FE
F0
E0
E0
E0
E0
E0
E0
E0
E0
ENDCHAR
STARTCHAR 0156
ENCODING 342
SWIDTH 668 0
DWIDTH 13 0
BBX 12 17 1 -3
BITMAP
FF80
FFC0
FFE0
E0E0
E0E0
E0E0
FFC0
FFC0
FF00
E780
E3C0
E1C0
E1E0
E0F0
0E00
0300
1E00
ENDCHAR
STARTCHAR 0157
ENCODING 343
SWIDTH 411 0
DWIDTH 8 0
BBX 7 14 1 -3
BITMAP
EE
FE
F0
E0
E0
E0
E0
E0
E0
E0
E0
70
18
F0
ENDCHAR
STARTCHAR 0158
ENCODING 344
SWIDTH 668 0
DWIDTH 13 0
BBX 12 17 1 0
BITMAP
1B00
0E00
0000
FF80
FFC0
FFE0
E0E0
E0E0
E0E0
FFC0
FFC0
FF00
E780
E3C0
E1C0
E1E0
E0F0
ENDCHAR
STARTCHAR 0159
ENCODING 345
SWIDTH 411 0
DWIDTH 8 0
BBX 7 14 1 0
BITMAP
6C
38
00
EE
FE
F0
E0
E0
E0
E0
E0
E0
E0
E0
ENDCHAR
STARTCHAR 015A
ENCODING 346
SWIDTH 668 0
DWIDTH 13 0
BBX 11 18 1 0
BITMAP
0600
0E00
0C00
0000
3F00
7FC0
FFC0
E1E0
E0E0
F800
7F00
3FC0
03E0
E0E0
F0E0
7FE0
7FC0
1F80
ENDCHAR
STARTCHAR 015B
ENCODING 347
SWIDTH 565 0
DWIDTH 11 0
BBX 9 15 1 0
BITMAP
0C00
1C00
1800
0000
3E00
7F00
E380
E000
FC00
7F00
1F80
0380
E380
7F00
3E00
ENDCHAR
STARTCHAR 015C
ENCODING 348
SWIDTH 668 0
DWIDTH 13 0
BBX 11 17 1 0
BITMAP
0E00
1B00
0000
3F00
7FC0
FFC0
E1E0
E0E0
F800
7F00
3FC0
03E0
E0E0
F0E0
7FE0
7FC0
1F80
ENDCHAR
STARTCHAR 015D
ENCODING 349
SWIDTH 565 0
DWIDTH 11 0
BBX 9 14 1 0
BITMAP
1C00
3600
0000
3E00
7F00
E380
E000
FC00
7F00
1F80
0380
E380
7F00
3E00
ENDCHAR
STARTCHAR 015E
ENCODING 350
SWIDTH 668 0
DWIDTH 13 0
BBX 11 17 1 -3
BITMAP
3F00
7FC0
FFC0
E1E0
E0E0
F800
7F00
3FC0
03E0
E0E0
F0E0
7FE0
7FC0
1F80
0F00
0300
1E00
ENDCHAR
STARTCHAR 015F
ENCODING 351
SWIDTH 565 0
DWIDTH 11 0
BBX 9 14 1 -3
BITMAP
3E00
7F00
E380
E000
FC00
7F00
1F80
0380
E380
7F00
3E00
1E00
0600
3C00
ENDCHAR
STARTCHAR 0160
ENCODING 352
SWIDTH 668 0
DWIDTH 13 0
BBX 11 17 1 0
BITMAP
1B00
0E00
0000
3F00
7FC0
FFC0
E1E0
E0E0
F800
7F00
3FC0
03E0
E0E0
F0E0
7FE0
7FC0
1F80
ENDCHAR
STARTCHAR 0161
ENCODING 353
SWIDTH 565 0
DWIDTH 11 0
BBX 9 14 1 0
BITMAP
3600
1C00
0000
3E00
7F00
E380
E000
FC00
7F00
1F80
0380
E380
7F00
3E00
ENDCHAR
STARTCHAR 0162
ENCODING 354
SWIDTH 668 0
DWIDTH 13 0
BBX 11 20 1 -6
BITMAP
FFE0
FFE0
FFE0
0E00
0E00
0E00
0E00
0E00
0E00
0E00
0E00
0E00
0E00
0E00
0000
0E00
0E00
0E00
0200
0C00
ENDCHAR
STARTCHAR 0163
ENCODING 355
SWIDTH 308 0
DWIDTH 6 0
BBX 6 19 0 -5
BITMAP
10
30
70
FC
FC
70
70
70
70
70
70
70
7C
3C
00
30
30
10
20
ENDCHAR
STARTCHAR 0164
ENCODING 356
SWIDTH 668 0
DWIDTH 13 0
BBX 11 17 1 0
BITMAP
1B00
0E00
0000
FFE0
FFE0
FFE0
0E00
0E00
0E00
0E00
0E00
0E00
0E00
0E00
0E00
0E00
0E00
ENDCHAR
STARTCHAR 0165
ENCODING 357
SWIDTH 462 0
DWIDTH 9 0
BBX 9 14 0 0
BITMAP
1180
3180
7080
FC80
FD00
7000
7000
7000
7000
7000
7000
7000
7C00
3C00
ENDCHAR
STARTCHAR 0166
ENCODING 358
SWIDTH 668 0
DWIDTH 13 0
BBX 11 14 1 0
BITMAP
FFE0
FFE0
FFE0
0E00
0E00
0E00
0E00
7FC0
7FC0
0E00
0E00
0E00
0E00
0E00
ENDCHAR
STARTCHAR 0167
ENCODING 359
SWIDTH 308 0
DWIDTH 6 0
BBX 6 14 0 0
BITMAP
10
30
70
FC
FC
70
70
70
FC
FC
70
70
7C
3C
ENDCHAR
STARTCHAR 0168
ENCODING 360
SWIDTH 668 0
DWIDTH 13 0
BBX 11 18 1 0
BITMAP
0C80
1F80
1300
0000
E0E0
E0E0
E0E0
E0E0
E0E0
E0E0
E0E0
E0E0
E0E0
E0E0
F1E0
7FC0
7FC0
1F00
ENDCHAR
STARTCHAR 0169
ENCODING 361
SWIDTH 617 0
DWIDTH 12 0
BBX 10 15 1 0
BITMAP
1900
3F00
2600
0000
E1C0
E1C0
E1C0
E1C0
E1C0
E1C0
E1C0
E1C0
E3C0
7FC0
3DC0
ENDCHAR
STARTCHAR 016A
ENCODING 362
SWIDTH 668 0
DWIDTH 13 0
BBX 11 17 1 0
BITMAP
1F80
1F80
0000
E0E0
E0E0
E0E0
E0E0
E0E0
E0E0
E0E0
E0E0
E0E0
E0E0
F1E0
7FC0
7FC0
1F00
ENDCHAR
STARTCHAR 016B
ENCODING 363
SWIDTH 617 0
DWIDTH 12 0
BBX 10 14 1 0
BITMAP
3F00
3F00
0000
E1C0
E1C0
E1C0
E1C0
E1C0
E1C0
E1C0
E1C0
E3C0
7FC0
3DC0
ENDCHAR
STARTCHAR 016C
ENCODING 364
SWIDTH 668 0
DWIDTH 13 0
BBX 11 17 1 0
BITMAP
1080
0F00
0000
E0E0
E0E0
E0E0
E0E0
E0E0
E0E0
E0E0
E0E0
E0E0
E0E0
F1E0
7FC0
7FC0
1F00
ENDCHAR
STARTCHAR 016D
ENCODING 365
SWIDTH 617 0
DWIDTH 12 0
BBX 10 14 1 0
BITMAP
2100
1E00
0000
E1C0
E1C0
E1C0
E1C0
E1C0
E1C0
E1C0
E1C0
E3C0
7FC0
3DC0
ENDCHAR
STARTCHAR 016E
ENCODING 366
SWIDTH 668 0
DWIDTH 13 0
BBX 11 18 1 0
BITMAP
0600
0900
0900
0600
E0E0
E0E0
E0E0
E0E0
E0E0
E0E0
E0E0
E0E0
E0E0
E0E0
F1E0
7FC0
7FC0
1F00
ENDCHAR
STARTCHAR 016F
ENCODING 367
SWIDTH 617 0
DWIDTH 12 0
BBX 10 16 1 0
BITMAP
0C00
1200
1200
0C00
0000
E1C0
E1C0
E1C0
E1C0
E1C0
E1C0
E1C0
E1C0
E3C0
7FC0
3DC0
ENDCHAR
STARTCHAR 0170
ENCODING 368
SWIDTH 668 0
DWIDTH 13 0
BBX 11 18 1 0
BITMAP
1DC0
1980
3300
0000
E0E0
E0E0
E0E0
E0E0
E0E0
E0E0
E0E0
E0E0
E0E0
E0E0
F1E0
7FC0
7FC0
1F00
ENDCHAR
STARTCHAR 0171
ENCODING 369
SWIDTH 617 0
DWIDTH 12 0
BBX 10 15 1 0
BITMAP
3B80
3300
6600
0000
E1C0
E1C0
E1C0
E1C0
E1C0
E1C0
E1C0
E1C0
E3C0
7FC0
3DC0
ENDCHAR
STARTCHAR 0172
ENCODING 370
SWIDTH 668 0
DWIDTH 13 0
BBX 11 18 1 -4
BITMAP
E0E0
E0E0
E0E0
E0E0
E0E0
E0E0
E0E0
E0E0
E0E0
E0E0
F1E0
FFE0
7FC0
3F80
0C00
0C00
0C00
0700
ENDCHAR
STARTCHAR 0173
ENCODING 371
SWIDTH 617 0
DWIDTH 12 0
BBX 11 15 1 -4
BITMAP
E1C0
E1C0
E1C0
E1C0
E1C0
E1C0
E1C0
E1C0
E3C0
7FC0
3DC0
0180
0180
0180
00E0
ENDCHAR
STARTCHAR 0174
ENCODING 372
SWIDTH 874 0
DWIDTH 17 0
BBX 17 17 0 0
BITMAP
01C000
036000
000000
E1C380
E1C380
E3E380
73E700
736700
736700
777700
777700
763700
763700
3E3E00
3E3E00
3C1E00
3C1E00
ENDCHAR
STARTCHAR 0175
ENCODING 373
SWIDTH 771 0
DWIDTH 15 0
BBX 15 14 0 0
BITMAP
0380
06C0
0000
E38E
E38E
638C
77DC
76DC
36D8
36D8
3EF8
3C78
1C70
1C70
ENDCHAR
STARTCHAR 0176
ENCODING 374
SWIDTH 668 0
DWIDTH 13 0
BBX 11 17 1 0
BITMAP
0E00
1B00
0000
E0E0
E0E0
71C0
71C0
3B80
1F00
1F00
0E00
0E00
0E00
0E00
0E00
0E00
0E00
ENDCHAR
STARTCHAR 0177
ENCODING 375
SWIDTH 565 0
DWIDTH 11 0
BBX 11 18 0 -4
BITMAP
0E00
1B00
0000
E0E0
E0E0
71C0
71C0
71C0
3B80
3B80
1B00
1F00
1F00
0E00
0E00
1C00
7C00
7800
ENDCHAR
STARTCHAR 0178
ENCODING 376
SWIDTH 668 0
DWIDTH 13 0
BBX 11 17 1 0
BITMAP
1980
1980
0000
E0E0
E0E0
71C0
71C0
3B80
1F00
1F00
0E00
0E00
0E00
0E00
0E00
0E00
0E00
ENDCHAR
STARTCHAR 0179
ENCODING 377
SWIDTH 565 0
DWIDTH 11 0
BBX 11 18 0 0
BITMAP
0380
0300
0600
0000
7FE0
7FE0
7FE0
01E0
03C0
0780
0F00
1E00
3C00
7800
F000
FFE0
FFE0
FFE0
ENDCHAR
STARTCHAR 017A
ENCODING 378
SWIDTH 514 0
DWIDTH 10 0
BBX 8 15 1 0
BITMAP
0E
0C
18
00
FF
FF
07
0E
1C
3C
38
70
E0
FF
FF
ENDCHAR
STARTCHAR 017B
ENCODING 379
SWIDTH 565 0
DWIDTH 11 0
BBX 11 18 0 0
BITMAP
0700
0700
0700
0000
7FE0
7FE0
7FE0
01E0
03C0
0780
0F00
1E00
3C00
7800
F000
FFE0
FFE0
FFE0
ENDCHAR
STARTCHAR 017C
ENCODING 380
SWIDTH 514 0
DWIDTH 10 0
BBX 8 15 1 0
BITMAP
1C
1C
1C
00
FF
FF
07
0E
1C
3C
38
70
E0
FF
FF
ENDCHAR
STARTCHAR 017D
ENCODING 381
SWIDTH 565 0
DWIDTH 11 0
BBX 11 17 0 0
BITMAP
0D80
0700
0000
7FE0
7FE0
7FE0
01E0
03C0
0780
0F00
1E00
3C00
7800
F000
FFE0
FFE0
FFE0
ENDCHAR
STARTCHAR 017E
ENCODING 382
SWIDTH 514 0
DWIDTH 10 0
BBX 8 14 1 0
BITMAP
36
1C
00
FF
FF
07
0E
1C
3C
38
70
E0
FF
FF
ENDCHAR
STARTCHAR 017F
ENCODING 383
SWIDTH 257 0
DWIDTH 5 0
BBX 5 14 1 0
BITMAP
78
F8
E0
E0
E0
E0
E0
E0
E0
E0
E0
E0
E0
E0
ENDCHAR
STARTCHAR 018F
ENCODING 399
SWIDTH 720 0
DWIDTH 14 0
BBX 12 14 1 0
BITMAP
1F00
3FC0
7FE0
F0E0
6070
0070
FFF0
FFF0
FFF0
E070
70E0
7FE0
3FC0
1F00
ENDCHAR
STARTCHAR 0192
ENCODING 402
SWIDTH 565 0
DWIDTH 11 0
BBX 11 18 0 -4
BITMAP
01E0
03C0
0700
0700
1FC0
1FC0
0700
0F00
0E00
0E00
0E00
0E00
0E00
1C00
1C00
1C00
7C00
F800
ENDCHAR
STARTCHAR 01A0
ENCODING 416
SWIDTH 822 0
DWIDTH 16 0
BBX 15 14 1 0
BITMAP
0F86
3FE6
7FF6
78F2
F07E
E03C
E038
E038
E038
F078
78F0
7FF0
3FE0
0F80
ENDCHAR
STARTCHAR 01A1
ENCODING 417
SWIDTH 720 0
DWIDTH 14 0
BBX 12 11 1 0
BITMAP
1E30
7FB0
73B0
E1D0
E1D0
E1E0
E1C0
E1C0
7380
7F80
1E00
ENDCHAR
STARTCHAR 01AF
ENCODING 431
SWIDTH 822 0
DWIDTH 16 0
BBX 14 14 1 0
BITMAP
E0EC
E0EC
E0EC
E0E4
E0E8
E0F0
E0E0
E0E0
E0E0
E0E0
F1E0
7FC0
7FC0
1F00
ENDCHAR
STARTCHAR 01B0
ENCODING 432
SWIDTH 720 0
DWIDTH 14 0
BBX 13 11 1 0
BITMAP
E1D8
E1D8
E1D8
E1C8
E1D8
E1E0
E1C0
E1C0
E3C0
7FC0
3DC0
ENDCHAR
STARTCHAR 01CD
ENCODING 461
SWIDTH 668 0
DWIDTH 13 0
BBX 13 17 0 0
BITMAP
0D80
0700
0000
0F80
0F80
0F80
1DC0
1DC0
1DC0
38E0
38E0
3FE0
7FF0
7FF0
7070
F078
E038
ENDCHAR
STARTCHAR 01CE
ENCODING 462
SWIDTH 565 0
DWIDTH 11 0
BBX 10 14 1 0
BITMAP
3600
1C00
0000
3E00
7F00
C380
0780
3F80
7B80
E380
E380
E780
7F80
3DC0
ENDCHAR
STARTCHAR 01CF
ENCODING 463
SWIDTH 257 0
DWIDTH 5 0
BBX 5 17 0 0
BITMAP
D8
70
00
70
70
70
70
70
70
70
70
70
70
70
70
70
70
ENDCHAR
STARTCHAR 01D0
ENCODING 464
SWIDTH 257 0
DWIDTH 5 0
BBX 5 14 0 0
BITMAP
D8
70
00
70
70
70
70
70
70
70
70
70
70
70
ENDCHAR
STARTCHAR 01D1
ENCODING 465
SWIDTH 771 0
DWIDTH 15 0
BBX 13 17 1 0
BITMAP
0D80
0700
0000
0F80
3FE0
7FF0
78F0
F078
E038
E038
E038
E038
F078
78F0
7FF0
3FE0
0F80
ENDCHAR
STARTCHAR 01D2
ENCODING 466
SWIDTH 617 0
DWIDTH 12 0
BBX 10 14 1 0
BITMAP
1B00
0E00
0000
1E00
7F80
7380
E1C0
E1C0
E1C0
E1C0
E1C0
7380
7F80
1E00
ENDCHAR
STARTCHAR 01D3
ENCODING 467
SWIDTH 668 0
DWIDTH 13 0
BBX 11 17 1 0
BITMAP
1B00
0E00
0000
E0E0
E0E0
E0E0
E0E0
E0E0
E0E0
E0E0
E0E0
E0E0
E0E0
F1E0
7FC0
7FC0
1F00
ENDCHAR
STARTCHAR 01D4
ENCODING 468
SWIDTH 617 0
DWIDTH 12 0
BBX 10 14 1 0
BITMAP
1B00
0E00
0000
E1C0
E1C0
E1C0
E1C0
E1C0
E1C0
E1C0
E1C0
E3C0
7FC0
3DC0
ENDCHAR
STARTCHAR 01D5
ENCODING 469
SWIDTH 668 0
DWIDTH 13 0
BBX 11 18 1 0
BITMAP
0F00
0000
0900
0000
E0E0
E0E0
E0E0
E0E0
E0E0
E0E0
E0E0
E0E0
E0E0
E0E0
F1E0
7FC0
7FC0
1F00
ENDCHAR
STARTCHAR 01D6
ENCODING 470
SWIDTH 617 0
DWIDTH 12 0
BBX 10 18 1 0
BITMAP
3F00
3F00
0000
0000
3300
3300
0000
E1C0
E1C0
E1C0
E1C0
E1C0
E1C0
E1C0
E1C0
E3C0
7FC0
3DC0
ENDCHAR
STARTCHAR 01D7
ENCODING 471
SWIDTH 668 0
DWIDTH 13 0
BBX 11 18 1 0
BITMAP
0200
0400
1100
0000
E0E0
E0E0
E0E0
E0E0
E0E0
E0E0
E0E0
E0E0
E0E0
E0E0
F1E0
7FC0
7FC0
1F00
ENDCHAR
STARTCHAR 01D8
ENCODING 472
SWIDTH 617 0
DWIDTH 12 0
BBX 10 17 1 0
BITMAP
0700
0600
0C00
3300
3300
0000
E1C0
E1C0
E1C0
E1C0
E1C0
E1C0
E1C0
E1C0
E3C0
7FC0
3DC0
ENDCHAR
STARTCHAR 01D9
ENCODING 473
SWIDTH 668 0
DWIDTH 13 0
BBX 11 18 1 0
BITMAP
0A00
0400
1100
0000
E0E0
E0E0
E0E0
E0E0
E0E0
E0E0
E0E0
E0E0
E0E0
E0E0
F1E0
7FC0
7FC0
1F00
ENDCHAR
STARTCHAR 01DA
ENCODING 474
SWIDTH 617 0
DWIDTH 12 0
BBX 10 17 1 0
BITMAP
1B00
0E00
0000
3300
3300
0000
E1C0
E1C0
E1C0
E1C0
E1C0
E1C0
E1C0
E1C0
E3C0
7FC0
3DC0
ENDCHAR
STARTCHAR 01DB
ENCODING 475
SWIDTH 668 0
DWIDTH 13 0
BBX 11 18 1 0
BITMAP
0800
0400
1100
0000
E0E0
E0E0
E0E0
E0E0
E0E0
E0E0
E0E0
E0E0
E0E0
E0E0
F1E0
7FC0
7FC0
1F00
ENDCHAR
STARTCHAR 01DC
ENCODING 476
SWIDTH 617 0
DWIDTH 12 0
BBX 10 17 1 0
BITMAP
3800
1800
0C00
3300
3300
0000
E1C0
E1C0
E1C0
E1C0
E1C0
E1C0
E1C0
E1C0
E3C0
7FC0
3DC0
ENDCHAR
STARTCHAR 01FA
ENCODING 506
SWIDTH 668 0
DWIDTH 13 0
BBX 13 19 0 0
BITMAP
0380
0300
0700
0480
0480
0F80
0F80
0F80
1DC0
1DC0
1DC0
38E0
38E0
3FE0
7FF0
7FF0
7070
F078
E038
ENDCHAR
STARTCHAR 01FB
ENCODING 507
SWIDTH 565 0
DWIDTH 11 0
BBX 10 18 1 0
BITMAP
0E00
0C00
1800
0C00
1200
1200
0C00
3E00
7F00
C380
0780
3F80
7B80
E380
E380
E780
7F80
3DC0
ENDCHAR
STARTCHAR 01FC
ENCODING 508
SWIDTH 977 0
DWIDTH 19 0
BBX 19 18 -1 0
BITMAP
003800
003000
006000
000000
01FFE0
03FFE0
03FFE0
077000
077000
0E7FC0
0E7FC0
1C7FC0
1FF000
3FF000
3FF000
707FE0
707FE0
E07FE0
ENDCHAR
STARTCHAR 01FD
ENCODING 509
SWIDTH 874 0
DWIDTH 17 0
BBX 15 15 1 0
BITMAP
01C0
0180
0300
0000
3E78
7FFC
C38C
0F8E
7FFE
FBFE
E380
E380
E7CE
7FFC
7C78
ENDCHAR
STARTCHAR 01FE
ENCODING 510
SWIDTH 771 0
DWIDTH 15 0
BBX 15 19 0 -1
BITMAP
01C0
0180
0300
0004
07C6
1FFC
3FF8
3C78
787C
70DC
719C
731C
761C
7C3C
3C78
3FF8
7FF0
CFC0
4000
ENDCHAR
STARTCHAR 01FF
ENCODING 511
SWIDTH 617 0
DWIDTH 12 0
BBX 10 16 1 -1
BITMAP
0E00
0C00
1800
0080
1CC0
7F80
7380
E380
E7C0
EDC0
F9C0
F1C0
7380
7F80
CE00
4000
ENDCHAR
STARTCHAR 0259
ENCODING 601
SWIDTH 565 0
DWIDTH 11 0
BBX 9 11 1 0
BITMAP
3E00
7F00
E700
E380
0380
FF80
FF80
E380
6700
7F00
3E00
ENDCHAR
STARTCHAR 02C6
ENCODING 710
SWIDTH 308 0
DWIDTH 6 0
BBX 5 2 1 12
BITMAP
70
D8
ENDCHAR
STARTCHAR 02C7
ENCODING 711
SWIDTH 308 0
DWIDTH 6 0
BBX 5 2 1 12
BITMAP
D8
70
ENDCHAR
STARTCHAR 02C9
ENCODING 713
SWIDTH 308 0
DWIDTH 6 0
BBX 6 2 0 12
BITMAP
FC
FC
ENDCHAR
STARTCHAR 02D8
ENCODING 728
SWIDTH 308 0
DWIDTH 6 0
BBX 6 2 0 12
BITMAP
84
78
ENDCHAR
STARTCHAR 02D9
ENCODING 729
SWIDTH 308 0
DWIDTH 6 0
BBX 3 3 2 11
BITMAP
E0
E0
E0
ENDCHAR
STARTCHAR 02DA
ENCODING 730
SWIDTH 308 0
DWIDTH 6 0
BBX 4 4 1 10
BITMAP
60
90
90
60
ENDCHAR
STARTCHAR 02DB
ENCODING 731
SWIDTH 360 0
DWIDTH 7 0
BBX 5 4 1 -4
BITMAP
C0
C0
C0
78
ENDCHAR
STARTCHAR 02DC
ENCODING 732
SWIDTH 308 0
DWIDTH 6 0
BBX 6 3 0 11
BITMAP
64
FC
98
ENDCHAR
STARTCHAR 02DD
ENCODING 733
SWIDTH 308 0
DWIDTH 6 0
BBX 8 3 1 11
BITMAP
77
66
CC
ENDCHAR
STARTCHAR 0300
ENCODING 768
SWIDTH 0 0
DWIDTH 0 0
BBX 4 3 -5 15
BITMAP
E0
60
30
ENDCHAR
STARTCHAR 0301
ENCODING 769
SWIDTH 0 0
DWIDTH 0 0
BBX 4 3 -4 15
BITMAP
70
60
C0
ENDCHAR
STARTCHAR 0303
ENCODING 771
SWIDTH 0 0
DWIDTH 0 0
BBX 6 2 -8 15
BITMAP
64
98
ENDCHAR
STARTCHAR 0309
ENCODING 777
SWIDTH 0 0
DWIDTH 0 0
BBX 3 3 -4 15
BITMAP
E0
20
40
ENDCHAR
STARTCHAR 0323
ENCODING 803
SWIDTH 0 0
DWIDTH 0 0
BBX 3 3 -9 -4
BITMAP
E0
E0
E0
ENDCHAR
STARTCHAR 037E
ENCODING 894
SWIDTH 360 0
DWIDTH 7 0
BBX 3 14 2 -3
BITMAP
E0
E0
E0
00
00
00
00
00
E0
E0
E0
20
60
C0
ENDCHAR
STARTCHAR 0384
ENCODING 900
SWIDTH 308 0
DWIDTH 6 0
BBX 4 3 2 11
BITMAP
70
60
C0
ENDCHAR
STARTCHAR 0385
ENCODING 901
SWIDTH 462 0
DWIDTH 9 0
BBX 9 3 0 11
BITMAP
0E00
CD80
D980
ENDCHAR
STARTCHAR 0386
ENCODING 902
SWIDTH 668 0
DWIDTH 13 0
BBX 13 14 0 0
BITMAP
6F80
CF80
0F80
1DC0
1DC0
1DC0
38E0
38E0
3FE0
7FF0
7FF0
7070
E078
E038
ENDCHAR
STARTCHAR 0387
ENCODING 903
SWIDTH 308 0
DWIDTH 6 0
BBX 3 3 2 8
BITMAP
E0
E0
E0
ENDCHAR
STARTCHAR 0388
ENCODING 904
SWIDTH 822 0
DWIDTH 16 0
BBX 15 14 0 0
BITMAP
6FFE
CFFE
0FFE
0E00
0E00
0FFC
0FFC
0FFC
0E00
0E00
0E00
0FFE
0FFE
0FFE
ENDCHAR
STARTCHAR 0389
ENCODING 905
SWIDTH 874 0
DWIDTH 17 0
BBX 16 14 0 0
BITMAP
6707
C707
0707
0707
07FF
07FF
07FF
0707
0707
0707
0707
0707
0707
0707
ENDCHAR
STARTCHAR 038A
ENCODING 906
SWIDTH 462 0
DWIDTH 9 0
BBX 8 14 0 0
BITMAP
67
C7
07
07
07
07
07
07
07
07
07
07
07
07
ENDCHAR
STARTCHAR 038C
ENCODING 908
SWIDTH 822 0
DWIDTH 16 0
BBX 15 14 0 0
BITMAP
63E0
CFF8
1FFC
1E3C
3C1E
380E
380E
380E
380E
3C1E
1E3C
1FFC
0FF8
03E0
ENDCHAR
STARTCHAR 038E
ENCODING 910
SWIDTH 925 0
DWIDTH 18 0
BBX 17 14 0 0
BITMAP
638380
C38380
01C700
01C700
00EE00
007C00
007C00
003800
003800
003800
003800
003800
003800
003800
ENDCHAR
STARTCHAR 038F
ENCODING 911
SWIDTH 822 0
DWIDTH 16 0
BBX 15 14 0 0
BITMAP
63E0
CFF8
1FFC
1E3C
3C1E
380E
380E
380E
180C
1C1C
0E38
3F7E
3F7E
3F7E
ENDCHAR
STARTCHAR 0390
ENCODING 912
SWIDTH 257 0
DWIDTH 5 0
BBX 9 15 -2 0
BITMAP
0E00
CD80
D980
0000
1C00
1C00
1C00
1C00
1C00
1C00
1C00
1C00
1C00
1C00
1C00
ENDCHAR
STARTCHAR 0391
ENCODING 913
SWIDTH 668 0
DWIDTH 13 0
BBX 13 14 0 0
BITMAP
0F80
0F80
0F80
1DC0
1DC0
1DC0
38E0
38E0
3FE0
7FF0
7FF0
7070
F078
E038
ENDCHAR
STARTCHAR 0392
ENCODING 914
SWIDTH 720 0
DWIDTH 14 0
BBX 12 14 1 0
BITMAP
FF80
FFC0
FFE0
E0E0
E0E0
FFC0
FFC0
FFE0
E070
E070
E070
FFF0
FFE0
FFC0
ENDCHAR
STARTCHAR 0393
ENCODING 915
SWIDTH 565 0
DWIDTH 11 0
BBX 9 14 1 0
BITMAP
FF80
FF80
FF80
E000
E000
E000
E000
E000
E000
E000
E000
E000
E000
E000
ENDCHAR
STARTCHAR 0394
ENCODING 916
SWIDTH 720 0
DWIDTH 14 0
BBX 14 14 0 0
BITMAP
0780
0780
0780
0FC0
0FC0
1CE0
1CE0
1CE0
3870
3870
7038
7FF8
7FF8
FFFC
ENDCHAR
STARTCHAR 0395
ENCODING 917
SWIDTH 668 0
DWIDTH 13 0
BBX 11 14 1 0
BITMAP
FFE0
FFE0
FFE0
E000
E000
FFC0
FFC0
FFC0
E000
E000
E000
FFE0
FFE0
FFE0
ENDCHAR
STARTCHAR 0396
ENCODING 918
SWIDTH 565 0
DWIDTH 11 0
BBX 11 14 0 0
BITMAP
7FE0
7FE0
7FE0
01E0
03C0
0780
0F00
1E00
3C00
7800
F000
FFE0
FFE0
FFE0
ENDCHAR
STARTCHAR 0397
ENCODING 919
SWIDTH 668 0
DWIDTH 13 0
BBX 11 14 1 0
BITMAP
E0E0
E0E0
E0E0
E0E0
FFE0
FFE0
FFE0
E0E0
E0E0
E0E0
E0E0
E0E0
E0E0
E0E0
ENDCHAR
STARTCHAR 0398
ENCODING 920
SWIDTH 771 0
DWIDTH 15 0
BBX 13 14 1 0
BITMAP
0F80
3FE0
7FF0
78F0
F078
EFB8
EFB8
EFB8
E038
F078
78F0
7FF0
3FE0
0F80
ENDCHAR
STARTCHAR 0399
ENCODING 921
SWIDTH 257 0
DWIDTH 5 0
BBX 3 14 1 0
BITMAP
E0
E0
E0
E0
E0
E0
E0
E0
E0
E0
E0
E0
E0
E0
ENDCHAR
STARTCHAR 039A
ENCODING 922
SWIDTH 720 0
DWIDTH 14 0
BBX 12 14 1 0
BITMAP
E0F0
E1E0
E3C0
E780
E700
EE00
FF00
FF80
F380
E1C0
E1C0
E0E0
E070
E070
ENDCHAR
STARTCHAR 039B
ENCODING 923
SWIDTH 668 0
DWIDTH 13 0
BBX 13 14 0 0
BITMAP
0700
0F80
0F80
0F80
1DC0
1DC0
1DC0
38E0
38E0
38E0
7070
7070
7070
E038
ENDCHAR
STARTCHAR 039C
ENCODING 924
SWIDTH 874 0
DWIDTH 17 0
BBX 15 14 1 0
BITMAP
F83E
F83E
FC7E
EC6E
EC6E
EC6E
EEEE
E6CE
E6CE
E6CE
E7CE
E38E
E38E
E38E
ENDCHAR
STARTCHAR 039D
ENCODING 925
SWIDTH 668 0
DWIDTH 13 0
BBX 11 14 1 0
BITMAP
F0E0
F0E0
F8E0
F8E0
FCE0
FCE0
EEE0
EEE0
E7E0
E3E0
E3E0
E1E0
E1E0
E0E0
ENDCHAR
STARTCHAR 039E
ENCODING 926
SWIDTH 617 0
DWIDTH 12 0
BBX 10 14 1 0
BITMAP
FFC0
FFC0
FFC0
0000
0000
7F80
7F80
7F80
0000
0000
0000
FFC0
FFC0
FFC0
ENDCHAR
STARTCHAR 039F
ENCODING 927
SWIDTH 771 0
DWIDTH 15 0
BBX 13 14 1 0
BITMAP
0F80
3FE0
7FF0
78F0
F078
E038
E038
E038
E038
F078
78F0
7FF0
3FE0
0F80
ENDCHAR
STARTCHAR 03A0
ENCODING 928
SWIDTH 720 0
DWIDTH 14 0
BBX 12 14 1 0
BITMAP
FFF0
FFF0
FFF0
E070
E070
E070
E070
E070
E070
E070
E070
E070
E070
E070
ENDCHAR
STARTCHAR 03A1
ENCODING 929
SWIDTH 668 0
DWIDTH 13 0
BBX 11 14 1 0
BITMAP
FF80
FFC0
FFE0
E0E0
E0E0
E1E0
FFE0
FFC0
FF80
E000
E000
E000
E000
E000
ENDCHAR
STARTCHAR 03A3
ENCODING 931
SWIDTH 565 0
DWIDTH 11 0
BBX 9 14 1 0
BITMAP
FF80
FF80
FF80
E000
7000
3800
1C00
1C00
3800
7000
E000
FF80
FF80
FF80
ENDCHAR
STARTCHAR 03A4
ENCODING 932
SWIDTH 668 0
DWIDTH 13 0
BBX 11 14 1 0
BITMAP
FFE0
FFE0
FFE0
0E00
0E00
0E00
0E00
0E00
0E00
0E00
0E00
0E00
0E00
0E00
ENDCHAR
STARTCHAR 03A5
ENCODING 933
SWIDTH 668 0
DWIDTH 13 0
BBX 11 14 1 0
BITMAP
E0E0
E0E0
71C0
71C0
3B80
1F00
1F00
0E00
0E00
0E00
0E00
0E00
0E00
0E00
ENDCHAR
STARTCHAR 03A6
ENCODING 934
SWIDTH 771 0
DWIDTH 15 0
BBX 13 14 1 0
BITMAP
0700
0700
1FC0
7FF0
7FF0
F778
E738
E738
F778
7FF0
7FF0
1FC0
0700
0700
ENDCHAR
STARTCHAR 03A7
ENCODING 935
SWIDTH 668 0
DWIDTH 13 0
BBX 11 14 1 0
BITMAP
E0E0
F1E0
71C0
3B80
3B80
1F00
0E00
0E00
1F00
3B80
3B80
71C0
F1E0
E0E0
ENDCHAR
STARTCHAR 03A8
ENCODING 936
SWIDTH 771 0
DWIDTH 15 0
BBX 13 14 1 0
BITMAP
E738
E738
E738
E738
E738
E738
F778
7FF0
7FF0
1FE0
0700
0700
0700
0700
ENDCHAR
STARTCHAR 03A9
ENCODING 937
SWIDTH 771 0
DWIDTH 15 0
BBX 13 14 1 0
BITMAP
0F80
3FE0
7FF0
78F0
F078
E038
E038
E038
6030
7070
38E0
FDF8
FDF8
FDF8
ENDCHAR
STARTCHAR 03AA
ENCODING 938
SWIDTH 257 0
DWIDTH 5 0
BBX 6 17 0 0
BITMAP
CC
CC
00
70
70
70
70
70
70
70
70
70
70
70
70
70
70
ENDCHAR
STARTCHAR 03AB
ENCODING 939
SWIDTH 668 0
DWIDTH 13 0
BBX 11 17 1 0
BITMAP
1980
1980
0000
E0E0
E0E0
71C0
71C0
3B80
1F00
1F00
0E00
0E00
0E00
0E00
0E00
0E00
0E00
ENDCHAR
STARTCHAR 03AC
ENCODING 940
SWIDTH 617 0
DWIDTH 12 0
BBX 10 15 1 0
BITMAP
0380
0300
0600
0000
3CC0
7EC0
7380
E180
E180
E180
E180
E180
7380
7EC0
3CC0
ENDCHAR
STARTCHAR 03AD
ENCODING 941
SWIDTH 462 0
DWIDTH 9 0
BBX 8 15 1 0
BITMAP
1C
18
30
00
7E
FF
E2
E0
78
78
E0
E0
E2
7F
3C
ENDCHAR
STARTCHAR 03AE
ENCODING 942
SWIDTH 617 0
DWIDTH 12 0
BBX 10 19 1 -4
BITMAP
0700
0600
0C00
0000
EF00
FF80
F3C0
E1C0
E1C0
E1C0
E1C0
E1C0
E1C0
E1C0
E1C0
01C0
01C0
01C0
01C0
ENDCHAR
STARTCHAR 03AF
ENCODING 943
SWIDTH 257 0
DWIDTH 5 0
BBX 4 15 1 0
BITMAP
70
60
C0
00
E0
E0
E0
E0
E0
E0
E0
E0
E0
E0
E0
ENDCHAR
STARTCHAR 03B0
ENCODING 944
SWIDTH 565 0
DWIDTH 11 0
BBX 9 15 1 0
BITMAP
0E00
CD80
D980
0000
E380
E380
E380
E380
E380
E380
E380
E380
E780
7F00
3E00
ENDCHAR
STARTCHAR 03B1
ENCODING 945
SWIDTH 617 0
DWIDTH 12 0
BBX 10 11 1 0
BITMAP
3CC0
7EC0
7380
E180
E180
E180
E180
E180
7380
7EC0
3CC0
ENDCHAR
STARTCHAR 03B2
ENCODING 946
SWIDTH 617 0
DWIDTH 12 0
BBX 10 18 1 -4
BITMAP
1E00
7F00
7380
E380
E380
E700
EE00
E380
E1C0
E1C0
E1C0
F3C0
FF80
EF00
E000
E000
E000
E000
ENDCHAR
STARTCHAR 03B3
ENCODING 947
SWIDTH 565 0
DWIDTH 11 0
BBX 11 15 0 -4
BITMAP
E0E0
E0E0
60C0
71C0
71C0
3180
3B80
1B00
1B00
1F00
0E00
0E00
0E00
0E00
0E00
ENDCHAR
STARTCHAR 03B4
ENCODING 948
SWIDTH 617 0
DWIDTH 12 0
BBX 10 14 1 0
BITMAP
7F80
7F80
1800
1C00
7F00
7380
E1C0
E1C0
E1C0
E1C0
E1C0
7380
7F80
1E00
ENDCHAR
STARTCHAR 03B5
ENCODING 949
SWIDTH 462 0
DWIDTH 9 0
BBX 8 11 1 0
BITMAP
7E
FF
E2
E0
78
78
E0
E0
E2
7F
3C
ENDCHAR
STARTCHAR 03B6
ENCODING 950
SWIDTH 462 0
DWIDTH 9 0
BBX 8 18 1 -4
BITMAP
7F
7F
0E
1C
38
70
70
E0
E0
E0
E0
FC
7F
3F
07
07
1E
1C
ENDCHAR
STARTCHAR 03B7
ENCODING 951
SWIDTH 617 0
DWIDTH 12 0
BBX 10 15 1 -4
BITMAP
EF00
FF80
F3C0
E1C0
E1C0
E1C0
E1C0
E1C0
E1C0
E1C0
E1C0
01C0
01C0
01C0
01C0
ENDCHAR
STARTCHAR 03B8
ENCODING 952
SWIDTH 514 0
DWIDTH 10 0
BBX 8 14 1 0
BITMAP
3C
7E
66
E7
E7
E7
FF
FF
E7
E7
E7
66
7E
3C
ENDCHAR
STARTCHAR 03B9
ENCODING 953
SWIDTH 257 0
DWIDTH 5 0
BBX 3 11 1 0
BITMAP
E0
E0
E0
E0
E0
E0
E0
E0
E0
E0
E0
ENDCHAR
STARTCHAR 03BA
ENCODING 954
SWIDTH 565 0
DWIDTH 11 0
BBX 10 11 1 0
BITMAP
E1C0
E380
E700
EE00
FC00
FC00
FE00
E700
E700
E380
E1C0
ENDCHAR
STARTCHAR 03BB
ENCODING 955
SWIDTH 565 0
DWIDTH 11 0
BBX 11 14 0 0
BITMAP
1C00
1C00
0E00
0E00
1F00
1B00
1B00
3B80
3180
71C0
71C0
60C0
E0E0
E0E0
ENDCHAR
STARTCHAR 03BC
ENCODING 956
SWIDTH 617 0
DWIDTH 12 0
BBX 10 15 1 -4
BITMAP
E1C0
E1C0
E1C0
E1C0
E1C0
E1C0
E1C0
E1C0
F3C0
FFC0
EDC0
E000
E000
E000
E000
ENDCHAR
STARTCHAR 03BD
ENCODING 957
SWIDTH 565 0
DWIDTH 11 0
BBX 9 11 1 0
BITMAP
E380
E380
E380
6300
7700
7700
3600
3E00
1E00
1C00
1C00
ENDCHAR
STARTCHAR 03BE
ENCODING 958
SWIDTH 411 0
DWIDTH 8 0
BBX 7 18 1 -4
BITMAP
3C
7C
E0
E0
E0
7C
3C
70
E0
E0
E0
F0
7C
3E
0E
0E
3C
38
ENDCHAR
STARTCHAR 03BF
ENCODING 959
SWIDTH 617 0
DWIDTH 12 0
BBX 10 11 1 0
BITMAP
1E00
7F80
7380
E1C0
E1C0
E1C0
E1C0
E1C0
7380
7F80
1E00
ENDCHAR
STARTCHAR 03C0
ENCODING 960
SWIDTH 771 0
DWIDTH 15 0
BBX 15 11 0 0
BITMAP
FFFE
FFFE
3838
3838
3838
3838
3838
3838
3838
3838
3838
ENDCHAR
STARTCHAR 03C1
ENCODING 961
SWIDTH 617 0
DWIDTH 12 0
BBX 10 15 1 -4
BITMAP
1E00
7F80
7380
E1C0
E1C0
E1C0
E1C0
E1C0
F380
FF80
EE00
E000
E000
E000
E000
ENDCHAR
STARTCHAR 03C2
ENCODING 962
SWIDTH 514 0
DWIDTH 10 0
BBX 8 15 1 -4
BITMAP
1F
7E
70
E0
E0
E0
E0
E0
F0
7C
3F
07
07
3F
3C
ENDCHAR
STARTCHAR 03C3
ENCODING 963
SWIDTH 668 0
DWIDTH 13 0
BBX 11 11 1 0
BITMAP
1FE0
7FE0
7380
E1C0
E1C0
E1C0
E1C0
E1C0
7380
7F00
1E00
ENDCHAR
STARTCHAR 03C4
ENCODING 964
SWIDTH 360 0
DWIDTH 7 0
BBX 7 11 0 0
BITMAP
FE
FE
38
38
38
38
38
38
38
38
38
ENDCHAR
STARTCHAR 03C5
ENCODING 965
SWIDTH 565 0
DWIDTH 11 0
BBX 9 11 1 0
BITMAP
E380
E380
E380
E380
E380
E380
E380
E380
E780
7F00
3E00
ENDCHAR
STARTCHAR 03C6
ENCODING 966
SWIDTH 771 0
DWIDTH 15 0
BBX 13 15 1 -4
BITMAP
1BC0
77F0
7770
E738
E738
E738
E738
E738
7770
3FE0
1FC0
0700
0700
0700
0700
ENDCHAR
STARTCHAR 03C7
ENCODING 967
SWIDTH 565 0
DWIDTH 11 0
BBX 9 15 1 -4
BITMAP
E380
E380
7700
7700
3E00
3E00
1C00
1C00
3E00
3E00
3600
7700
7700
E380
E380
ENDCHAR
STARTCHAR 03C8
ENCODING 968
SWIDTH 771 0
DWIDTH 15 0
BBX 13 15 1 -4
BITMAP
E738
E738
E738
E738
E738
E738
E738
E738
F770
7FF0
1FC0
0700
0700
0700
0700
ENDCHAR
STARTCHAR 03C9
ENCODING 969
SWIDTH 874 0
DWIDTH 17 0
BBX 15 11 1 0
BITMAP
701C
701C
E00E
E38E
E38E
E38E
E38E
E38E
739C
7EFC
3C78
ENDCHAR
STARTCHAR 03CA
ENCODING 970
SWIDTH 257 0
DWIDTH 5 0
BBX 6 14 0 0
BITMAP
CC
CC
00
70
70
70
70
70
70
70
70
70
70
70
ENDCHAR
STARTCHAR 03CB
ENCODING 971
SWIDTH 565 0
DWIDTH 11 0
BBX 9 14 1 0
BITMAP
3300
3300
0000
E380
E380
E380
E380
E380
E380
E380
E380
E780
7F00
3E00
ENDCHAR
STARTCHAR 03CC
ENCODING 972
SWIDTH 617 0
DWIDTH 12 0
BBX 10 15 1 0
BITMAP
0E00
0C00
1800
0000
1E00
7F80
7380
E1C0
E1C0
E1C0
E1C0
E1C0
7380
7F80
1E00
ENDCHAR
STARTCHAR 03CD
ENCODING 973
SWIDTH 565 0
DWIDTH 11 0
BBX 9 15 1 0
BITMAP
0E00
0C00
1800
0000
E380
E380
E380
E380
E380
E380
E380
E380
E780
7F00
3E00
ENDCHAR
STARTCHAR 03CE
ENCODING 974
SWIDTH 874 0
DWIDTH 17 0
BBX 15 15 1 0
BITMAP
01C0
0180
0300
0000
701C
701C
E00E
E38E
E38E
E38E
E38E
E38E
739C
7EFC
3C78
ENDCHAR
STARTCHAR 0401
ENCODING 1025
SWIDTH 668 0
DWIDTH 13 0
BBX 11 17 1 0
BITMAP
1980
1980
0000
FFE0
FFE0
FFE0
E000
E000
FFC0
FFC0
FFC0
E000
E000
E000
FFE0
FFE0
FFE0
ENDCHAR
STARTCHAR 0402
ENCODING 1026
SWIDTH 874 0
DWIDTH 17 0
BBX 16 14 0 0
BITMAP
FFE0
FFE0
FFE0
0E00
0E00
0EF8
0FFE
0FFF
0F0F
0E07
0E0F
0E7F
0E7E
0E78
ENDCHAR
STARTCHAR 0403
ENCODING 1027
SWIDTH 565 0
DWIDTH 11 0
BBX 9 18 1 0
BITMAP
0E00
0C00
1800
0000
FF80
FF80
FF80
E000
E000
E000
E000
E000
E000
E000
E000
E000
E000
E000
ENDCHAR
STARTCHAR 0404
ENCODING 1028
SWIDTH 720 0
DWIDTH 14 0
BBX 12 14 1 0
BITMAP
0F80
3FE0
7FE0
70F0
E060
FE00
FE00
FE00
E000
E060
70F0
7FE0
3FE0
0F80
ENDCHAR
STARTCHAR 0405
ENCODING 1029
SWIDTH 668 0
DWIDTH 13 0
BBX 11 14 1 0
BITMAP
3F00
7FC0
FFC0
E1E0
E0E0
F800
7F00
3FC0
03E0
E0E0
F0E0
7FE0
7FC0
1F80
ENDCHAR
STARTCHAR 0406
ENCODING 1030
SWIDTH 257 0
DWIDTH 5 0
BBX 3 14 1 0
BITMAP
E0
E0
E0
E0
E0
E0
E0
E0
E0
E0
E0
E0
E0
E0
ENDCHAR
STARTCHAR 0407
ENCODING 1031
SWIDTH 257 0
DWIDTH 5 0
BBX 6 17 0 0
BITMAP
CC
CC
00
70
70
70
70
70
70
70
70
70
70
70
70
70
70
ENDCHAR
STARTCHAR 0408
ENCODING 1032
SWIDTH 565 0
DWIDTH 11 0
BBX 10 14 0 0
BITMAP
01C0
01C0
01C0
01C0
01C0
01C0
01C0
01C0
01C0
E1C0
E1C0
FFC0
7F80
3F00
ENDCHAR
STARTCHAR 0409
ENCODING 1033
SWIDTH 1080 0
DWIDTH 21 0
BBX 20 14 0 0
BITMAP
3FE000
3FE000
3FE000
38E000
38E000
38E000
38FFC0
38FFE0
38FFF0
38E070
38E070
F8FFF0
F8FFE0
F0FFC0
ENDCHAR
STARTCHAR 040A
ENCODING 1034
SWIDTH 1028 0
DWIDTH 20 0
BBX 18 14 1 0
BITMAP
E38000
E38000
E38000
E38000
E38000
FFFF00
FFFF80
FFFFC0
E381C0
E381C0
E381C0
E3FFC0
E3FF80
E3FF00
ENDCHAR
STARTCHAR 040B
ENCODING 1035
SWIDTH 874 0
DWIDTH 17 0
BBX 16 14 0 0
BITMAP
FFE0
FFE0
FFE0
0E00
0E00
0EF8
0FFE
0FFE
0F0F
0E07
0E07
0E07
0E07
0E07
ENDCHAR
STARTCHAR 040C
ENCODING 1036
SWIDTH 617 0
DWIDTH 12 0
BBX 11 18 1 0
BITMAP
0700
0600
0C00
0000
E0E0
E1E0
E380
E700
E700
EE00
FE00
FE00
E700
E780
E380
E1C0
E1C0
E0E0
ENDCHAR
STARTCHAR 040E
ENCODING 1038
SWIDTH 617 0
DWIDTH 12 0
BBX 12 17 0 0
BITMAP
1080
0F00
0000
E070
E070
70E0
38E0
39C0
1DC0
1F80
0F80
0700
0700
0E00
3E00
3C00
3800
ENDCHAR
STARTCHAR 040F
ENCODING 1039
SWIDTH 668 0
DWIDTH 13 0
BBX 11 18 1 -4
BITMAP
E0E0
E0E0
E0E0
E0E0
E0E0
E0E0
E0E0
E0E0
E0E0
E0E0
E0E0
FFE0
FFE0
FFE0
0E00
0E00
0E00
0E00
ENDCHAR
STARTCHAR 0410
ENCODING 1040
SWIDTH 668 0
DWIDTH 13 0
BBX 13 14 0 0
BITMAP
0F80
0F80
0F80
1DC0
1DC0
1DC0
38E0
38E0
3FE0
7FF0
7FF0
7070
F078
E038
ENDCHAR
STARTCHAR 0411
ENCODING 1041
SWIDTH 720 0
DWIDTH 14 0
BBX 12 14 1 0
BITMAP
FFE0
FFE0
FFE0
E000
E000
E000
FFC0
FFE0
FFF0
E070
E070
FFF0
FFE0
FFC0
ENDCHAR
STARTCHAR 0412
ENCODING 1042
SWIDTH 720 0
DWIDTH 14 0
BBX 12 14 1 0
BITMAP
FF80
FFC0
FFE0
E0E0
E0E0
FFC0
FFC0
FFE0
E070
E070
E070
FFF0
FFE0
FFC0
ENDCHAR
STARTCHAR 0413
ENCODING 1043
SWIDTH 565 0
DWIDTH 11 0
BBX 9 14 1 0
BITMAP
FF80
FF80
FF80
E000
E000
E000
E000
E000
E000
E000
E000
E000
E000
E000
ENDCHAR
STARTCHAR 0414
ENCODING 1044
SWIDTH 720 0
DWIDTH 14 0
BBX 14 17 0 -3
BITMAP
3FF8
3FF8
3FF8
3838
3838
3838
3838
3838
3838
7038
7038
FFFC
FFFC
FFFC
E01C
E01C
E01C
ENDCHAR
STARTCHAR 0415
ENCODING 1045
SWIDTH 668 0
DWIDTH 13 0
BBX 11 14 1 0
BITMAP
FFE0
FFE0
FFE0
E000
E000
FFC0
FFC0
FFC0
E000
E000
E000
FFE0
FFE0
FFE0
ENDCHAR
STARTCHAR 0416
ENCODING 1046
SWIDTH 874 0
DWIDTH 17 0
BBX 17 14 0 0
BITMAP
E1C380
F1C780
39CE00
19CC00
19CC00
1DDC00
0FF800
0FF800
1DDC00
39CE00
39CE00
71C700
71C700
E1C380
ENDCHAR
STARTCHAR 0417
ENCODING 1047
SWIDTH 617 0
DWIDTH 12 0
BBX 11 14 0 0
BITMAP
1F80
7FC0
7FE0
F0E0
60E0
01C0
0780
07C0
01E0
60E0
F0E0
7FE0
7FC0
1F80
ENDCHAR
STARTCHAR 0418
ENCODING 1048
SWIDTH 668 0
DWIDTH 13 0
BBX 11 14 1 0
BITMAP
E0E0
E1E0
E1E0
E3E0
E7E0
E7E0
EEE0
EEE0
FCE0
FCE0
F8E0
F0E0
F0E0
E0E0
ENDCHAR
STARTCHAR 0419
ENCODING 1049
SWIDTH 668 0
DWIDTH 13 0
BBX 11 17 1 0
BITMAP
1080
0F00
0000
E0E0
E1E0
E1E0
E3E0
E7E0
E7E0
EEE0
EEE0
FCE0
FCE0
F8E0
F0E0
F0E0
E0E0
ENDCHAR
STARTCHAR 041A
ENCODING 1050
SWIDTH 617 0
DWIDTH 12 0
BBX 11 14 1 0
BITMAP
E0E0
E1E0
E380
E700
E700
EE00
FE00
FE00
E700
E780
E380
E1C0
E1C0
E0E0
ENDCHAR
STARTCHAR 041B
ENCODING 1051
SWIDTH 668 0
DWIDTH 13 0
BBX 12 14 0 0
BITMAP
3FF0
3FF0
3FF0
3870
3870
3870
3870
3870
3870
3870
3870
F870
F870
F070
ENDCHAR
STARTCHAR 041C
ENCODING 1052
SWIDTH 874 0
DWIDTH 17 0
BBX 15 14 1 0
BITMAP
F83E
F83E
FC7E
EC6E
EC6E
EC6E
EEEE
E6CE
E6CE
E6CE
E7CE
E38E
E38E
E38E
ENDCHAR
STARTCHAR 041D
ENCODING 1053
SWIDTH 668 0
DWIDTH 13 0
BBX 11 14 1 0
BITMAP
E0E0
E0E0
E0E0
E0E0
FFE0
FFE0
FFE0
E0E0
E0E0
E0E0
E0E0
E0E0
E0E0
E0E0
ENDCHAR
STARTCHAR 041E
ENCODING 1054
SWIDTH 771 0
DWIDTH 15 0
BBX 13 14 1 0
BITMAP
0F80
3FE0
7FF0
78F0
F078
E038
E038
E038
E038
F078
78F0
7FF0
3FE0
0F80
ENDCHAR
STARTCHAR 041F
ENCODING 1055
SWIDTH 720 0
DWIDTH 14 0
BBX 12 14 1 0
BITMAP
FFF0
FFF0
FFF0
E070
E070
E070
E070
E070
E070
E070
E070
E070
E070
E070
ENDCHAR
STARTCHAR 0420
ENCODING 1056
SWIDTH 668 0
DWIDTH 13 0
BBX 11 14 1 0
BITMAP
FF80
FFC0
FFE0
E0E0
E0E0
E1E0
FFE0
FFC0
FF80
E000
E000
E000
E000
E000
ENDCHAR
STARTCHAR 0421
ENCODING 1057
SWIDTH 720 0
DWIDTH 14 0
BBX 12 14 1 0
BITMAP
0F80
3FE0
7FE0
70F0
E060
E000
E000
E000
E000
E060
70F0
7FE0
3FE0
0F80
ENDCHAR
STARTCHAR 0422
ENCODING 1058
SWIDTH 668 0
DWIDTH 13 0
BBX 11 14 1 0
BITMAP
FFE0
FFE0
FFE0
0E00
0E00
0E00
0E00
0E00
0E00
0E00
0E00
0E00
0E00
0E00
ENDCHAR
STARTCHAR 0423
ENCODING 1059
SWIDTH 617 0
DWIDTH 12 0
BBX 12 14 0 0
BITMAP
E070
E070
70E0
38E0
39C0
1DC0
1F80
0F80
0700
0700
0E00
3E00
3C00
3800
ENDCHAR
STARTCHAR 0424
ENCODING 1060
SWIDTH 874 0
DWIDTH 17 0
BBX 15 14 1 0
BITMAP
0380
0380
1FF0
7FFC
7FFC
F39E
E38E
E38E
F39E
7FFC
7FFC
1FF0
0380
0380
ENDCHAR
STARTCHAR 0425
ENCODING 1061
SWIDTH 668 0
DWIDTH 13 0
BBX 11 14 1 0
BITMAP
E0E0
F1E0
71C0
3B80
3B80
1F00
0E00
0E00
1F00
3B80
3B80
71C0
F1E0
E0E0
ENDCHAR
STARTCHAR 0426
ENCODING 1062
SWIDTH 720 0
DWIDTH 14 0
BBX 13 17 1 -3
BITMAP
E070
E070
E070
E070
E070
E070
E070
E070
E070
E070
E070
FFF8
FFF8
FFF8
0038
0038
0038
ENDCHAR
STARTCHAR 0427
ENCODING 1063
SWIDTH 668 0
DWIDTH 13 0
BBX 11 14 1 0
BITMAP
E0E0
E0E0
E0E0
E0E0
E0E0
F1E0
FFE0
7FE0
3EE0
00E0
00E0
00E0
00E0
00E0
ENDCHAR
STARTCHAR 0428
ENCODING 1064
SWIDTH 977 0
DWIDTH 19 0
BBX 17 14 1 0
BITMAP
E1C380
E1C380
E1C380
E1C380
E1C380
E1C380
E1C380
E1C380
E1C380
E1C380
E1C380
FFFF80
FFFF80
FFFF80
ENDCHAR
STARTCHAR 0429
ENCODING 1065
SWIDTH 977 0
DWIDTH 19 0
BBX 18 17 1 -3
BITMAP
E1C380
E1C380
E1C380
E1C380
E1C380
E1C380
E1C380
E1C380
E1C380
E1C380
E1C380
FFFFC0
FFFFC0
FFFFC0
0001C0
0001C0
0001C0
ENDCHAR
STARTCHAR 042A
ENCODING 1066
SWIDTH 874 0
DWIDTH 17 0
BBX 16 14 0 0
BITMAP
FE00
FE00
FE00
0E00
0E00
0E00
0FFC
0FFE
0FFF
0E07
0E07
0FFF
0FFE
0FFC
ENDCHAR
STARTCHAR 042B
ENCODING 1067
SWIDTH 977 0
DWIDTH 19 0
BBX 17 14 1 0
BITMAP
E00380
E00380
E00380
E00380
E00380
E00380
FFC380
FFE380
FFF380
E07380
E07380
FFF380
FFE380
FFC380
ENDCHAR
STARTCHAR 042C
ENCODING 1068
SWIDTH 720 0
DWIDTH 14 0
BBX 12 14 1 0
BITMAP
E000
E000
E000
E000
E000
E000
FFC0
FFE0
FFF0
E070
E070
FFF0
FFE0
FFC0
ENDCHAR
STARTCHAR 042D
ENCODING 1069
SWIDTH 720 0
DWIDTH 14 0
BBX 12 14 1 0
BITMAP
1F00
7FC0
7FE0
F0E0
6070
07F0
07F0
07F0
0070
6070
F0E0
7FE0
7FC0
1F00
ENDCHAR
STARTCHAR 042E
ENCODING 1070
SWIDTH 1028 0
DWIDTH 20 0
BBX 18 14 1 0
BITMAP
E07C00
E1FF00
E3FF80
E3C780
E783C0
FF01C0
FF01C0
FF01C0
E701C0
E783C0
E3C380
E3FF80
E1FF00
E07C00
ENDCHAR
STARTCHAR 042F
ENCODING 1071
SWIDTH 668 0
DWIDTH 13 0
BBX 12 14 0 0
BITMAP
1FF0
3FF0
7FF0
7070
7070
7070
3FF0
3FF0
07F0
1E70
3C70
3870
7870
F070
ENDCHAR
STARTCHAR 0430
ENCODING 1072
SWIDTH 565 0
DWIDTH 11 0
BBX 10 11 1 0
BITMAP
3E00
7F00
C380
0780
3F80
7B80
E380
E380
E780
7F80
3DC0
ENDCHAR
STARTCHAR 0431
ENCODING 1073
SWIDTH 617 0
DWIDTH 12 0
BBX 10 14 1 0
BITMAP
1FC0
7F80
6000
DE00
FF80
F380
E1C0
E1C0
E1C0
E1C0
E1C0
7380
7F80
1E00
ENDCHAR
STARTCHAR 0432
ENCODING 1074
SWIDTH 617 0
DWIDTH 12 0
BBX 10 11 1 0
BITMAP
FF80
FFC0
E1C0
E1C0
FF80
FF80
E1C0
E1C0
E1C0
FFC0
FF80
ENDCHAR
STARTCHAR 0433
ENCODING 1075
SWIDTH 411 0
DWIDTH 8 0
BBX 7 11 1 0
BITMAP
FE
FE
E0
E0
E0
E0
E0
E0
E0
E0
E0
ENDCHAR
STARTCHAR 0434
ENCODING 1076
SWIDTH 617 0
DWIDTH 12 0
BBX 12 14 0 -3
BITMAP
1FE0
1FE0
1CE0
1CE0
1CE0
1CE0
38E0
38E0
70E0
FFF0
FFF0
C030
C030
C030
ENDCHAR
STARTCHAR 0435
ENCODING 1077
SWIDTH 565 0
DWIDTH 11 0
BBX 9 11 1 0
BITMAP
1E00
7F00
7380
E380
FF80
FF80
E000
E000
7380
7F00
1E00
ENDCHAR
STARTCHAR 0436
ENCODING 1078
SWIDTH 668 0
DWIDTH 13 0
BBX 13 11 0 0
BITMAP
E738
E738
3760
3760
1FC0
1FC0
3760
7770
7770
6730
E738
ENDCHAR
STARTCHAR 0437
ENCODING 1079
SWIDTH 462 0
DWIDTH 9 0
BBX 8 11 0 0
BITMAP
3E
FF
43
03
0E
0E
07
07
47
FE
3C
ENDCHAR
STARTCHAR 0438
ENCODING 1080
SWIDTH 617 0
DWIDTH 12 0
BBX 10 11 1 0
BITMAP
E1C0
E3C0
E3C0
E7C0
E7C0
EDC0
F9C0
F9C0
F1C0
F1C0
E1C0
ENDCHAR
STARTCHAR 0439
ENCODING 1081
SWIDTH 617 0
DWIDTH 12 0
BBX 10 14 1 0
BITMAP
2100
1E00
0000
E1C0
E3C0
E3C0
E7C0
E7C0
EDC0
F9C0
F9C0
F1C0
F1C0
E1C0
ENDCHAR
STARTCHAR 043A
ENCODING 1082
SWIDTH 514 0
DWIDTH 10 0
BBX 9 11 1 0
BITMAP
E380
E780
E600
EE00
FC00
FC00
EE00
E600
E700
E700
E380
ENDCHAR
STARTCHAR 043B
ENCODING 1083
SWIDTH 617 0
DWIDTH 12 0
BBX 11 11 0 0
BITMAP
3FE0
3FE0
38E0
38E0
38E0
38E0
38E0
38E0
38E0
F8E0
F0E0
ENDCHAR
STARTCHAR 043C
ENCODING 1084
SWIDTH 668 0
DWIDTH 13 0
BBX 11 11 1 0
BITMAP
E0E0
E0E0
F1E0
F1E0
F1E0
DB60
DB60
DB60
CE60
CE60
CE60
ENDCHAR
STARTCHAR 043D
ENCODING 1085
SWIDTH 565 0
DWIDTH 11 0
BBX 9 11 1 0
BITMAP
E380
E380
E380
E380
FF80
FF80
E380
E380
E380
E380
E380
ENDCHAR
STARTCHAR 043E
ENCODING 1086
SWIDTH 617 0
DWIDTH 12 0
BBX 10 11 1 0
BITMAP
1E00
7F80
7380
E1C0
E1C0
E1C0
E1C0
E1C0
7380
7F80
1E00
ENDCHAR
STARTCHAR 043F
ENCODING 1087
SWIDTH 565 0
DWIDTH 11 0
BBX 9 11 1 0
BITMAP
FF80
FF80
E380
E380
E380
E380
E380
E380
E380
E380
E380
ENDCHAR
STARTCHAR 0440
ENCODING 1088
SWIDTH 617 0
DWIDTH 12 0
BBX 10 15 1 -4
BITMAP
EF00
FF80
F380
E1C0
E1C0
E1C0
E1C0
E1C0
F380
FF80
EF00
E000
E000
E000
E000
ENDCHAR
STARTCHAR 0441
ENCODING 1089
SWIDTH 565 0
DWIDTH 11 0
BBX 9 11 1 0
BITMAP
1E00
7F00
7380
E100
E000
E000
E000
E100
7380
7F00
1E00
ENDCHAR
STARTCHAR 0442
ENCODING 1090
SWIDTH 462 0
DWIDTH 9 0
BBX 9 11 0 0
BITMAP
FF80
FF80
1C00
1C00
1C00
1C00
1C00
1C00
1C00
1C00
1C00
ENDCHAR
STARTCHAR 0443
ENCODING 1091
SWIDTH 565 0
DWIDTH 11 0
BBX 11 15 0 -4
BITMAP
E0E0
E0E0
71C0
71C0
71C0
3B80
3B80
1B00
1F00
1F00
0E00
0E00
1C00
7C00
7800
ENDCHAR
STARTCHAR 0444
ENCODING 1092
SWIDTH 874 0
DWIDTH 17 0
BBX 15 18 1 -4
BITMAP
0380
0380
0380
3BB8
7FFC
77DC
E38E
E38E
E38E
E38E
E38E
77DC
7FFC
3BB8
0380
0380
0380
0380
ENDCHAR
STARTCHAR 0445
ENCODING 1093
SWIDTH 565 0
DWIDTH 11 0
BBX 9 11 1 0
BITMAP
E380
E780
7700
3E00
3E00
1C00
3E00
3E00
7700
E380
E380
ENDCHAR
STARTCHAR 0446
ENCODING 1094
SWIDTH 617 0
DWIDTH 12 0
BBX 10 14 1 -3
BITMAP
E380
E380
E380
E380
E380
E380
E380
E380
E380
FFC0
FFC0
00C0
00C0
00C0
ENDCHAR
STARTCHAR 0447
ENCODING 1095
SWIDTH 565 0
DWIDTH 11 0
BBX 9 11 1 0
BITMAP
E380
E380
E380
E380
E380
7F80
3F80
0380
0380
0380
0380
ENDCHAR
STARTCHAR 0448
ENCODING 1096
SWIDTH 771 0
DWIDTH 15 0
BBX 13 11 1 0
BITMAP
E738
E738
E738
E738
E738
E738
E738
E738
E738
FFF8
FFF8
ENDCHAR
STARTCHAR 0449
ENCODING 1097
SWIDTH 822 0
DWIDTH 16 0
BBX 14 14 1 -3
BITMAP
E738
E738
E738
E738
E738
E738
E738
E738
E738
FFFC
FFFC
000C
000C
000C
ENDCHAR
STARTCHAR 044A
ENCODING 1098
SWIDTH 720 0
DWIDTH 14 0
BBX 12 11 1 0
BITMAP
FC00
FC00
1C00
1C00
1C00
1FE0
1FF0
1C70
1C70
1FF0
1FE0
ENDCHAR
STARTCHAR 044B
ENCODING 1099
SWIDTH 822 0
DWIDTH 16 0
BBX 14 11 1 0
BITMAP
E01C
E01C
E01C
E01C
FF9C
FFDC
E1DC
E1DC
E1DC
FFDC
FF9C
ENDCHAR
STARTCHAR 044C
ENCODING 1100
SWIDTH 617 0
DWIDTH 12 0
BBX 10 11 1 0
BITMAP
E000
E000
E000
E000
FF80
FFC0
E1C0
E1C0
E1C0
FFC0
FF80
ENDCHAR
STARTCHAR 044D
ENCODING 1101
SWIDTH 565 0
DWIDTH 11 0
BBX 9 11 1 0
BITMAP
3E00
FF00
6700
0380
1F80
1F80
0380
0380
6700
FF00
3E00
ENDCHAR
STARTCHAR 044E
ENCODING 1102
SWIDTH 822 0
DWIDTH 16 0
BBX 14 11 1 0
BITMAP
E1F0
E3F8
E3B8
E71C
FF1C
FF1C
E71C
E71C
E3B8
E3F8
E1F0
ENDCHAR
STARTCHAR 044F
ENCODING 1103
SWIDTH 565 0
DWIDTH 11 0
BBX 10 11 0 0
BITMAP
3FC0
7FC0
71C0
71C0
71C0
7FC0
3FC0
39C0
39C0
71C0
E1C0
ENDCHAR
STARTCHAR 0451
ENCODING 1105
SWIDTH 565 0
DWIDTH 11 0
BBX 9 14 1 0
BITMAP
3300
3300
0000
1E00
7F00
7380
E380
FF80
FF80
E000
E000
7380
7F00
1E00
ENDCHAR
STARTCHAR 0452
ENCODING 1106
SWIDTH 617 0
DWIDTH 12 0
BBX 11 18 0 -4
BITMAP
7000
FE00
7000
7780
7FC0
79E0
70E0
70E0
70E0
70E0
70E0
70E0
70E0
70E0
00E0
00E0
03E0
03C0
ENDCHAR
STARTCHAR 0453
ENCODING 1107
SWIDTH 411 0
DWIDTH 8 0
BBX 7 15 1 0
BITMAP
1C
18
30
00
FE
FE
E0
E0
E0
E0
E0
E0
E0
E0
E0
ENDCHAR
STARTCHAR 0454
ENCODING 1108
SWIDTH 565 0
DWIDTH 11 0
BBX 9 11 1 0
BITMAP
3E00
7F80
7300
E000
FC00
FC00
E000
E000
7300
7F80
3E00
ENDCHAR
STARTCHAR 0455
ENCODING 1109
SWIDTH 565 0
DWIDTH 11 0
BBX 9 11 1 0
BITMAP
3E00
7F00
E380
E000
FC00
7F00
1F80
0380
E380
7F00
3E00
ENDCHAR
STARTCHAR 0456
ENCODING 1110
SWIDTH 257 0
DWIDTH 5 0
BBX 3 14 1 0
BITMAP
E0
E0
00
E0
E0
E0
E0
E0
E0
E0
E0
E0
E0
E0
ENDCHAR
STARTCHAR 0457
ENCODING 1111
SWIDTH 257 0
DWIDTH 5 0
BBX 6 14 0 0
BITMAP
CC
CC
00
70
70
70
70
70
70
70
70
70
70
70
ENDCHAR
STARTCHAR 0458
ENCODING 1112
SWIDTH 257 0
DWIDTH 5 0
BBX 5 18 -1 -4
BITMAP
38
38
00
38
38
38
38
38
38
38
38
38
38
38
38
38
F8
F0
ENDCHAR
STARTCHAR 0459
ENCODING 1113
SWIDTH 925 0
DWIDTH 18 0
BBX 17 11 0 0
BITMAP
3FC000
3FC000
39C000
39C000
39FF00
39FF80
39C380
39C380
39C380
F9FF80
F1FF00
ENDCHAR
STARTCHAR 045A
ENCODING 1114
SWIDTH 874 0
DWIDTH 17 0
BBX 15 11 1 0
BITMAP
E700
E700
E700
E700
FFFC
FFFE
E70E
E70E
E70E
E7FE
E7FC
ENDCHAR
STARTCHAR 045B
ENCODING 1115
SWIDTH 617 0
DWIDTH 12 0
BBX 11 14 0 0
BITMAP
7000
FE00
7000
7780
7FC0
78E0
70E0
70E0
70E0
70E0
70E0
70E0
70E0
70E0
ENDCHAR
STARTCHAR 045C
ENCODING 1116
SWIDTH 514 0
DWIDTH 10 0
BBX 9 15 1 0
BITMAP
0E00
0C00
1800
0000
E380
E780
E600
EE00
FC00
FC00
EE00
E600
E700
E700
E380
ENDCHAR
STARTCHAR 045E
ENCODING 1118
SWIDTH 565 0
DWIDTH 11 0
BBX 11 18 0 -4
BITMAP
1080
0F00
0000
E0E0
E0E0
71C0
71C0
71C0
3B80
3B80
1B00
1F00
1F00
0E00
0E00
1C00
7C00
7800
ENDCHAR
STARTCHAR 045F
ENCODING 1119
SWIDTH 617 0
DWIDTH 12 0
BBX 10 14 1 -3
BITMAP
E1C0
E1C0
E1C0
E1C0
E1C0
E1C0
E1C0
E1C0
E1C0
FFC0
FFC0
0C00
0C00
0C00
ENDCHAR
STARTCHAR 0490
ENCODING 1168
SWIDTH 462 0
DWIDTH 9 0
BBX 7 17 1 0
BITMAP
0E
0E
0E
FE
FE
FE
E0
E0
E0
E0
E0
E0
E0
E0
E0
E0
E0
ENDCHAR
STARTCHAR 0491
ENCODING 1169
SWIDTH 411 0
DWIDTH 8 0
BBX 6 14 1 0
BITMAP
0C
0C
0C
FC
FC
E0
E0
E0
E0
E0
E0
E0
E0
E0
ENDCHAR
STARTCHAR 0492
ENCODING 1170
SWIDTH 565 0
DWIDTH 11 0
BBX 12 14 -1 0
BITMAP
3FF0
3FF0
3800
3800
3800
3800
FF00
FF00
3800
3800
3800
3800
3800
3800
ENDCHAR
STARTCHAR 0493
ENCODING 1171
SWIDTH 411 0
DWIDTH 8 0
BBX 8 11 0 0
BITMAP
7F
7F
70
70
FC
FC
70
70
70
70
70
ENDCHAR
STARTCHAR 0496
ENCODING 1174
SWIDTH 874 0
DWIDTH 17 0
BBX 17 17 0 -3
BITMAP
E1C380
F1C780
F9CF80
39CE00
1DDC00
1FFC00
0FF800
1FFC00
3DCE00
39CE00
71C700
71C780
71C380
E1C380
000380
000380
000380
ENDCHAR
STARTCHAR 0497
ENCODING 1175
SWIDTH 668 0
DWIDTH 13 0
BBX 13 14 0 -3
BITMAP
E738
E738
7770
7770
3FE0
3FE0
3FE0
7760
7770
7778
E778
0038
0038
0038
ENDCHAR
STARTCHAR 049A
ENCODING 1178
SWIDTH 617 0
DWIDTH 12 0
BBX 11 17 1 -3
BITMAP
E1E0
E3E0
E3E0
E780
E700
FF00
FE00
FF00
E780
E380
E1C0
E1E0
E0E0
E0E0
00E0
00E0
00E0
ENDCHAR
STARTCHAR 049B
ENCODING 1179
SWIDTH 514 0
DWIDTH 10 0
BBX 9 14 1 -3
BITMAP
E380
E780
E700
EE00
FE00
FC00
EE00
EE00
E700
E780
E380
0380
0380
0380
ENDCHAR
STARTCHAR 049C
ENCODING 1180
SWIDTH 617 0
DWIDTH 12 0
BBX 11 14 1 0
BITMAP
E1E0
E3E0
EBE0
EF80
EF00
FE00
FC00
FF00
EF00
EF80
EB80
E9C0
E1C0
E0E0
ENDCHAR
STARTCHAR 049D
ENCODING 1181
SWIDTH 514 0
DWIDTH 10 0
BBX 9 11 1 0
BITMAP
E380
EF80
EF00
EF00
FE00
FC00
EE00
EE00
EF00
EF00
E380
ENDCHAR
STARTCHAR 04A2
ENCODING 1186
SWIDTH 720 0
DWIDTH 14 0
BBX 13 17 1 -3
BITMAP
E070
E070
E070
E070
E070
FFF0
FFF0
FFF0
E070
E070
E070
E078
E078
E078
0038
0038
0038
ENDCHAR
STARTCHAR 04A3
ENCODING 1187
SWIDTH 565 0
DWIDTH 11 0
BBX 10 14 1 -3
BITMAP
E380
E380
E380
E380
FF80
FF80
E380
E380
E380
E3C0
E3C0
01C0
01C0
01C0
ENDCHAR
STARTCHAR 04AE
ENCODING 1198
SWIDTH 565 0
DWIDTH 11 0
BBX 11 14 0 0
BITMAP
E0E0
71C0
71C0
3B80
3B80
1F00
1F00
0E00
0E00
0E00
0E00
0E00
0E00
0E00
ENDCHAR
STARTCHAR 04AF
ENCODING 1199
SWIDTH 565 0
DWIDTH 11 0
BBX 11 15 0 -4
BITMAP
E0E0
71C0
71C0
71C0
3B80
3B80
3B80
1F00
1F00
1F00
0E00
0E00
0E00
0E00
0E00
ENDCHAR
STARTCHAR 04B0
ENCODING 1200
SWIDTH 565 0
DWIDTH 11 0
BBX 11 14 0 0
BITMAP
E0E0
71C0
71C0
3B80
3B80
1F00
FFE0
FFE0
FFE0
0E00
0E00
0E00
0E00
0E00
ENDCHAR
STARTCHAR 04B1
ENCODING 1201
SWIDTH 565 0
DWIDTH 11 0
BBX 11 15 0 -4
BITMAP
E0E0
71C0
71C0
71C0
3B80
3B80
3B80
1F00
1F00
1F00
0E00
7FC0
7FC0
0E00
0E00
ENDCHAR
STARTCHAR 04B2
ENCODING 1202
SWIDTH 668 0
DWIDTH 13 0
BBX 12 17 0 -3
BITMAP
F070
70E0
39C0
3DC0
1F80
0F00
0700
0F80
0F80
1DC0
39E0
38F0
7070
E030
0070
0070
0070
ENDCHAR
STARTCHAR 04B3
ENCODING 1203
SWIDTH 565 0
DWIDTH 11 0
BBX 10 14 0 -3
BITMAP
E1C0
7380
3F00
3F00
1E00
1E00
1E00
3F00
3B80
73C0
E1C0
01C0
01C0
01C0
ENDCHAR
STARTCHAR 04B8
ENCODING 1208
SWIDTH 668 0
DWIDTH 13 0
BBX 11 14 1 0
BITMAP
E0E0
E0E0
E0E0
E6E0
E6E0
F6E0
FFE0
7FE0
3FE0
06E0
06E0
06E0
00E0
00E0
ENDCHAR
STARTCHAR 04B9
ENCODING 1209
SWIDTH 565 0
DWIDTH 11 0
BBX 9 11 1 0
BITMAP
E380
E380
EB80
EB80
EB80
7F80
3F80
0B80
0B80
0380
0380
ENDCHAR
STARTCHAR 04BA
ENCODING 1210
SWIDTH 668 0
DWIDTH 13 0
BBX 11 14 1 0
BITMAP
E000
E000
E000
E000
E000
EF80
FFC0
FFE0
E1E0
E0E0
E0E0
E0E0
E0E0
E0E0
ENDCHAR
STARTCHAR 04BB
ENCODING 1211
SWIDTH 617 0
DWIDTH 12 0
BBX 10 14 1 0
BITMAP
E000
E000
E000
EF00
FF80
F1C0
E1C0
E1C0
E1C0
E1C0
E1C0
E1C0
E1C0
E1C0
ENDCHAR
STARTCHAR 04D8
ENCODING 1240
SWIDTH 720 0
DWIDTH 14 0
BBX 12 14 1 0
BITMAP
1F00
3FC0
7FE0
F0E0
6070
0070
FFF0
FFF0
FFF0
E070
70E0
7FE0
3FC0
1F00
ENDCHAR
STARTCHAR 04D9
ENCODING 1241
SWIDTH 565 0
DWIDTH 11 0
BBX 9 11 1 0
BITMAP
3E00
7F00
E700
E380
0380
FF80
FF80
E380
6700
7F00
3E00
ENDCHAR
STARTCHAR 04E8
ENCODING 1256
SWIDTH 771 0
DWIDTH 15 0
BBX 13 14 1 0
BITMAP
0F80
3FE0
7FF0
7070
E038
FFF8
FFF8
FFF8
E038
F078
78F0
7FF0
3FE0
0F80
ENDCHAR
STARTCHAR 04E9
ENCODING 1257
SWIDTH 617 0
DWIDTH 12 0
BBX 10 11 1 0
BITMAP
1E00
7F80
7380
E1C0
FFC0
FFC0
E1C0
E1C0
7380
7F80
1E00
ENDCHAR
STARTCHAR 05B0
ENCODING 1456
SWIDTH 308 0
DWIDTH 6 0
BBX 1 3 2 -4
BITMAP
80
00
80
ENDCHAR
STARTCHAR 05B1
ENCODING 1457
SWIDTH 308 0
DWIDTH 6 0
BBX 5 3 0 -4
BITMAP
A8
00
48
ENDCHAR
STARTCHAR 05B2
ENCODING 1458
SWIDTH 308 0
DWIDTH 6 0
BBX 5 3 0 -4
BITMAP
E8
00
08
ENDCHAR
STARTCHAR 05B3
ENCODING 1459
SWIDTH 308 0
DWIDTH 6 0
BBX 5 3 0 -4
BITMAP
E8
40
08
ENDCHAR
STARTCHAR 05B4
ENCODING 1460
SWIDTH 308 0
DWIDTH 6 0
BBX 1 1 2 -3
BITMAP
80
ENDCHAR
STARTCHAR 05B5
ENCODING 1461
SWIDTH 308 0
DWIDTH 6 0
BBX 3 1 1 -3
BITMAP
A0
ENDCHAR
STARTCHAR 05B6
ENCODING 1462
SWIDTH 308 0
DWIDTH 6 0
BBX 3 3 1 -4
BITMAP
A0
00
40
ENDCHAR
STARTCHAR 05B7
ENCODING 1463
SWIDTH 308 0
DWIDTH 6 0
BBX 4 1 1 -3
BITMAP
F0
ENDCHAR
STARTCHAR 05B8
ENCODING 1464
SWIDTH 308 0
DWIDTH 6 0
BBX 3 3 2 -4
BITMAP
E0
40
40
ENDCHAR
STARTCHAR 05B9
ENCODING 1465
SWIDTH 308 0
DWIDTH 6 0
BBX 1 1 2 12
BITMAP
80
ENDCHAR
STARTCHAR 05BA
ENCODING 1466
SWIDTH 308 0
DWIDTH 6 0
BBX 1 1 2 12
BITMAP
80
ENDCHAR
STARTCHAR 05BB
ENCODING 1467
SWIDTH 308 0
DWIDTH 6 0
BBX 5 3 0 -4
BITMAP
80
20
08
ENDCHAR
STARTCHAR 05BC
ENCODING 1468
SWIDTH 308 0
DWIDTH 6 0
BBX 1 1 2 5
BITMAP
80
ENDCHAR
STARTCHAR 05BD
ENCODING 1469
SWIDTH 308 0
DWIDTH 6 0
BBX 1 3 3 -4
BITMAP
80
80
80
ENDCHAR
STARTCHAR 05BE
ENCODING 1470
SWIDTH 411 0
DWIDTH 8 0
BBX 6 2 1 9
BITMAP
FC
FC
ENDCHAR
STARTCHAR 05BF
ENCODING 1471
SWIDTH 308 0
DWIDTH 6 0
BBX 4 1 1 12
BITMAP
F0
ENDCHAR
STARTCHAR 05C0
ENCODING 1472
SWIDTH 308 0
DWIDTH 6 0
BBX 2 14 2 -2
BITMAP
C0
C0
C0
C0
C0
C0
C0
C0
C0
C0
C0
C0
C0
C0
ENDCHAR
STARTCHAR 05C1
ENCODING 1473
SWIDTH 308 0
DWIDTH 6 0
BBX 1 1 7 12
BITMAP
80
ENDCHAR
STARTCHAR 05C2
ENCODING 1474
SWIDTH 308 0
DWIDTH 6 0
BBX 1 1 -2 12
BITMAP
80
ENDCHAR
STARTCHAR 05C3
ENCODING 1475
SWIDTH 360 0
DWIDTH 7 0
BBX 3 11 2 0
BITMAP
E0
E0
E0
00
00
00
00
00
E0
E0
E0
ENDCHAR
STARTCHAR 05D0
ENCODING 1488
SWIDTH 565 0
DWIDTH 11 0
BBX 10 11 1 0
BITMAP
E380
7380
3B80
3B80
7F00
7F00
EE00
E700
E780
E380
E1C0
ENDCHAR
STARTCHAR 05D1
ENCODING 1489
SWIDTH 565 0
DWIDTH 11 0
BBX 10 11 1 0
BITMAP
FC00
FE00
0F00
0700
0700
0700
0700
0700
0700
FFC0
FFC0
ENDCHAR
STARTCHAR 05D2
ENCODING 1490
SWIDTH 462 0
DWIDTH 9 0
BBX 9 11 0 0
BITMAP
3C00
3E00
0700
0700
0700
0700
1F00
3F00
7700
7380
E380
ENDCHAR
STARTCHAR 05D3
ENCODING 1491
SWIDTH 514 0
DWIDTH 10 0
BBX 10 11 0 0
BITMAP
FFC0
FFC0
0700
0700
0700
0700
0700
0700
0700
0700
0700
ENDCHAR
STARTCHAR 05D4
ENCODING 1492
SWIDTH 617 0
DWIDTH 12 0
BBX 10 11 1 0
BITMAP
FE00
FF80
0380
01C0
01C0
E1C0
E1C0
E1C0
E1C0
E1C0
E1C0
ENDCHAR
STARTCHAR 05D5
ENCODING 1493
SWIDTH 257 0
DWIDTH 5 0
BBX 3 11 1 0
BITMAP
E0
E0
E0
E0
E0
E0
E0
E0
E0
E0
E0
ENDCHAR
STARTCHAR 05D6
ENCODING 1494
SWIDTH 411 0
DWIDTH 8 0
BBX 7 11 1 0
BITMAP
FE
FE
1C
38
38
38
38
38
38
38
38
ENDCHAR
STARTCHAR 05D7
ENCODING 1495
SWIDTH 617 0
DWIDTH 12 0
BBX 10 11 1 0
BITMAP
FE00
FF80
E3C0
E1C0
E1C0
E1C0
E1C0
E1C0
E1C0
E1C0
E1C0
ENDCHAR
STARTCHAR 05D8
ENCODING 1496
SWIDTH 617 0
DWIDTH 12 0
BBX 10 11 1 0
BITMAP
E700
EF80
E9C0
E1C0
E1C0
E1C0
E1C0
E1C0
7380
7F80
1E00
ENDCHAR
STARTCHAR 05D9
ENCODING 1497
SWIDTH 257 0
DWIDTH 5 0
BBX 3 7 1 4
BITMAP
E0
E0
E0
E0
E0
E0
E0
ENDCHAR
STARTCHAR 05DA
ENCODING 1498
SWIDTH 514 0
DWIDTH 10 0
BBX 9 15 0 -4
BITMAP
FC00
FF00
0700
0380
0380
0380
0380
0380
0380
0380
0380
0380
0380
0380
0380
ENDCHAR
STARTCHAR 05DB
ENCODING 1499
SWIDTH 462 0
DWIDTH 9 0
BBX 7 11 1 0
BITMAP
F0
FC
1C
0E
0E
0E
0E
0E
1C
FC
F0
ENDCHAR
STARTCHAR 05DC
ENCODING 1500
SWIDTH 462 0
DWIDTH 9 0
BBX 7 14 1 0
BITMAP
E0
E0
E0
FE
FE
0E
0E
0E
1E
1C
3C
38
38
38
ENDCHAR
STARTCHAR 05DD
ENCODING 1501
SWIDTH 617 0
DWIDTH 12 0
BBX 10 11 1 0
BITMAP
FE00
FF80
E380
E1C0
E1C0
E1C0
E1C0
E1C0
E1C0
FFC0
FFC0
ENDCHAR
STARTCHAR 05DE
ENCODING 1502
SWIDTH 617 0
DWIDTH 12 0
BBX 10 11 1 0
BITMAP
E700
EF80
79C0
71C0
71C0
71C0
71C0
61C0
E1C0
E7C0
E7C0
ENDCHAR
STARTCHAR 05DF
ENCODING 1503
SWIDTH 257 0
DWIDTH 5 0
BBX 3 15 1 -4
BITMAP
E0
E0
E0
E0
E0
E0
E0
E0
E0
E0
E0
E0
E0
E0
E0
ENDCHAR
STARTCHAR 05E0
ENCODING 1504
SWIDTH 360 0
DWIDTH 7 0
BBX 5 11 1 0
BITMAP
F0
F8
38
38
38
38
38
38
38
F8
F8
ENDCHAR
STARTCHAR 05E1
ENCODING 1505
SWIDTH 617 0
DWIDTH 12 0
BBX 10 11 1 0
BITMAP
1E00
7F80
7380
E1C0
E1C0
E1C0
E1C0
E1C0
7380
7F80
1E00
ENDCHAR
STARTCHAR 05E2
ENCODING 1506
SWIDTH 514 0
DWIDTH 10 0
BBX 9 12 0 -1
BITMAP
7380
7380
7380
3380
3B80
3B80
3B80
3B00
1F00
7E00
F800
C000
ENDCHAR
STARTCHAR 05E3
ENCODING 1507
SWIDTH 565 0
DWIDTH 11 0
BBX 9 15 1 -4
BITMAP
FE00
FF00
E780
E380
E380
E380
F380
7380
0380
0380
0380
0380
0380
0380
0380
ENDCHAR
STARTCHAR 05E4
ENCODING 1508
SWIDTH 565 0
DWIDTH 11 0
BBX 9 11 1 0
BITMAP
FC00
FF00
E700
E380
E380
F380
7380
0380
4700
FF00
7C00
ENDCHAR
STARTCHAR 05E5
ENCODING 1509
SWIDTH 462 0
DWIDTH 9 0
BBX 8 15 0 -4
BITMAP
E7
E7
77
77
76
3E
3C
38
38
38
38
38
38
38
38
ENDCHAR
STARTCHAR 05E6
ENCODING 1510
SWIDTH 514 0
DWIDTH 10 0
BBX 9 11 0 0
BITMAP
E380
7380
7380
3B80
1F00
1F00
0E00
0E00
0700
7F80
7F80
ENDCHAR
STARTCHAR 05E7
ENCODING 1511
SWIDTH 565 0
DWIDTH 11 0
BBX 9 15 1 -4
BITMAP
FF80
FF80
0380
0380
0380
E380
E780
E700
E700
E700
E700
E000
E000
E000
E000
ENDCHAR
STARTCHAR 05E8
ENCODING 1512
SWIDTH 514 0
DWIDTH 10 0
BBX 9 11 0 0
BITMAP
FC00
FF00
0700
0380
0380
0380
0380
0380
0380
0380
0380
ENDCHAR
STARTCHAR 05E9
ENCODING 1513
SWIDTH 771 0
DWIDTH 15 0
BBX 13 11 1 0
BITMAP
E738
E738
E738
EF38
FE38
FC38
F078
7070
78F0
3FE0
0F80
ENDCHAR
STARTCHAR 05EA
ENCODING 1514
SWIDTH 668 0
DWIDTH 13 0
BBX 12 11 0 0
BITMAP
FF80
FFE0
38E0
3870
3870
3870
3870
3870
3870
F870
F070
ENDCHAR
STARTCHAR 05F0
ENCODING 1520
SWIDTH 514 0
DWIDTH 10 0
BBX 8 11 1 0
BITMAP
E7
E7
E7
E7
E7
E7
E7
E7
E7
E7
E7
ENDCHAR
STARTCHAR 05F1
ENCODING 1521
SWIDTH 514 0
DWIDTH 10 0
BBX 8 11 1 0
BITMAP
E7
E7
E7
E7
E7
E7
E7
07
07
07
07
ENDCHAR
STARTCHAR 05F2
ENCODING 1522
SWIDTH 514 0
DWIDTH 10 0
BBX 8 7 1 4
BITMAP
E7
E7
E7
E7
E7
E7
E7
ENDCHAR
STARTCHAR 05F3
ENCODING 1523
SWIDTH 308 0
DWIDTH 6 0
BBX 4 4 1 7
BITMAP
70
60
E0
C0
ENDCHAR
STARTCHAR 05F4
ENCODING 1524
SWIDTH 514 0
DWIDTH 10 0
BBX 8 4 1 7
BITMAP
77
66
EE
CC
ENDCHAR
STARTCHAR 060C
ENCODING 1548
SWIDTH 308 0
DWIDTH 6 0
BBX 3 6 2 3
BITMAP
40
80
80
E0
E0
60
ENDCHAR
STARTCHAR 061B
ENCODING 1563
SWIDTH 308 0
DWIDTH 6 0
BBX 3 9 1 3
BITMAP
40
80
80
E0
E0
60
00
60
60
ENDCHAR
STARTCHAR 061F
ENCODING 1567
SWIDTH 360 0
DWIDTH 7 0
BBX 5 11 1 3
BITMAP
70
C8
D8
D8
E0
60
20
20
00
60
60
ENDCHAR
STARTCHAR 0621
ENCODING 1569
SWIDTH 462 0
DWIDTH 9 0
BBX 7 9 1 1
BITMAP
3C
78
78
C0
E6
7C
30
40
80
ENDCHAR
STARTCHAR 0622
ENCODING 1570
SWIDTH 257 0
DWIDTH 5 0
BBX 5 14 0 3
BITMAP
48
B0
00
20
20
20
20
20
20
20
20
20
20
20
ENDCHAR
STARTCHAR 0623
ENCODING 1571
SWIDTH 205 0
DWIDTH 4 0
BBX 3 14 1 3
BITMAP
20
40
E0
00
40
40
40
40
40
40
40
40
40
40
ENDCHAR
STARTCHAR 0624
ENCODING 1572
SWIDTH 462 0
DWIDTH 9 0
BBX 9 14 0 -1
BITMAP
0400
0800
1C00
0000
0300
0780
0480
0480
0780
0380
0180
8300
7F00
1C00
ENDCHAR
STARTCHAR 0625
ENCODING 1573
SWIDTH 205 0
DWIDTH 4 0
BBX 3 15 0 -1
BITMAP
20
20
20
20
20
20
20
20
20
20
20
00
20
40
E0
ENDCHAR
STARTCHAR 0626
ENCODING 1574
SWIDTH 617 0
DWIDTH 12 0
BBX 10 12 1 -1
BITMAP
2000
4000
E0C0
01C0
4140
4200
83C0
83C0
8040
8380
FF00
7C00
ENDCHAR
STARTCHAR 0627
ENCODING 1575
SWIDTH 205 0
DWIDTH 4 0
BBX 1 11 2 3
BITMAP
80
80
80
80
80
80
80
80
80
80
80
ENDCHAR
STARTCHAR 0628
ENCODING 1576
SWIDTH 617 0
DWIDTH 12 0
BBX 11 10 1 -1
BITMAP
4040
8060
8020
FFE0
FFE0
7FE0
0000
0200
0700
0200
ENDCHAR
STARTCHAR 0629
ENCODING 1577
SWIDTH 360 0
DWIDTH 7 0
BBX 6 12 0 3
BITMAP
08
5C
E8
40
00
20
38
3C
44
7C
7C
78
ENDCHAR
STARTCHAR 062A
ENCODING 1578
SWIDTH 617 0
DWIDTH 12 0
BBX 11 10 1 3
BITMAP
0100
0B80
1D00
0800
4040
8060
8020
FFE0
FFE0
7FE0
ENDCHAR
STARTCHAR 062B
ENCODING 1579
SWIDTH 617 0
DWIDTH 12 0
BBX 11 12 1 3
BITMAP
0400
0E00
0500
0B80
1D00
0800
4040
8060
8020
FFE0
FFE0
7FE0
ENDCHAR
STARTCHAR 062C
ENCODING 1580
SWIDTH 565 0
DWIDTH 11 0
BBX 10 14 1 -4
BITMAP
7F80
FF80
9C00
2000
4000
8400
8E00
8400
8000
C000
F000
7FC0
7F80
1E00
ENDCHAR
STARTCHAR 062D
ENCODING 1581
SWIDTH 565 0
DWIDTH 11 0
BBX 10 14 1 -4
BITMAP
7F80
FF80
9C00
2000
4000
8000
8000
8000
8000
C000
F000
7FC0
7F80
1E00
ENDCHAR
STARTCHAR 062E
ENCODING 1582
SWIDTH 565 0
DWIDTH 11 0
BBX 10 18 1 -4
BITMAP
0800
1C00
0800
0000
7F80
FF80
9C00
2000
4000
8000
8000
8000
8000
C000
F000
7FC0
7F80
1E00
ENDCHAR
STARTCHAR 062F
ENCODING 1583
SWIDTH 360 0
DWIDTH 7 0
BBX 6 8 1 3
BITMAP
10
18
1C
0C
84
FC
FC
FC
ENDCHAR
STARTCHAR 0630
ENCODING 1584
SWIDTH 360 0
DWIDTH 7 0
BBX 6 12 1 3
BITMAP
20
70
20
00
10
18
1C
0C
84
FC
FC
FC
ENDCHAR
STARTCHAR 0631
ENCODING 1585
SWIDTH 411 0
DWIDTH 8 0
BBX 8 10 0 -1
BITMAP
02
03
03
01
01
01
03
8F
7E
1C
ENDCHAR
STARTCHAR 0632
ENCODING 1586
SWIDTH 411 0
DWIDTH 8 0
BBX 8 14 0 -1
BITMAP
04
0E
04
00
02
03
03
01
01
01
03
8F
7E
1C
ENDCHAR
STARTCHAR 0633
ENCODING 1587
SWIDTH 874 0
DWIDTH 17 0
BBX 16 10 1 -1
BITMAP
0100
2185
4185
80FF
80FF
80FB
C180
FF80
7F00
3E00
ENDCHAR
STARTCHAR 0634
ENCODING 1588
SWIDTH 874 0
DWIDTH 17 0
BBX 16 16 1 -1
BITMAP
0008
001C
000A
0017
003A
0010
0100
2185
4185
80FF
80FF
80FB
C180
FF80
7F00
3E00
ENDCHAR
STARTCHAR 0635
ENCODING 1589
SWIDTH 1028 0
DWIDTH 20 0
BBX 19 11 1 -1
BITMAP
0001C0
0103E0
218C20
41B820
80FFE0
80FFE0
80FFE0
C18000
FF8000
7F0000
3E0000
ENDCHAR
STARTCHAR 0636
ENCODING 1590
SWIDTH 1028 0
DWIDTH 20 0
BBX 19 15 1 -1
BITMAP
000800
001C00
000800
000000
0001C0
0103E0
218C20
41B820
80FFE0
80FFE0
80FFE0
C18000
FF8000
7F0000
3E0000
ENDCHAR
STARTCHAR 0637
ENCODING 1591
SWIDTH 514 0
DWIDTH 10 0
BBX 11 12 -1 3
BITMAP
1000
3800
3800
1800
1000
09C0
0FE0
0C20
1820
FFE0
FFE0
FFE0
ENDCHAR
STARTCHAR 0638
ENCODING 1592
SWIDTH 514 0
DWIDTH 10 0
BBX 11 12 -1 3
BITMAP
1000
3900
3B80
1900
1000
09C0
0FE0
0C20
1820
FFE0
FFE0
FFE0
ENDCHAR
STARTCHAR 0639
ENCODING 1593
SWIDTH 514 0
DWIDTH 10 0
BBX 9 15 1 -4
BITMAP
1C00
3E00
7000
6000
7300
7F00
3E00
3800
4000
8000
8000
C000
FF80
7F00
3E00
ENDCHAR
STARTCHAR 063A
ENCODING 1594
SWIDTH 514 0
DWIDTH 10 0
BBX 9 19 1 -4
BITMAP
1000
3800
1000
0000
1C00
3E00
7000
6000
7300
7F00
3E00
3800
4000
8000
8000
C000
FF80
7F00
3E00
ENDCHAR
STARTCHAR 0640
ENCODING 1600
SWIDTH 205 0
DWIDTH 4 0
BBX 5 3 -1 3
BITMAP
F8
F8
F8
ENDCHAR
STARTCHAR 0641
ENCODING 1601
SWIDTH 720 0
DWIDTH 14 0
BBX 13 11 1 3
BITMAP
0010
0038
0010
0000
0030
4078
80C8
80F8
FFF8
FFF8
7FF8
ENDCHAR
STARTCHAR 0642
ENCODING 1602
SWIDTH 617 0
DWIDTH 12 0
BBX 11 15 1 -2
BITMAP
0040
02E0
0740
0200
00C0
01E0
0260
23E0
43E0
81E0
8020
C060
FFE0
7FC0
3F00
ENDCHAR
STARTCHAR 0643
ENCODING 1603
SWIDTH 514 0
DWIDTH 10 0
BBX 9 12 1 3
BITMAP
0100
0380
0B80
1180
1D00
5D00
8480
9880
8080
FF80
FF80
7F80
ENDCHAR
STARTCHAR 0644
ENCODING 1604
SWIDTH 462 0
DWIDTH 9 0
BBX 8 16 1 -1
BITMAP
02
07
07
03
02
02
01
41
41
81
81
81
C3
FF
7E
3C
ENDCHAR
STARTCHAR 0645
ENCODING 1605
SWIDTH 360 0
DWIDTH 7 0
BBX 6 13 1 -4
BITMAP
30
38
5C
0C
7C
FC
C0
80
80
40
40
40
40
ENDCHAR
STARTCHAR 0646
ENCODING 1606
SWIDTH 514 0
DWIDTH 10 0
BBX 9 13 1 -1
BITMAP
0800
1C00
0800
0100
2180
4180
8080
8080
8080
C180
FF80
7F00
3E00
ENDCHAR
STARTCHAR 0647
ENCODING 1607
SWIDTH 360 0
DWIDTH 7 0
BBX 5 7 1 3
BITMAP
40
70
78
88
F8
F8
F0
ENDCHAR
STARTCHAR 0648
ENCODING 1608
SWIDTH 462 0
DWIDTH 9 0
BBX 9 10 0 -1
BITMAP
0300
0780
0480
0480
0780
0380
0180
8300
7F00
1C00
ENDCHAR
STARTCHAR 0649
ENCODING 1609
SWIDTH 617 0
DWIDTH 12 0
BBX 10 10 1 -1
BITMAP
00C0
01C0
4140
4200
83C0
83C0
8040
8380
FF00
7C00
ENDCHAR
STARTCHAR 064A
ENCODING 1610
SWIDTH 617 0
DWIDTH 12 0
BBX 10 13 1 -4
BITMAP
00C0
01C0
4140
4200
83C0
83C0
8040
8380
FF00
7C00
0000
1400
1A00
ENDCHAR
STARTCHAR 064B
ENCODING 1611
SWIDTH 205 0
DWIDTH 4 0
BBX 3 4 1 13
BITMAP
60
80
60
80
ENDCHAR
STARTCHAR 064C
ENCODING 1612
SWIDTH 257 0
DWIDTH 5 0
BBX 3 3 2 13
BITMAP
20
A0
C0
ENDCHAR
STARTCHAR 064D
ENCODING 1613
SWIDTH 205 0
DWIDTH 4 0
BBX 3 4 1 -3
BITMAP
60
80
60
80
ENDCHAR
STARTCHAR 064E
ENCODING 1614
SWIDTH 205 0
DWIDTH 4 0
BBX 3 2 1 13
BITMAP
60
80
ENDCHAR
STARTCHAR 064F
ENCODING 1615
SWIDTH 205 0
DWIDTH 4 0
BBX 2 4 2 13
BITMAP
C0
C0
40
80
ENDCHAR
STARTCHAR 0650
ENCODING 1616
SWIDTH 205 0
DWIDTH 4 0
BBX 3 2 1 -1
BITMAP
60
80
ENDCHAR
STARTCHAR 0651
ENCODING 1617
SWIDTH 205 0
DWIDTH 4 0
BBX 3 3 1 13
BITMAP
20
E0
80
ENDCHAR
STARTCHAR 0652
ENCODING 1618
SWIDTH 154 0
DWIDTH 3 0
BBX 3 3 0 13
BITMAP
60
A0
C0
ENDCHAR
STARTCHAR 0653
ENCODING 1619
SWIDTH 257 0
DWIDTH 5 0
BBX 5 2 0 14
BITMAP
C0
38
ENDCHAR
STARTCHAR 0654
ENCODING 1620
SWIDTH 205 0
DWIDTH 4 0
BBX 3 3 1 14
BITMAP
20
40
E0
ENDCHAR
STARTCHAR 0655
ENCODING 1621
SWIDTH 205 0
DWIDTH 4 0
BBX 3 3 1 -2
BITMAP
20
40
E0
ENDCHAR
STARTCHAR 0660
ENCODING 1632
SWIDTH 565 0
DWIDTH 11 0
BBX 3 5 4 4
BITMAP
40
60
E0
C0
40
ENDCHAR
STARTCHAR 0661
ENCODING 1633
SWIDTH 565 0
DWIDTH 11 0
BBX 4 10 3 3
BITMAP
40
60
E0
70
30
30
30
10
10
10
ENDCHAR
STARTCHAR 0662
ENCODING 1634
SWIDTH 565 0
DWIDTH 11 0
BBX 6 10 3 3
BITMAP
84
C4
FC
7C
78
30
30
10
10
10
ENDCHAR
STARTCHAR 0663
ENCODING 1635
SWIDTH 565 0
DWIDTH 11 0
BBX 7 10 2 3
BITMAP
92
9E
FE
7C
60
60
20
20
20
20
ENDCHAR
STARTCHAR 0664
ENCODING 1636
SWIDTH 565 0
DWIDTH 11 0
BBX 5 10 3 3
BITMAP
10
30
40
F8
70
20
40
F8
F8
70
ENDCHAR
STARTCHAR 0665
ENCODING 1637
SWIDTH 565 0
DWIDTH 11 0
BBX 7 8 2 4
BITMAP
38
7C
7E
8E
82
FE
FC
78
ENDCHAR
STARTCHAR 0666
ENCODING 1638
SWIDTH 565 0
DWIDTH 11 0
BBX 6 11 2 3
BITMAP
80
F0
F0
70
10
10
18
1C
1C
0C
04
ENDCHAR
STARTCHAR 0667
ENCODING 1639
SWIDTH 565 0
DWIDTH 11 0
BBX 8 10 1 3
BITMAP
81
C3
E3
63
66
34
14
18
08
08
ENDCHAR
STARTCHAR 0668
ENCODING 1640
SWIDTH 565 0
DWIDTH 11 0
BBX 8 10 1 3
BITMAP
10
10
28
28
2C
66
C6
C7
C3
81
ENDCHAR
STARTCHAR 0669
ENCODING 1641
SWIDTH 565 0
DWIDTH 11 0
BBX 6 11 2 3
BITMAP
30
78
88
F8
F8
78
08
0C
0C
0C
04
ENDCHAR
STARTCHAR 066A
ENCODING 1642
SWIDTH 514 0
DWIDTH 10 0
BBX 8 13 1 2
BITMAP
C1
C2
02
04
04
08
18
10
20
20
40
43
83
ENDCHAR
STARTCHAR 066B
ENCODING 1643
SWIDTH 308 0
DWIDTH 6 0
BBX 2 4 2 1
BITMAP
C0
C0
40
80
ENDCHAR
STARTCHAR 066C
ENCODING 1644
SWIDTH 308 0
DWIDTH 6 0
BBX 3 6 2 3
BITMAP
40
80
80
E0
E0
60
ENDCHAR
STARTCHAR 066D
ENCODING 1645
SWIDTH 514 0
DWIDTH 10 0
BBX 7 7 1 7
BITMAP
10
54
38
EE
38
54
10
ENDCHAR
STARTCHAR 066E
ENCODING 1646
SWIDTH 617 0
DWIDTH 12 0
BBX 11 6 1 3
BITMAP
4040
8060
8020
FFE0
FFE0
7FE0
ENDCHAR
STARTCHAR 066F
ENCODING 1647
SWIDTH 617 0
DWIDTH 12 0
BBX 11 11 1 -2
BITMAP
00C0
01E0
0260
23E0
43E0
81E0
8020
C060
FFE0
7FC0
3F00
ENDCHAR
STARTCHAR 0670
ENCODING 1648
SWIDTH 0 0
DWIDTH 0 0
BBX 1 6 0 10
BITMAP
80
80
80
80
80
80
ENDCHAR
STARTCHAR 0671
ENCODING 1649
SWIDTH 205 0
DWIDTH 4 0
BBX 4 14 0 3
BITMAP
30
F0
80
20
20
20
20
20
20
20
20
20
20
20
ENDCHAR
STARTCHAR 0672
ENCODING 1650
SWIDTH 205 0
DWIDTH 4 0
BBX 4 14 0 3
BITMAP
10
20
F0
00
20
20
20
20
20
20
20
20
20
20
ENDCHAR
STARTCHAR 0673
ENCODING 1651
SWIDTH 205 0
DWIDTH 4 0
BBX 4 16 0 -2
BITMAP
20
20
20
20
20
20
20
20
20
20
20
00
00
10
20
F0
ENDCHAR
STARTCHAR 0674
ENCODING 1652
SWIDTH 205 0
DWIDTH 4 0
BBX 3 3 1 14
BITMAP
20
40
E0
ENDCHAR
STARTCHAR 0675
ENCODING 1653
SWIDTH 205 0
DWIDTH 4 0
BBX 5 11 2 3
BITMAP
88
90
B8
80
80
80
80
80
80
80
80
ENDCHAR
STARTCHAR 0676
ENCODING 1654
SWIDTH 462 0
DWIDTH 9 0
BBX 10 14 0 -1
BITMAP
0040
0080
01C0
0000
0300
0780
0480
0480
0780
0380
0180
8300
7F00
1C00
ENDCHAR
STARTCHAR 0677
ENCODING 1655
SWIDTH 462 0
DWIDTH 9 0
BBX 10 15 0 -1
BITMAP
0C00
0C40
0480
09C0
0000
0300
0780
0480
0480
0780
0380
0180
8300
7F00
1C00
ENDCHAR
STARTCHAR 0678
ENCODING 1656
SWIDTH 617 0
DWIDTH 12 0
BBX 11 14 1 -1
BITMAP
0020
0040
00E0
0000
00C0
01C0
4140
4200
83C0
83C0
8040
8380
FF00
7C00
ENDCHAR
STARTCHAR 0679
ENCODING 1657
SWIDTH 617 0
DWIDTH 12 0
BBX 11 13 1 3
BITMAP
1800
0C00
0800
0F00
0900
1F00
0000
4040
8060
8020
FFE0
FFE0
7FE0
ENDCHAR
STARTCHAR 067A
ENCODING 1658
SWIDTH 617 0
DWIDTH 12 0
BBX 11 12 1 3
BITMAP
0400
0E00
0400
0200
0700
0200
4040
8060
8020
FFE0
FFE0
7FE0
ENDCHAR
STARTCHAR 067B
ENCODING 1659
SWIDTH 617 0
DWIDTH 12 0
BBX 11 13 1 -4
BITMAP
4040
8060
8020
FFE0
FFE0
7FE0
0000
0200
0700
0200
0100
0380
0100
ENDCHAR
STARTCHAR 067C
ENCODING 1660
SWIDTH 617 0
DWIDTH 12 0
BBX 11 12 1 1
BITMAP
0100
0B80
1D00
0800
4040
8060
8020
FFE0
FFE0
7FE0
0500
0600
ENDCHAR
STARTCHAR 067D
ENCODING 1661
SWIDTH 617 0
DWIDTH 12 0
BBX 11 12 1 3
BITMAP
0200
1700
3A00
1200
0700
0200
4040
8060
8020
FFE0
FFE0
7FE0
ENDCHAR
STARTCHAR 067E
ENCODING 1662
SWIDTH 617 0
DWIDTH 12 0
BBX 11 13 1 -4
BITMAP
4040
8060
8020
FFE0
FFE0
7FE0
0000
0100
0B80
1D00
0900
0380
0100
ENDCHAR
STARTCHAR 067F
ENCODING 1663
SWIDTH 617 0
DWIDTH 12 0
BBX 11 12 1 3
BITMAP
0200
1700
3B00
1B80
1D00
0800
4040
8060
8020
FFE0
FFE0
7FE0
ENDCHAR
STARTCHAR 0680
ENCODING 1664
SWIDTH 617 0
DWIDTH 12 0
BBX 11 13 1 -4
BITMAP
4040
8060
8020
FFE0
FFE0
7FE0
0000
0100
0B80
1D80
0DC0
0E80
0400
ENDCHAR
STARTCHAR 0681
ENCODING 1665
SWIDTH 565 0
DWIDTH 11 0
BBX 10 18 1 -4
BITMAP
0200
0400
0E00
0000
7F80
FF80
9C00
2000
4000
8000
8000
8000
8000
C000
F000
7FC0
7F80
1E00
ENDCHAR
STARTCHAR 0682
ENCODING 1666
SWIDTH 565 0
DWIDTH 11 0
BBX 10 21 1 -4
BITMAP
1000
3800
1000
0800
1C00
0800
0000
7F80
FF80
9C00
2000
4000
8000
8000
8000
8000
C000
F000
7FC0
7F80
1E00
ENDCHAR
STARTCHAR 0683
ENCODING 1667
SWIDTH 565 0
DWIDTH 11 0
BBX 10 14 1 -4
BITMAP
7F80
FF80
9C00
2000
4100
8B80
9D00
8800
8000
C000
F000
7FC0
7F80
1E00
ENDCHAR
STARTCHAR 0684
ENCODING 1668
SWIDTH 565 0
DWIDTH 11 0
BBX 10 14 1 -4
BITMAP
7F80
FF80
9C00
2000
4400
8E00
8400
8200
8700
C200
F000
7FC0
7F80
1E00
ENDCHAR
STARTCHAR 0685
ENCODING 1669
SWIDTH 565 0
DWIDTH 11 0
BBX 10 21 1 -4
BITMAP
0800
1C00
0A00
1700
3A00
1000
0000
7F80
FF80
9C00
2000
4000
8000
8000
8000
8000
C000
F000
7FC0
7F80
1E00
ENDCHAR
STARTCHAR 0686
ENCODING 1670
SWIDTH 565 0
DWIDTH 11 0
BBX 10 14 1 -4
BITMAP
7F80
FF80
9C00
2000
4200
9700
BA00
9200
8700
C200
F000
7FC0
7F80
1E00
ENDCHAR
STARTCHAR 0687
ENCODING 1671
SWIDTH 565 0
DWIDTH 11 0
BBX 10 14 1 -4
BITMAP
7F80
FF80
9C00
2000
4200
9700
BB00
9B80
9D00
C800
F000
7FC0
7F80
1E00
ENDCHAR
STARTCHAR 0688
ENCODING 1672
SWIDTH 360 0
DWIDTH 7 0
BBX 6 14 1 3
BITMAP
C0
60
40
78
48
F8
10
18
1C
0C
84
FC
FC
FC
ENDCHAR
STARTCHAR 0689
ENCODING 1673
SWIDTH 360 0
DWIDTH 7 0
BBX 6 10 1 1
BITMAP
10
18
1C
0C
84
FC
FC
FC
28
30
ENDCHAR
STARTCHAR 068A
ENCODING 1674
SWIDTH 360 0
DWIDTH 7 0
BBX 6 12 1 -1
BITMAP
10
18
1C
0C
84
FC
FC
FC
00
10
38
10
ENDCHAR
STARTCHAR 068B
ENCODING 1675
SWIDTH 360 0
DWIDTH 7 0
BBX 6 18 1 -1
BITMAP
C0
60
40
78
48
F8
10
18
1C
0C
84
FC
FC
FC
00
10
38
10
ENDCHAR
STARTCHAR 068C
ENCODING 1676
SWIDTH 360 0
DWIDTH 7 0
BBX 6 12 1 3
BITMAP
08
5C
E8
40
10
18
1C
0C
84
FC
FC
FC
ENDCHAR
STARTCHAR 068D
ENCODING 1677
SWIDTH 360 0
DWIDTH 7 0
BBX 6 13 1 -2
BITMAP
10
18
1C
0C
84
FC
FC
FC
00
08
5C
E8
40
ENDCHAR
STARTCHAR 068E
ENCODING 1678
SWIDTH 360 0
DWIDTH 7 0
BBX 6 14 1 3
BITMAP
20
70
28
5C
E8
40
10
18
1C
0C
84
FC
FC
FC
ENDCHAR
STARTCHAR 068F
ENCODING 1679
SWIDTH 360 0
DWIDTH 7 0
BBX 7 14 0 3
BITMAP
08
5C
E8
48
1C
08
08
0C
0E
06
42
7E
7E
7E
ENDCHAR
STARTCHAR 0690
ENCODING 1680
SWIDTH 360 0
DWIDTH 7 0
BBX 7 14 0 3
BITMAP
08
5C
EC
6E
74
20
08
0C
0E
06
42
7E
7E
7E
ENDCHAR
STARTCHAR 0691
ENCODING 1681
SWIDTH 411 0
DWIDTH 8 0
BBX 8 16 0 -1
BITMAP
18
0C
08
0F
09
1F
02
03
03
01
01
01
03
8F
7E
1C
ENDCHAR
STARTCHAR 0692
ENCODING 1682
SWIDTH 411 0
DWIDTH 8 0
BBX 8 13 0 -1
BITMAP
0A
04
00
02
03
03
01
01
01
03
8F
7E
1C
ENDCHAR
STARTCHAR 0693
ENCODING 1683
SWIDTH 411 0
DWIDTH 8 0
BBX 8 11 0 -2
BITMAP
02
03
03
01
01
01
03
8F
7F
1D
06
ENDCHAR
STARTCHAR 0694
ENCODING 1684
SWIDTH 411 0
DWIDTH 8 0
BBX 9 12 0 -3
BITMAP
0200
0300
0300
0100
0100
0100
0300
8F00
7E00
1D00
0380
0100
ENDCHAR
STARTCHAR 0695
ENCODING 1685
SWIDTH 411 0
DWIDTH 8 0
BBX 9 12 0 -3
BITMAP
0200
0300
0300
0100
0100
0100
0300
8F00
7E00
1C00
0280
0100
ENDCHAR
STARTCHAR 0696
ENCODING 1686
SWIDTH 411 0
DWIDTH 8 0
BBX 9 12 0 -3
BITMAP
0200
0300
0300
0900
1D00
0900
0300
8F00
7E00
1D00
0380
0100
ENDCHAR
STARTCHAR 0697
ENCODING 1687
SWIDTH 411 0
DWIDTH 8 0
BBX 8 14 0 -1
BITMAP
02
17
3A
10
02
03
03
01
01
01
03
8F
7E
1C
ENDCHAR
STARTCHAR 0698
ENCODING 1688
SWIDTH 411 0
DWIDTH 8 0
BBX 9 17 0 -1
BITMAP
0400
0E00
0500
0B80
1D00
0800
0000
0200
0300
0300
0100
0100
0100
0300
8F00
7E00
1C00
ENDCHAR
STARTCHAR 0699
ENCODING 1689
SWIDTH 411 0
DWIDTH 8 0
BBX 8 16 0 -1
BITMAP
04
2E
76
37
3A
10
02
03
03
01
01
01
03
8F
7E
1C
ENDCHAR
STARTCHAR 069A
ENCODING 1690
SWIDTH 874 0
DWIDTH 17 0
BBX 16 13 1 -1
BITMAP
0008
001C
0008
0100
2185
4185
80FF
80FF
80FB
C180
FF88
7F1C
3E08
ENDCHAR
STARTCHAR 069B
ENCODING 1691
SWIDTH 874 0
DWIDTH 17 0
BBX 16 13 1 -4
BITMAP
0100
2185
4185
80FF
80FF
80FB
C180
FF82
7F17
3E3A
0012
0007
0002
ENDCHAR
STARTCHAR 069C
ENCODING 1692
SWIDTH 874 0
DWIDTH 17 0
BBX 16 19 1 -4
BITMAP
0008
001C
000A
0017
003A
0010
0100
2185
4185
80FF
80FF
80FB
C180
FF82
7F17
3E3A
0012
0007
0002
ENDCHAR
STARTCHAR 069D
ENCODING 1693
SWIDTH 1028 0
DWIDTH 20 0
BBX 19 12 1 -2
BITMAP
0001C0
0103E0
218C20
41B820
80FFE0
80FFE0
80FFE0
C18000
FF8080
7F05C0
3E0E80
000400
ENDCHAR
STARTCHAR 069E
ENCODING 1694
SWIDTH 1028 0
DWIDTH 20 0
BBX 19 18 1 -1
BITMAP
000800
001C00
000A00
001700
003A00
001000
000000
0001C0
0103E0
218C20
41B820
80FFE0
80FFE0
80FFE0
C18000
FF8000
7F0000
3E0000
ENDCHAR
STARTCHAR 069F
ENCODING 1695
SWIDTH 514 0
DWIDTH 10 0
BBX 11 14 -1 3
BITMAP
0100
0380
1140
3AE0
3F40
1A00
1000
09C0
0FE0
0C20
1820
FFE0
FFE0
FFE0
ENDCHAR
STARTCHAR 06A0
ENCODING 1696
SWIDTH 514 0
DWIDTH 10 0
BBX 9 21 1 -4
BITMAP
2000
7000
2800
5C00
E800
4000
1C00
3E00
7000
6000
7300
7F00
3E00
3800
4000
8000
8000
C000
FF80
7F00
3E00
ENDCHAR
STARTCHAR 06A1
ENCODING 1697
SWIDTH 720 0
DWIDTH 14 0
BBX 13 7 1 3
BITMAP
0030
4078
80C8
80F8
FFF8
FFF8
7FF8
ENDCHAR
STARTCHAR 06A2
ENCODING 1698
SWIDTH 720 0
DWIDTH 14 0
BBX 13 11 1 -1
BITMAP
0030
4078
80C8
80F8
FFF8
FFF8
7FF8
0000
0010
0038
0010
ENDCHAR
STARTCHAR 06A3
ENCODING 1699
SWIDTH 720 0
DWIDTH 14 0
BBX 13 15 1 -1
BITMAP
0010
0038
0010
0000
0030
4078
80C8
80F8
FFF8
FFF8
7FF8
0000
0100
0380
0100
ENDCHAR
STARTCHAR 06A4
ENCODING 1700
SWIDTH 720 0
DWIDTH 14 0
BBX 13 15 1 3
BITMAP
0040
00E0
0050
00B8
01D0
0080
0000
0000
0030
4078
80C8
80F8
FFF8
FFF8
7FF8
ENDCHAR
STARTCHAR 06A5
ENCODING 1701
SWIDTH 720 0
DWIDTH 14 0
BBX 13 14 1 -4
BITMAP
0030
4078
80C8
80F8
FFF8
FFF8
7FF8
0000
0010
00B8
01D0
0090
0038
0010
ENDCHAR
STARTCHAR 06A6
ENCODING 1702
SWIDTH 720 0
DWIDTH 14 0
BBX 13 15 1 3
BITMAP
0020
0170
03B0
01B8
01D0
0080
0000
0000
0030
4078
80C8
80F8
FFF8
FFF8
7FF8
ENDCHAR
STARTCHAR 06A7
ENCODING 1703
SWIDTH 617 0
DWIDTH 12 0
BBX 11 15 1 -2
BITMAP
0100
0380
0100
0000
00C0
01E0
0260
23E0
43E0
81E0
8020
C060
FFE0
7FC0
3F00
ENDCHAR
STARTCHAR 06A8
ENCODING 1704
SWIDTH 617 0
DWIDTH 12 0
BBX 11 18 1 -2
BITMAP
0100
0380
0140
02E0
0740
0200
0000
00C0
01E0
0260
23E0
43E0
81E0
8020
C060
FFE0
7FC0
3F00
ENDCHAR
STARTCHAR 06A9
ENCODING 1705
SWIDTH 720 0
DWIDTH 14 0
BBX 13 10 1 3
BITMAP
0030
00F0
01C0
4180
80E0
8070
8018
FFF8
FFF8
7FF8
ENDCHAR
STARTCHAR 06AA
ENCODING 1706
SWIDTH 720 0
DWIDTH 14 0
BBX 13 10 1 3
BITMAP
0100
0F00
1800
1E00
8FE0
83F0
C018
FFF8
FFF8
7FF8
ENDCHAR
STARTCHAR 06AB
ENCODING 1707
SWIDTH 720 0
DWIDTH 14 0
BBX 13 10 1 3
BITMAP
0030
00F8
01E8
41B0
80C0
8070
8018
FFF8
FFF8
7FF8
ENDCHAR
STARTCHAR 06AC
ENCODING 1708
SWIDTH 514 0
DWIDTH 10 0
BBX 9 14 1 3
BITMAP
0800
1C00
0900
0380
0B80
1180
1D00
5D00
8480
9880
8080
FF80
FF80
7F80
ENDCHAR
STARTCHAR 06AD
ENCODING 1709
SWIDTH 514 0
DWIDTH 10 0
BBX 9 13 1 3
BITMAP
3000
0D00
3380
0B80
1180
1D00
5D00
8480
9880
8080
FF80
FF80
7F80
ENDCHAR
STARTCHAR 06AE
ENCODING 1710
SWIDTH 514 0
DWIDTH 10 0
BBX 9 19 1 -4
BITMAP
0100
0380
0B80
1180
1D00
5D00
8480
9880
8080
FF80
FF80
7F80
0000
0200
1700
3A00
1200
0700
0200
ENDCHAR
STARTCHAR 06AF
ENCODING 1711
SWIDTH 720 0
DWIDTH 14 0
BBX 13 13 1 3
BITMAP
0030
01F0
03C0
0230
00F0
01C0
4180
80E0
8070
8018
FFF8
FFF8
7FF8
ENDCHAR
STARTCHAR 06B0
ENCODING 1712
SWIDTH 720 0
DWIDTH 14 0
BBX 13 13 1 3
BITMAP
0030
01F0
03D0
0238
00F8
01F8
41B0
80C0
8070
8018
FFF8
FFF8
7FF8
ENDCHAR
STARTCHAR 06B1
ENCODING 1713
SWIDTH 720 0
DWIDTH 14 0
BBX 13 15 1 3
BITMAP
00C0
03C0
0330
00F0
03C0
0230
00F0
01C0
4180
80E0
8070
8018
FFF8
FFF8
7FF8
ENDCHAR
STARTCHAR 06B2
ENCODING 1714
SWIDTH 720 0
DWIDTH 14 0
BBX 13 18 1 -2
BITMAP
0030
01F0
03C0
0230
00F0
01C0
4180
80E0
8070
8018
FFF8
FFF8
7FF8
0000
0080
05C0
0E80
0400
ENDCHAR
STARTCHAR 06B3
ENCODING 1715
SWIDTH 720 0
DWIDTH 14 0
BBX 13 20 1 -4
BITMAP
0030
01F0
03C0
0230
00F0
01C0
4180
80E0
8070
8018
FFF8
FFF8
7FF8
0000
0200
0700
0200
0100
0380
0100
ENDCHAR
STARTCHAR 06B4
ENCODING 1716
SWIDTH 720 0
DWIDTH 14 0
BBX 13 15 1 3
BITMAP
0600
0600
0180
0670
01E0
03B0
02F0
01C0
4180
80E0
8070
8018
FFF8
FFF8
7FF8
ENDCHAR
STARTCHAR 06B5
ENCODING 1717
SWIDTH 462 0
DWIDTH 9 0
BBX 8 18 1 -1
BITMAP
0A
04
00
02
07
03
02
02
01
41
41
81
81
81
C3
FF
7E
3C
ENDCHAR
STARTCHAR 06B6
ENCODING 1718
SWIDTH 462 0
DWIDTH 9 0
BBX 8 18 1 -1
BITMAP
08
1C
08
02
07
03
02
02
01
41
41
81
81
81
C3
FF
7E
3C
ENDCHAR
STARTCHAR 06B7
ENCODING 1719
SWIDTH 462 0
DWIDTH 9 0
BBX 8 18 1 -1
BITMAP
0C
03
0C
02
07
03
02
02
01
41
41
81
81
81
C3
FF
7E
3C
ENDCHAR
STARTCHAR 06B8
ENCODING 1720
SWIDTH 462 0
DWIDTH 9 0
BBX 8 19 1 -4
BITMAP
02
07
07
03
02
02
01
41
41
81
81
81
C3
FF
7E
3C
00
14
08
ENDCHAR
STARTCHAR 06B9
ENCODING 1721
SWIDTH 514 0
DWIDTH 10 0
BBX 9 16 1 -4
BITMAP
0800
1C00
0900
2180
4180
8080
8080
8080
C180
FF80
7F00
3E00
0000
0800
1C00
0800
ENDCHAR
STARTCHAR 06BA
ENCODING 1722
SWIDTH 514 0
DWIDTH 10 0
BBX 9 10 1 -1
BITMAP
0100
2180
4180
8080
8080
8080
C180
FF80
7F00
3E00
ENDCHAR
STARTCHAR 06BB
ENCODING 1723
SWIDTH 514 0
DWIDTH 10 0
BBX 9 16 1 -1
BITMAP
3000
1800
1000
1E00
1200
3E00
0100
2180
4180
8080
8080
8080
C180
FF80
7F00
3E00
ENDCHAR
STARTCHAR 06BC
ENCODING 1724
SWIDTH 514 0
DWIDTH 10 0
BBX 9 15 1 -3
BITMAP
0800
1C00
0800
0100
2180
4180
8080
8080
8080
C180
FF80
7F00
3E00
1400
1800
ENDCHAR
STARTCHAR 06BD
ENCODING 1725
SWIDTH 514 0
DWIDTH 10 0
BBX 9 16 1 -1
BITMAP
0800
1C00
0A00
1700
3A00
1000
0100
2180
4180
8080
8080
8080
C180
FF80
7F00
3E00
ENDCHAR
STARTCHAR 06BE
ENCODING 1726
SWIDTH 462 0
DWIDTH 9 0
BBX 9 9 -1 3
BITMAP
1000
1C00
1E00
3F00
2500
3C80
FF80
FF80
F780
ENDCHAR
STARTCHAR 06BF
ENCODING 1727
SWIDTH 565 0
DWIDTH 11 0
BBX 10 18 1 -4
BITMAP
0800
1C00
0800
0000
7F80
FF80
9C00
2000
4200
9700
BA00
9200
8700
C200
F000
7FC0
7F80
1E00
ENDCHAR
STARTCHAR 06C0
ENCODING 1728
SWIDTH 360 0
DWIDTH 7 0
BBX 5 10 1 3
BITMAP
10
20
70
40
70
78
88
F8
F8
F0
ENDCHAR
STARTCHAR 06C1
ENCODING 1729
SWIDTH 360 0
DWIDTH 7 0
BBX 7 6 0 2
BITMAP
18
3C
7E
4E
C6
80
ENDCHAR
STARTCHAR 06C2
ENCODING 1730
SWIDTH 360 0
DWIDTH 7 0
BBX 7 9 0 2
BITMAP
08
10
38
18
3C
7E
4E
C6
80
ENDCHAR
STARTCHAR 06C3
ENCODING 1731
SWIDTH 360 0
DWIDTH 7 0
BBX 7 9 0 2
BITMAP
08
5C
E8
58
3C
7E
4E
C6
80
ENDCHAR
STARTCHAR 06C4
ENCODING 1732
SWIDTH 462 0
DWIDTH 9 0
BBX 9 10 0 -1
BITMAP
0300
0780
0480
0480
0780
0380
0D80
9700
7F00
1C00
ENDCHAR
STARTCHAR 06C5
ENCODING 1733
SWIDTH 462 0
DWIDTH 9 0
BBX 9 10 0 -1
BITMAP
0300
0780
0480
0480
0780
0380
1980
8700
7F00
1C00
ENDCHAR
STARTCHAR 06C6
ENCODING 1734
SWIDTH 462 0
DWIDTH 9 0
BBX 9 13 0 -1
BITMAP
0500
0200
0000
0300
0780
0480
0480
0780
0380
0180
8300
7F00
1C00
ENDCHAR
STARTCHAR 06C7
ENCODING 1735
SWIDTH 462 0
DWIDTH 9 0
BBX 9 16 0 -1
BITMAP
0300
0300
0100
0200
0000
0000
0300
0780
0480
0480
0780
0380
0180
8300
7F00
1C00
ENDCHAR
STARTCHAR 06C8
ENCODING 1736
SWIDTH 462 0
DWIDTH 9 0
BBX 9 17 0 -1
BITMAP
0200
0200
0200
0200
0200
0200
0000
0300
0780
0480
0480
0780
0380
0180
8300
7F00
1C00
ENDCHAR
STARTCHAR 06C9
ENCODING 1737
SWIDTH 462 0
DWIDTH 9 0
BBX 9 13 0 -1
BITMAP
0200
0500
0000
0300
0780
0480
0480
0780
0380
0180
8300
7F00
1C00
ENDCHAR
STARTCHAR 06CA
ENCODING 1738
SWIDTH 462 0
DWIDTH 9 0
BBX 9 14 0 -1
BITMAP
0100
0B80
1D00
0800
0300
0780
0480
0480
0780
0380
0180
8300
7F00
1C00
ENDCHAR
STARTCHAR 06CB
ENCODING 1739
SWIDTH 462 0
DWIDTH 9 0
BBX 9 16 0 -1
BITMAP
0400
0E00
0500
0B80
1D00
0800
0300
0780
0480
0480
0780
0380
0180
8300
7F00
1C00
ENDCHAR
STARTCHAR 06CC
ENCODING 1740
SWIDTH 617 0
DWIDTH 12 0
BBX 10 10 1 -1
BITMAP
00C0
01C0
4140
4200
83C0
83C0
8040
8380
FF00
7C00
ENDCHAR
STARTCHAR 06CD
ENCODING 1741
SWIDTH 617 0
DWIDTH 12 0
BBX 10 10 1 -1
BITMAP
00C0
01C0
2140
E200
43C0
43C0
4040
4380
7F00
3C00
ENDCHAR
STARTCHAR 06CE
ENCODING 1742
SWIDTH 617 0
DWIDTH 12 0
BBX 10 11 1 -1
BITMAP
2800
10C0
01C0
4140
4200
83C0
83C0
8040
8380
FF00
7C00
ENDCHAR
STARTCHAR 06CF
ENCODING 1743
SWIDTH 462 0
DWIDTH 9 0
BBX 9 14 0 -1
BITMAP
0200
0700
0200
0000
0300
0780
0480
0480
0780
0380
0180
8300
7F00
1C00
ENDCHAR
STARTCHAR 06D0
ENCODING 1744
SWIDTH 617 0
DWIDTH 12 0
BBX 10 13 1 -4
BITMAP
00C0
01C0
4140
4200
83C0
83C0
8040
8380
FF00
7C00
0000
0800
0800
ENDCHAR
STARTCHAR 06D1
ENCODING 1745
SWIDTH 617 0
DWIDTH 12 0
BBX 10 13 1 -4
BITMAP
00C0
01C0
4140
4200
83C0
83C0
8040
8380
FF00
7C00
0000
1400
0800
ENDCHAR
STARTCHAR 06D2
ENCODING 1746
SWIDTH 771 0
DWIDTH 15 0
BBX 14 9 1 0
BITMAP
0200
0700
0F00
3900
7000
C000
FFFC
FFF8
FFF0
ENDCHAR
STARTCHAR 06D3
ENCODING 1747
SWIDTH 771 0
DWIDTH 15 0
BBX 14 11 1 0
BITMAP
0800
1000
3A00
0700
0F00
3900
7000
C000
FFFC
FFF8
FFF0
ENDCHAR
STARTCHAR 06D4
ENCODING 1748
SWIDTH 205 0
DWIDTH 4 0
BBX 3 3 0 3
BITMAP
E0
E0
E0
ENDCHAR
STARTCHAR 06D5
ENCODING 1749
SWIDTH 360 0
DWIDTH 7 0
BBX 5 7 1 3
BITMAP
40
70
78
88
F8
F8
F0
ENDCHAR
STARTCHAR 06D6
ENCODING 1750
SWIDTH 0 0
DWIDTH 0 0
BBX 9 7 -4 10
BITMAP
3000
1000
1000
1480
7F80
8000
FE00
ENDCHAR
STARTCHAR 06D7
ENCODING 1751
SWIDTH 0 0
DWIDTH 0 0
BBX 7 7 -3 10
BITMAP
D4
48
5C
44
7C
80
FE
ENDCHAR
STARTCHAR 06D8
ENCODING 1752
SWIDTH 0 0
DWIDTH 0 0
BBX 4 3 -2 10
BITMAP
20
50
F0
ENDCHAR
STARTCHAR 06D9
ENCODING 1753
SWIDTH 0 0
DWIDTH 0 0
BBX 4 6 -2 10
BITMAP
90
90
50
20
20
60
ENDCHAR
STARTCHAR 06DA
ENCODING 1754
SWIDTH 0 0
DWIDTH 0 0
BBX 4 7 -2 10
BITMAP
F0
40
B0
B0
80
40
30
ENDCHAR
STARTCHAR 06DB
ENCODING 1755
SWIDTH 0 0
DWIDTH 0 0
BBX 2 2 -1 10
BITMAP
80
C0
ENDCHAR
STARTCHAR 06DC
ENCODING 1756
SWIDTH 0 0
DWIDTH 0 0
BBX 8 5 -3 10
BITMAP
15
95
9F
90
60
ENDCHAR
STARTCHAR 06DD
ENCODING 1757
SWIDTH 1080 0
DWIDTH 21 0
BBX 21 21 0 -4
BITMAP
01FC00
0E0380
0FFF80
1800C0
300060
200020
400010
400010
800008
800008
800008
800008
800008
400010
400010
200020
300060
1800C0
0FFF80
0E0380
01FC00
ENDCHAR
STARTCHAR 06DE
ENCODING 1758
SWIDTH 1080 0
DWIDTH 21 0
BBX 21 21 0 -4
BITMAP
002000
005000
008800
1FFFC0
120240
140140
1800C0
100040
307060
508850
908848
508850
307060
100040
1800C0
140140
120240
1FFFC0
008800
005000
002000
ENDCHAR
STARTCHAR 06DF
ENCODING 1759
SWIDTH 0 0
DWIDTH 0 0
BBX 1 1 -1 10
BITMAP
80
ENDCHAR
STARTCHAR 06E0
ENCODING 1760
SWIDTH 0 0
DWIDTH 0 0
BBX 1 1 -1 10
BITMAP
80
ENDCHAR
STARTCHAR 06E1
ENCODING 1761
SWIDTH 0 0
DWIDTH 0 0
BBX 5 3 -3 10
BITMAP
60
10
F8
ENDCHAR
STARTCHAR 06E2
ENCODING 1762
SWIDTH 0 0
DWIDTH 0 0
BBX 3 6 -2 10
BITMAP
40
60
E0
80
80
80
ENDCHAR
STARTCHAR 06E3
ENCODING 1763
SWIDTH 0 0
DWIDTH 0 0
BBX 8 5 -3 -4
BITMAP
15
95
9F
90
60
ENDCHAR
STARTCHAR 06E4
ENCODING 1764
SWIDTH 0 0
DWIDTH 0 0
BBX 2 1 -1 10
BITMAP
C0
ENDCHAR
STARTCHAR 06E5
ENCODING 1765
SWIDTH 205 0
DWIDTH 4 0
BBX 4 5 0 10
BITMAP
20
50
70
10
E0
ENDCHAR
STARTCHAR 06E6
ENCODING 1766
SWIDTH 360 0
DWIDTH 7 0
BBX 7 4 0 10
BITMAP
10
60
80
FE
ENDCHAR
STARTCHAR 06E7
ENCODING 1767
SWIDTH 0 0
DWIDTH 0 0
BBX 7 4 -4 10
BITMAP
10
60
80
FE
ENDCHAR
STARTCHAR 06E8
ENCODING 1768
SWIDTH 0 0
DWIDTH 0 0
BBX 5 6 -2 10
BITMAP
60
60
08
88
88
70
ENDCHAR
STARTCHAR 06E9
ENCODING 1769
SWIDTH 565 0
DWIDTH 11 0
BBX 13 16 -1 0
BITMAP
0200
0D80
1240
2DA0
D258
6DB0
3DE0
1DC0
1DC0
1DC0
1DC0
1FC0
38E0
2FA0
4010
FFF8
ENDCHAR
STARTCHAR 06EA
ENCODING 1770
SWIDTH 0 0
DWIDTH 0 0
BBX 3 3 -2 -3
BITMAP
40
A0
40
ENDCHAR
STARTCHAR 06EB
ENCODING 1771
SWIDTH 0 0
DWIDTH 0 0
BBX 3 3 -2 10
BITMAP
40
A0
40
ENDCHAR
STARTCHAR 06EC
ENCODING 1772
SWIDTH 0 0
DWIDTH 0 0
BBX 1 1 -1 10
BITMAP
80
ENDCHAR
STARTCHAR 06ED
ENCODING 1773
SWIDTH 0 0
DWIDTH 0 0
BBX 3 6 -2 -4
BITMAP
40
60
E0
80
80
80
ENDCHAR
STARTCHAR 06F0
ENCODING 1776
SWIDTH 565 0
DWIDTH 11 0
BBX 3 5 4 4
BITMAP
40
60
E0
C0
40
ENDCHAR
STARTCHAR 06F1
ENCODING 1777
SWIDTH 565 0
DWIDTH 11 0
BBX 4 10 3 3
BITMAP
40
60
E0
70
30
30
30
10
10
10
ENDCHAR
STARTCHAR 06F2
ENCODING 1778
SWIDTH 565 0
DWIDTH 11 0
BBX 6 10 3 3
BITMAP
84
C4
FC
7C
78
30
30
10
10
10
ENDCHAR
STARTCHAR 06F3
ENCODING 1779
SWIDTH 565 0
DWIDTH 11 0
BBX 7 10 2 3
BITMAP
92
9E
FE
7C
60
60
20
20
20
20
ENDCHAR
STARTCHAR 06F4
ENCODING 1780
SWIDTH 565 0
DWIDTH 11 0
BBX 8 11 1 3
BITMAP
0E
59
70
FF
7F
3E
30
10
10
10
10
ENDCHAR
STARTCHAR 06F5
ENCODING 1781
SWIDTH 565 0
DWIDTH 11 0
BBX 7 10 2 3
BITMAP
20
30
38
1C
2C
46
D2
FE
FE
6C
ENDCHAR
STARTCHAR 06F6
ENCODING 1782
SWIDTH 565 0
DWIDTH 11 0
BBX 7 11 2 3
BITMAP
18
3C
40
82
FE
FC
78
10
30
20
20
ENDCHAR
STARTCHAR 06F7
ENCODING 1783
SWIDTH 565 0
DWIDTH 11 0
BBX 8 10 1 3
BITMAP
81
C3
E3
63
66
34
14
18
08
08
ENDCHAR
STARTCHAR 06F8
ENCODING 1784
SWIDTH 565 0
DWIDTH 11 0
BBX 8 10 1 3
BITMAP
10
10
28
28
2C
66
C6
C7
C3
81
ENDCHAR
STARTCHAR 06F9
ENCODING 1785
SWIDTH 565 0
DWIDTH 11 0
BBX 6 11 2 3
BITMAP
30
78
88
F8
F8
78
08
0C
0C
0C
04
ENDCHAR
STARTCHAR 06FA
ENCODING 1786
SWIDTH 874 0
DWIDTH 17 0
BBX 16 16 1 -1
BITMAP
0008
001C
000A
0017
003A
0010
0100
2185
4185
80FF
80FF
80FB
C180
FF88
7F1C
3E08
ENDCHAR
STARTCHAR 06FB
ENCODING 1787
SWIDTH 1028 0
DWIDTH 20 0
BBX 19 15 1 -1
BITMAP
000800
001C00
000800
000000
0001C0
0103E0
218C20
41B820
80FFE0
80FFE0
80FFE0
C18000
FF8200
7F0700
3E0200
ENDCHAR
STARTCHAR 06FC
ENCODING 1788
SWIDTH 514 0
DWIDTH 10 0
BBX 9 19 1 -4
BITMAP
1000
3800
1000
0000
1C00
3E00
7000
6000
7300
7F00
3E00
3800
4400
8E00
8400
C000
FF80
7F00
3E00
ENDCHAR
STARTCHAR 06FD
ENCODING 1789
SWIDTH 462 0
DWIDTH 9 0
BBX 7 13 1 -3
BITMAP
3C
78
78
C0
E6
7C
30
40
80
28
28
28
28
ENDCHAR
STARTCHAR 06FE
ENCODING 1790
SWIDTH 360 0
DWIDTH 7 0
BBX 6 13 1 -4
BITMAP
30
38
5C
0C
7C
FC
C0
80
94
54
54
54
40
ENDCHAR
STARTCHAR 1E80
ENCODING 7808
SWIDTH 874 0
DWIDTH 17 0
BBX 17 18 0 0
BITMAP
01C000
00C000
006000
000000
E1C380
E1C380
E3E380
73E700
736700
736700
777700
777700
763700
763700
3E3E00
3E3E00
3C1E00
3C1E00
ENDCHAR
STARTCHAR 1E81
ENCODING 7809
SWIDTH 771 0
DWIDTH 15 0
BBX 15 15 0 0
BITMAP
0700
0300
0180
0000
E38E
E38E
638C
77DC
76DC
36D8
36D8
3EF8
3C78
1C70
1C70
ENDCHAR
STARTCHAR 1E82
ENCODING 7810
SWIDTH 874 0
DWIDTH 17 0
BBX 17 18 0 0
BITMAP
00E000
00C000
018000
000000
E1C380
E1C380
E3E380
73E700
736700
736700
777700
777700
763700
763700
3E3E00
3E3E00
3C1E00
3C1E00
ENDCHAR
STARTCHAR 1E83
ENCODING 7811
SWIDTH 771 0
DWIDTH 15 0
BBX 15 15 0 0
BITMAP
01C0
0180
0300
0000
E38E
E38E
638C
77DC
76DC
36D8
36D8
3EF8
3C78
1C70
1C70
ENDCHAR
STARTCHAR 1E84
ENCODING 7812
SWIDTH 874 0
DWIDTH 17 0
BBX 17 17 0 0
BITMAP
033000
033000
000000
E1C380
E1C380
E3E380
73E700
736700
736700
777700
777700
763700
763700
3E3E00
3E3E00
3C1E00
3C1E00
ENDCHAR
STARTCHAR 1E85
ENCODING 7813
SWIDTH 771 0
DWIDTH 15 0
BBX 15 14 0 0
BITMAP
0660
0660
0000
E38E
E38E
638C
77DC
76DC
36D8
36D8
3EF8
3C78
1C70
1C70
ENDCHAR
STARTCHAR 1EA0
ENCODING 7840
SWIDTH 668 0
DWIDTH 13 0
BBX 13 18 0 -4
BITMAP
0F80
0F80
0F80
1DC0
1DC0
1DC0
38E0
38E0
3FE0
7FF0
7FF0
7070
F078
E038
0000
0700
0700
0700
ENDCHAR
STARTCHAR 1EA1
ENCODING 7841
SWIDTH 565 0
DWIDTH 11 0
BBX 10 15 1 -4
BITMAP
3E00
7F00
C380
0780
3F80
7B80
E380
E380
E780
7F80
3DC0
0000
1C00
1C00
1C00
ENDCHAR
STARTCHAR 1EA2
ENCODING 7842
SWIDTH 668 0
DWIDTH 13 0
BBX 13 18 0 0
BITMAP
0700
0100
0200
0000
0F80
0F80
0F80
1DC0
1DC0
1DC0
38E0
38E0
3FE0
7FF0
7FF0
7070
F078
E038
ENDCHAR
STARTCHAR 1EA3
ENCODING 7843
SWIDTH 565 0
DWIDTH 11 0
BBX 10 15 1 0
BITMAP
1C00
0400
0800
0000
3E00
7F00
C380
0780
3F80
7B80
E380
E380
E780
7F80
3DC0
ENDCHAR
STARTCHAR 1EA4
ENCODING 7844
SWIDTH 668 0
DWIDTH 13 0
BBX 13 18 0 0
BITMAP
0180
0300
0700
0D80
0F80
0F80
0F80
1DC0
1DC0
1DC0
38E0
38E0
3FE0
7FF0
7FF0
7070
F078
E038
ENDCHAR
STARTCHAR 1EA5
ENCODING 7845
SWIDTH 565 0
DWIDTH 11 0
BBX 10 18 1 0
BITMAP
0C00
1C00
1800
0000
1C00
3600
0000
3E00
7F00
C380
0780
3F80
7B80
E380
E380
E780
7F80
3DC0
ENDCHAR
STARTCHAR 1EA6
ENCODING 7846
SWIDTH 668 0
DWIDTH 13 0
BBX 13 18 0 0
BITMAP
0600
0300
0700
0D80
0F80
0F80
0F80
1DC0
1DC0
1DC0
38E0
38E0
3FE0
7FF0
7FF0
7070
F078
E038
ENDCHAR
STARTCHAR 1EA7
ENCODING 7847
SWIDTH 565 0
DWIDTH 11 0
BBX 10 18 1 0
BITMAP
1800
0C00
0C00
0000
1C00
3600
0000
3E00
7F00
C380
0780
3F80
7B80
E380
E380
E780
7F80
3DC0
ENDCHAR
STARTCHAR 1EA8
ENCODING 7848
SWIDTH 668 0
DWIDTH 13 0
BBX 13 18 0 0
BITMAP
0700
0200
0700
0D80
0F80
0F80
0F80
1DC0
1DC0
1DC0
38E0
38E0
3FE0
7FF0
7FF0
7070
F078
E038
ENDCHAR
STARTCHAR 1EA9
ENCODING 7849
SWIDTH 565 0
DWIDTH 11 0
BBX 10 18 1 0
BITMAP
1C00
0400
0800
0000
1C00
3600
0000
3E00
7F00
C380
0780
3F80
7B80
E380
E380
E780
7F80
3DC0
ENDCHAR
STARTCHAR 1EAA
ENCODING 7850
SWIDTH 668 0
DWIDTH 13 0
BBX 13 18 0 0
BITMAP
0640
0980
0700
0D80
0F80
0F80
0F80
1DC0
1DC0
1DC0
38E0
38E0
3FE0
7FF0
7FF0
7070
F078
E038
ENDCHAR
STARTCHAR 1EAB
ENCODING 7851
SWIDTH 565 0
DWIDTH 11 0
BBX 10 17 1 0
BITMAP
1900
2600
0000
1C00
3600
0000
3E00
7F00
C380
0780
3F80
7B80
E380
E380
E780
7F80
3DC0
ENDCHAR
STARTCHAR 1EAC
ENCODING 7852
SWIDTH 668 0
DWIDTH 13 0
BBX 13 21 0 -4
BITMAP
0700
0D80
0000
0F80
0F80
0F80
1DC0
1DC0
1DC0
38E0
38E0
3FE0
7FF0
7FF0
7070
F078
E038
0000
0700
0700
0700
ENDCHAR
STARTCHAR 1EAD
ENCODING 7853
SWIDTH 565 0
DWIDTH 11 0
BBX 10 18 1 -4
BITMAP
1C00
3600
0000
3E00
7F00
C380
0780
3F80
7B80
E380
E380
E780
7F80
3DC0
0000
1C00
1C00
1C00
ENDCHAR
STARTCHAR 1EAE
ENCODING 7854
SWIDTH 668 0
DWIDTH 13 0
BBX 13 18 0 0
BITMAP
00C0
0180
0880
0700
0F80
0F80
0F80
1DC0
1DC0
1DC0
38E0
38E0
3FE0
7FF0
7FF0
7070
F078
E038
ENDCHAR
STARTCHAR 1EAF
ENCODING 7855
SWIDTH 565 0
DWIDTH 11 0
BBX 10 18 1 0
BITMAP
0600
0E00
0C00
0000
2100
1E00
0000
3E00
7F00
C380
0780
3F80
7B80
E380
E380
E780
7F80
3DC0
ENDCHAR
STARTCHAR 1EB0
ENCODING 7856
SWIDTH 668 0
DWIDTH 13 0
BBX 13 18 0 0
BITMAP
0600
0300
0880
0700
0F80
0F80
0F80
1DC0
1DC0
1DC0
38E0
38E0
3FE0
7FF0
7FF0
7070
F078
E038
ENDCHAR
STARTCHAR 1EB1
ENCODING 7857
SWIDTH 565 0
DWIDTH 11 0
BBX 10 18 1 0
BITMAP
1800
0C00
0C00
0000
2100
1E00
0000
3E00
7F00
C380
0780
3F80
7B80
E380
E380
E780
7F80
3DC0
ENDCHAR
STARTCHAR 1EB2
ENCODING 7858
SWIDTH 668 0
DWIDTH 13 0
BBX 13 18 0 0
BITMAP
0700
0200
0880
0700
0F80
0F80
0F80
1DC0
1DC0
1DC0
38E0
38E0
3FE0
7FF0
7FF0
7070
F078
E038
ENDCHAR
STARTCHAR 1EB3
ENCODING 7859
SWIDTH 565 0
DWIDTH 11 0
BBX 10 18 1 0
BITMAP
1C00
0400
0800
0000
2100
1E00
0000
3E00
7F00
C380
0780
3F80
7B80
E380
E380
E780
7F80
3DC0
ENDCHAR
STARTCHAR 1EB4
ENCODING 7860
SWIDTH 668 0
DWIDTH 13 0
BBX 13 18 0 0
BITMAP
0640
0980
0880
0700
0F80
0F80
0F80
1DC0
1DC0
1DC0
38E0
38E0
3FE0
7FF0
7FF0
7070
F078
E038
ENDCHAR
STARTCHAR 1EB5
ENCODING 7861
SWIDTH 565 0
DWIDTH 11 0
BBX 10 17 1 0
BITMAP
1900
2600
0000
2100
1E00
0000
3E00
7F00
C380
0780
3F80
7B80
E380
E380
E780
7F80
3DC0
ENDCHAR
STARTCHAR 1EB6
ENCODING 7862
SWIDTH 668 0
DWIDTH 13 0
BBX 13 21 0 -4
BITMAP
0880
0700
0000
0F80
0F80
0F80
1DC0
1DC0
1DC0
38E0
38E0
3FE0
7FF0
7FF0
7070
F078
E038
0000
0700
0700
0700
ENDCHAR
STARTCHAR 1EB7
ENCODING 7863
SWIDTH 565 0
DWIDTH 11 0
BBX 10 18 1 -4
BITMAP
2100
1E00
0000
3E00
7F00
C380
0780
3F80
7B80
E380
E380
E780
7F80
3DC0
0000
1C00
1C00
1C00
ENDCHAR
STARTCHAR 1EB8
ENCODING 7864
SWIDTH 668 0
DWIDTH 13 0
BBX 11 18 1 -4
BITMAP
FFE0
FFE0
FFE0
E000
E000
FFC0
FFC0
FFC0
E000
E000
E000
FFE0
FFE0
FFE0
0000
0E00
0E00
0E00
ENDCHAR
STARTCHAR 1EB9
ENCODING 7865
SWIDTH 565 0
DWIDTH 11 0
BBX 9 15 1 -4
BITMAP
1E00
7F00
7380
E380
FF80
FF80
E000
E000
7380
7F00
1E00
0000
1C00
1C00
1C00
ENDCHAR
STARTCHAR 1EBA
ENCODING 7866
SWIDTH 668 0
DWIDTH 13 0
BBX 11 18 1 0
BITMAP
0E00
0200
0400
0000
FFE0
FFE0
FFE0
E000
E000
FFC0
FFC0
FFC0
E000
E000
E000
FFE0
FFE0
FFE0
ENDCHAR
STARTCHAR 1EBB
ENCODING 7867
SWIDTH 565 0
DWIDTH 11 0
BBX 9 15 1 0
BITMAP
1C00
0400
0800
0000
1E00
7F00
7380
E380
FF80
FF80
E000
E000
7380
7F00
1E00
ENDCHAR
STARTCHAR 1EBC
ENCODING 7868
SWIDTH 668 0
DWIDTH 13 0
BBX 11 18 1 0
BITMAP
0C80
1F80
1300
0000
FFE0
FFE0
FFE0
E000
E000
FFC0
FFC0
FFC0
E000
E000
E000
FFE0
FFE0
FFE0
ENDCHAR
STARTCHAR 1EBD
ENCODING 7869
SWIDTH 565 0
DWIDTH 11 0
BBX 9 15 1 0
BITMAP
1900
3F00
2600
0000
1E00
7F00
7380
E380
FF80
FF80
E000
E000
7380
7F00
1E00
ENDCHAR
STARTCHAR 1EBE
ENCODING 7870
SWIDTH 668 0
DWIDTH 13 0
BBX 11 18 1 0
BITMAP
0300
0600
0E00
1B00
FFE0
FFE0
FFE0
E000
E000
FFC0
FFC0
FFC0
E000
E000
E000
FFE0
FFE0
FFE0
ENDCHAR
STARTCHAR 1EBF
ENCODING 7871
SWIDTH 565 0
DWIDTH 11 0
BBX 9 18 1 0
BITMAP
0C00
1C00
1800
0000
1C00
3600
0000
1E00
7F00
7380
E380
FF80
FF80
E000
E000
7380
7F00
1E00
ENDCHAR
STARTCHAR 1EC0
ENCODING 7872
SWIDTH 668 0
DWIDTH 13 0
BBX 11 18 1 0
BITMAP
0C00
0600
0E00
1B00
FFE0
FFE0
FFE0
E000
E000
FFC0
FFC0
FFC0
E000
E000
E000
FFE0
FFE0
FFE0
ENDCHAR
STARTCHAR 1EC1
ENCODING 7873
SWIDTH 565 0
DWIDTH 11 0
BBX 9 18 1 0
BITMAP
1800
0C00
0C00
0000
1C00
3600
0000
1E00
7F00
7380
E380
FF80
FF80
E000
E000
7380
7F00
1E00
ENDCHAR
STARTCHAR 1EC2
ENCODING 7874
SWIDTH 668 0
DWIDTH 13 0
BBX 11 18 1 0
BITMAP
0E00
0400
0E00
1B00
FFE0
FFE0
FFE0
E000
E000
FFC0
FFC0
FFC0
E000
E000
E000
FFE0
FFE0
FFE0
ENDCHAR
STARTCHAR 1EC3
ENCODING 7875
SWIDTH 565 0
DWIDTH 11 0
BBX 9 18 1 0
BITMAP
1C00
0400
0800
0000
1C00
3600
0000
1E00
7F00
7380
E380
FF80
FF80
E000
E000
7380
7F00
1E00
ENDCHAR
STARTCHAR 1EC4
ENCODING 7876
SWIDTH 668 0
DWIDTH 13 0
BBX 11 18 1 0
BITMAP
0C80
1300
0E00
1B00
FFE0
FFE0
FFE0
E000
E000
FFC0
FFC0
FFC0
E000
E000
E000
FFE0
FFE0
FFE0
ENDCHAR
STARTCHAR 1EC5
ENCODING 7877
SWIDTH 565 0
DWIDTH 11 0
BBX 9 17 1 0
BITMAP
1900
2600
0000
1C00
3600
0000
1E00
7F00
7380
E380
FF80
FF80
E000
E000
7380
7F00
1E00
ENDCHAR
STARTCHAR 1EC6
ENCODING 7878
SWIDTH 668 0
DWIDTH 13 0
BBX 11 21 1 -4
BITMAP
0E00
1B00
0000
FFE0
FFE0
FFE0
E000
E000
FFC0
FFC0
FFC0
E000
E000
E000
FFE0
FFE0
FFE0
0000
0E00
0E00
0E00
ENDCHAR
STARTCHAR 1EC7
ENCODING 7879
SWIDTH 565 0
DWIDTH 11 0
BBX 9 18 1 -4
BITMAP
1C00
3600
0000
1E00
7F00
7380
E380
FF80
FF80
E000
E000
7380
7F00
1E00
0000
1C00
1C00
1C00
ENDCHAR
STARTCHAR 1EC8
ENCODING 7880
SWIDTH 257 0
DWIDTH 5 0
BBX 3 18 1 0
BITMAP
E0
20
40
00
E0
E0
E0
E0
E0
E0
E0
E0
E0
E0
E0
E0
E0
E0
ENDCHAR
STARTCHAR 1EC9
ENCODING 7881
SWIDTH 257 0
DWIDTH 5 0
BBX 3 15 1 0
BITMAP
E0
20
40
00
E0
E0
E0
E0
E0
E0
E0
E0
E0
E0
E0
ENDCHAR
STARTCHAR 1ECA
ENCODING 7882
SWIDTH 257 0
DWIDTH 5 0
BBX 3 18 1 -4
BITMAP
E0
E0
E0
E0
E0
E0
E0
E0
E0
E0
E0
E0
E0
E0
00
E0
E0
E0
ENDCHAR
STARTCHAR 1ECB
ENCODING 7883
SWIDTH 257 0
DWIDTH 5 0
BBX 3 18 1 -4
BITMAP
E0
E0
00
E0
E0
E0
E0
E0
E0
E0
E0
E0
E0
E0
00
E0
E0
E0
ENDCHAR
STARTCHAR 1ECC
ENCODING 7884
SWIDTH 771 0
DWIDTH 15 0
BBX 13 18 1 -4
BITMAP
0F80
3FE0
7FF0
78F0
F078
E038
E038
E038
E038
F078
78F0
7FF0
3FE0
0F80
0000
0700
0700
0700
ENDCHAR
STARTCHAR 1ECD
ENCODING 7885
SWIDTH 617 0
DWIDTH 12 0
BBX 10 15 1 -4
BITMAP
1E00
7F80
7380
E1C0
E1C0
E1C0
E1C0
E1C0
7380
7F80
1E00
0000
0E00
0E00
0E00
ENDCHAR
STARTCHAR 1ECE
ENCODING 7886
SWIDTH 771 0
DWIDTH 15 0
BBX 13 18 1 0
BITMAP
0700
0100
0200
0000
0F80
3FE0
7FF0
78F0
F078
E038
E038
E038
E038
F078
78F0
7FF0
3FE0
0F80
ENDCHAR
STARTCHAR 1ECF
ENCODING 7887
SWIDTH 617 0
DWIDTH 12 0
BBX 10 15 1 0
BITMAP
0E00
0200
0400
0000
1E00
7F80
7380
E1C0
E1C0
E1C0
E1C0
E1C0
7380
7F80
1E00
ENDCHAR
STARTCHAR 1ED0
ENCODING 7888
SWIDTH 771 0
DWIDTH 15 0
BBX 13 18 1 0
BITMAP
0180
0300
0700
0D80
0F80
3FE0
7FF0
78F0
F078
E038
E038
E038
E038
F078
78F0
7FF0
3FE0
0F80
ENDCHAR
STARTCHAR 1ED1
ENCODING 7889
SWIDTH 617 0
DWIDTH 12 0
BBX 10 18 1 0
BITMAP
0600
0E00
0C00
0000
0E00
1B00
0000
1E00
7F80
7380
E1C0
E1C0
E1C0
E1C0
E1C0
7380
7F80
1E00
ENDCHAR
STARTCHAR 1ED2
ENCODING 7890
SWIDTH 771 0
DWIDTH 15 0
BBX 13 18 1 0
BITMAP
0600
0300
0700
0D80
0F80
3FE0
7FF0
78F0
F078
E038
E038
E038
E038
F078
78F0
7FF0
3FE0
0F80
ENDCHAR
STARTCHAR 1ED3
ENCODING 7891
SWIDTH 617 0
DWIDTH 12 0
BBX 10 18 1 0
BITMAP
0C00
0600
0600
0000
0E00
1B00
0000
1E00
7F80
7380
E1C0
E1C0
E1C0
E1C0
E1C0
7380
7F80
1E00
ENDCHAR
STARTCHAR 1ED4
ENCODING 7892
SWIDTH 771 0
DWIDTH 15 0
BBX 13 18 1 0
BITMAP
0700
0200
0700
0D80
0F80
3FE0
7FF0
78F0
F078
E038
E038
E038
E038
F078
78F0
7FF0
3FE0
0F80
ENDCHAR
STARTCHAR 1ED5
ENCODING 7893
SWIDTH 617 0
DWIDTH 12 0
BBX 10 18 1 0
BITMAP
0E00
0200
0400
0000
0E00
1B00
0000
1E00
7F80
7380
E1C0
E1C0
E1C0
E1C0
E1C0
7380
7F80
1E00
ENDCHAR
STARTCHAR 1ED6
ENCODING 7894
SWIDTH 771 0
DWIDTH 15 0
BBX 13 18 1 0
BITMAP
0640
0980
0700
0D80
0F80
3FE0
7FF0
78F0
F078
E038
E038
E038
E038
F078
78F0
7FF0
3FE0
0F80
ENDCHAR
STARTCHAR 1ED7
ENCODING 7895
SWIDTH 617 0
DWIDTH 12 0
BBX 10 17 1 0
BITMAP
0C80
1300
0000
0E00
1B00
0000
1E00
7F80
7380
E1C0
E1C0
E1C0
E1C0
E1C0
7380
7F80
1E00
ENDCHAR
STARTCHAR 1ED8
ENCODING 7896
SWIDTH 771 0
DWIDTH 15 0
BBX 13 21 1 -4
BITMAP
0700
0D80
0000
0F80
3FE0
7FF0
78F0
F078
E038
E038
E038
E038
F078
78F0
7FF0
3FE0
0F80
0000
0700
0700
0700
ENDCHAR
STARTCHAR 1ED9
ENCODING 7897
SWIDTH 617 0
DWIDTH 12 0
BBX 10 18 1 -4
BITMAP
0E00
1B00
0000
1E00
7F80
7380
E1C0
E1C0
E1C0
E1C0
E1C0
7380
7F80
1E00
0000
0E00
0E00
0E00
ENDCHAR
STARTCHAR 1EDA
ENCODING 7898
SWIDTH 822 0
DWIDTH 16 0
BBX 15 18 1 0
BITMAP
0380
0300
0600
0000
0F86
3FE6
7FF6
78F2
F07E
E03C
E038
E038
E038
F078
78F0
7FF0
3FE0
0F80
ENDCHAR
STARTCHAR 1EDB
ENCODING 7899
SWIDTH 720 0
DWIDTH 14 0
BBX 12 15 1 0
BITMAP
0E00
0C00
1800
0000
1E30
7FB0
73B0
E1D0
E1D0
E1E0
E1C0
E1C0
7380
7F80
1E00
ENDCHAR
STARTCHAR 1EDC
ENCODING 7900
SWIDTH 822 0
DWIDTH 16 0
BBX 15 18 1 0
BITMAP
0700
0300
0180
0000
0F86
3FE6
7FF6
78F2
F07E
E03C
E038
E038
E038
F078
78F0
7FF0
3FE0
0F80
ENDCHAR
STARTCHAR 1EDD
ENCODING 7901
SWIDTH 720 0
DWIDTH 14 0
BBX 12 15 1 0
BITMAP
1C00
0C00
0600
0000
1E30
7FB0
73B0
E1D0
E1D0
E1E0
E1C0
E1C0
7380
7F80
1E00
ENDCHAR
STARTCHAR 1EDE
ENCODING 7902
SWIDTH 822 0
DWIDTH 16 0
BBX 15 18 1 0
BITMAP
0700
0100
0200
0000
0F86
3FE6
7FF6
78F2
F07E
E03C
E038
E038
E038
F078
78F0
7FF0
3FE0
0F80
ENDCHAR
STARTCHAR 1EDF
ENCODING 7903
SWIDTH 720 0
DWIDTH 14 0
BBX 12 15 1 0
BITMAP
0E00
0200
0400
0000
1E30
7FB0
73B0
E1D0
E1D0
E1E0
E1C0
E1C0
7380
7F80
1E00
ENDCHAR
STARTCHAR 1EE0
ENCODING 7904
SWIDTH 822 0
DWIDTH 16 0
BBX 15 18 1 0
BITMAP
0640
0FC0
0980
0000
0F86
3FE6
7FF6
78F2
F07E
E03C
E038
E038
E038
F078
78F0
7FF0
3FE0
0F80
ENDCHAR
STARTCHAR 1EE1
ENCODING 7905
SWIDTH 720 0
DWIDTH 14 0
BBX 12 15 1 0
BITMAP
1900
3F00
2600
0000
1E30
7FB0
73B0
E1D0
E1D0
E1E0
E1C0
E1C0
7380
7F80
1E00
ENDCHAR
STARTCHAR 1EE2
ENCODING 7906
SWIDTH 822 0
DWIDTH 16 0
BBX 15 18 1 -4
BITMAP
0F86
3FE6
7FF6
78F2
F07E
E03C
E038
E038
E038
F078
78F0
7FF0
3FE0
0F80
0000
0700
0700
0700
ENDCHAR
STARTCHAR 1EE3
ENCODING 7907
SWIDTH 720 0
DWIDTH 14 0
BBX 12 15 1 -4
BITMAP
1E30
7FB0
73B0
E1D0
E1D0
E1E0
E1C0
E1C0
7380
7F80
1E00
0000
0E00
0E00
0E00
ENDCHAR
STARTCHAR 1EE4
ENCODING 7908
SWIDTH 668 0
DWIDTH 13 0
BBX 11 18 1 -4
BITMAP
E0E0
E0E0
E0E0
E0E0
E0E0
E0E0
E0E0
E0E0
E0E0
E0E0
F1E0
7FC0
7FC0
1F00
0000
0E00
0E00
0E00
ENDCHAR
STARTCHAR 1EE5
ENCODING 7909
SWIDTH 617 0
DWIDTH 12 0
BBX 10 15 1 -4
BITMAP
E1C0
E1C0
E1C0
E1C0
E1C0
E1C0
E1C0
E1C0
E3C0
7FC0
3DC0
0000
0E00
0E00
0E00
ENDCHAR
STARTCHAR 1EE6
ENCODING 7910
SWIDTH 668 0
DWIDTH 13 0
BBX 11 18 1 0
BITMAP
0E00
0200
0400
0000
E0E0
E0E0
E0E0
E0E0
E0E0
E0E0
E0E0
E0E0
E0E0
E0E0
F1E0
7FC0
7FC0
1F00
ENDCHAR
STARTCHAR 1EE7
ENCODING 7911
SWIDTH 617 0
DWIDTH 12 0
BBX 10 15 1 0
BITMAP
0E00
0200
0400
0000
E1C0
E1C0
E1C0
E1C0
E1C0
E1C0
E1C0
E1C0
E3C0
7FC0
3DC0
ENDCHAR
STARTCHAR 1EE8
ENCODING 7912
SWIDTH 822 0
DWIDTH 16 0
BBX 14 18 1 0
BITMAP
0700
0600
0C00
0000
E0EC
E0EC
E0EC
E0E4
E0E8
E0F0
E0E0
E0E0
E0E0
E0E0
F1E0
7FC0
7FC0
1F00
ENDCHAR
STARTCHAR 1EE9
ENCODING 7913
SWIDTH 720 0
DWIDTH 14 0
BBX 13 15 1 0
BITMAP
0700
0600
0C00
0000
E1D8
E1D8
E1D8
E1C8
E1D8
E1E0
E1C0
E1C0
E3C0
7FC0
3DC0
ENDCHAR
STARTCHAR 1EEA
ENCODING 7914
SWIDTH 822 0
DWIDTH 16 0
BBX 14 18 1 0
BITMAP
1C00
0C00
0600
0000
E0EC
E0EC
E0EC
E0E4
E0E8
E0F0
E0E0
E0E0
E0E0
E0E0
F1E0
7FC0
7FC0
1F00
ENDCHAR
STARTCHAR 1EEB
ENCODING 7915
SWIDTH 720 0
DWIDTH 14 0
BBX 13 15 1 0
BITMAP
1C00
0C00
0600
0000
E1D8
E1D8
E1D8
E1C8
E1D8
E1E0
E1C0
E1C0
E3C0
7FC0
3DC0
ENDCHAR
STARTCHAR 1EEC
ENCODING 7916
SWIDTH 822 0
DWIDTH 16 0
BBX 14 18 1 0
BITMAP
0E00
0200
0400
0000
E0EC
E0EC
E0EC
E0E4
E0E8
E0F0
E0E0
E0E0
E0E0
E0E0
F1E0
7FC0
7FC0
1F00
ENDCHAR
STARTCHAR 1EED
ENCODING 7917
SWIDTH 720 0
DWIDTH 14 0
BBX 13 15 1 0
BITMAP
0E00
0200
0400
0000
E1D8
E1D8
E1D8
E1C8
E1D8
E1E0
E1C0
E1C0
E3C0
7FC0
3DC0
ENDCHAR
STARTCHAR 1EEE
ENCODING 7918
SWIDTH 822 0
DWIDTH 16 0
BBX 14 18 1 0
BITMAP
0C80
1F80
1300
0000
E0EC
E0EC
E0EC
E0E4
E0E8
E0F0
E0E0
E0E0
E0E0
E0E0
F1E0
7FC0
7FC0
1F00
ENDCHAR
STARTCHAR 1EEF
ENCODING 7919
SWIDTH 720 0
DWIDTH 14 0
BBX 13 15 1 0
BITMAP
1900
3F00
2600
0000
E1D8
E1D8
E1D8
E1C8
E1D8
E1E0
E1C0
E1C0
E3C0
7FC0
3DC0
ENDCHAR
STARTCHAR 1EF0
ENCODING 7920
SWIDTH 822 0
DWIDTH 16 0
BBX 14 18 1 -4
BITMAP
E0EC
E0EC
E0EC
E0E4
E0E8
E0F0
E0E0
E0E0
E0E0
E0E0
F1E0
7FC0
7FC0
1F00
0000
0E00
0E00
0E00
ENDCHAR
STARTCHAR 1EF1
ENCODING 7921
SWIDTH 720 0
DWIDTH 14 0
BBX 13 15 1 -4
BITMAP
E1D8
E1D8
E1D8
E1C8
E1D8
E1E0
E1C0
E1C0
E3C0
7FC0
3DC0
0000
0E00
0E00
0E00
ENDCHAR
STARTCHAR 1EF2
ENCODING 7922
SWIDTH 668 0
DWIDTH 13 0
BBX 11 18 1 0
BITMAP
1C00
0C00
0600
0000
E0E0
E0E0
71C0
71C0
3B80
1F00
1F00
0E00
0E00
0E00
0E00
0E00
0E00
0E00
ENDCHAR
STARTCHAR 1EF3
ENCODING 7923
SWIDTH 565 0
DWIDTH 11 0
BBX 11 19 0 -4
BITMAP
1C00
0C00
0600
0000
E0E0
E0E0
71C0
71C0
71C0
3B80
3B80
1B00
1F00
1F00
0E00
0E00
1C00
7C00
7800
ENDCHAR
STARTCHAR 1EF4
ENCODING 7924
SWIDTH 668 0
DWIDTH 13 0
BBX 11 18 1 -4
BITMAP
E0E0
E0E0
71C0
71C0
3B80
1F00
1F00
0E00
0E00
0E00
0E00
0E00
0E00
0E00
0000
0E00
0E00
0E00
ENDCHAR
STARTCHAR 1EF5
ENCODING 7925
SWIDTH 565 0
DWIDTH 11 0
BBX 11 15 0 -4
BITMAP
E0E0
E0E0
71C0
71C0
71C0
3B80
3B80
1B00
1F00
1F00
0E00
0E00
1CE0
7CE0
78E0
ENDCHAR
STARTCHAR 1EF6
ENCODING 7926
SWIDTH 668 0
DWIDTH 13 0
BBX 11 18 1 0
BITMAP
0E00
0200
0400
0000
E0E0
E0E0
71C0
71C0
3B80
1F00
1F00
0E00
0E00
0E00
0E00
0E00
0E00
0E00
ENDCHAR
STARTCHAR 1EF7
ENCODING 7927
SWIDTH 565 0
DWIDTH 11 0
BBX 11 19 0 -4
BITMAP
0E00
0200
0400
0000
E0E0
E0E0
71C0
71C0
71C0
3B80
3B80
1B00
1F00
1F00
0E00
0E00
1C00
7C00
7800
ENDCHAR
STARTCHAR 1EF8
ENCODING 7928
SWIDTH 668 0
DWIDTH 13 0
BBX 11 18 1 0
BITMAP
0C80
1F80
1300
0000
E0E0
E0E0
71C0
71C0
3B80
1F00
1F00
0E00
0E00
0E00
0E00
0E00
0E00
0E00
ENDCHAR
STARTCHAR 1EF9
ENCODING 7929
SWIDTH 565 0
DWIDTH 11 0
BBX 11 19 0 -4
BITMAP
0C80
1F80
1300
0000
E0E0
E0E0
71C0
71C0
71C0
3B80
3B80
1B00
1F00
1F00
0E00
0E00
1C00
7C00
7800
ENDCHAR
STARTCHAR 200C
ENCODING 8204
SWIDTH 0 0
DWIDTH 0 0
BBX 1 15 0 -3
BITMAP
80
80
80
80
80
80
80
80
80
80
80
80
80
80
80
ENDCHAR
STARTCHAR 200D
ENCODING 8205
SWIDTH 0 0
DWIDTH 0 0
BBX 5 17 -2 -3
BITMAP
88
50
20
70
A8
20
20
20
20
20
20
20
20
20
20
20
20
ENDCHAR
STARTCHAR 200E
ENCODING 8206
SWIDTH 0 0
DWIDTH 0 0
BBX 5 16 0 -3
BITMAP
20
10
F8
90
A0
80
80
80
80
80
80
80
80
80
80
80
ENDCHAR
STARTCHAR 200F
ENCODING 8207
SWIDTH 0 0
DWIDTH 0 0
BBX 5 16 -4 -3
BITMAP
20
40
F8
48
28
08
08
08
08
08
08
08
08
08
08
08
ENDCHAR
STARTCHAR 2013
ENCODING 8211
SWIDTH 565 0
DWIDTH 11 0
BBX 11 2 0 4
BITMAP
FFE0
FFE0
ENDCHAR
STARTCHAR 2014
ENCODING 8212
SWIDTH 977 0
DWIDTH 19 0
BBX 19 2 0 4
BITMAP
FFFFE0
FFFFE0
ENDCHAR
STARTCHAR 2015
ENCODING 8213
SWIDTH 977 0
DWIDTH 19 0
BBX 17 2 1 4
BITMAP
FFFF80
FFFF80
ENDCHAR
STARTCHAR 2017
ENCODING 8215
SWIDTH 565 0
DWIDTH 11 0
BBX 11 6 0 -8
BITMAP
FFE0
FFE0
0000
0000
FFE0
FFE0
ENDCHAR
STARTCHAR 2018
ENCODING 8216
SWIDTH 257 0
DWIDTH 5 0
BBX 3 6 1 8
BITMAP
60
C0
80
E0
E0
E0
ENDCHAR
STARTCHAR 2019
ENCODING 8217
SWIDTH 257 0
DWIDTH 5 0
BBX 3 6 1 8
BITMAP
E0
E0
E0
20
60
C0
ENDCHAR
STARTCHAR 201A
ENCODING 8218
SWIDTH 257 0
DWIDTH 5 0
BBX 3 6 1 -3
BITMAP
E0
E0
E0
20
60
C0
ENDCHAR
STARTCHAR 201B
ENCODING 8219
SWIDTH 257 0
DWIDTH 5 0
BBX 3 6 1 8
BITMAP
E0
E0
E0
80
C0
60
ENDCHAR
STARTCHAR 201C
ENCODING 8220
SWIDTH 514 0
DWIDTH 10 0
BBX 8 6 1 8
BITMAP
63
C6
84
E7
E7
E7
ENDCHAR
STARTCHAR 201D
ENCODING 8221
SWIDTH 514 0
DWIDTH 10 0
BBX 8 6 1 8
BITMAP
E7
E7
E7
21
63
C6
ENDCHAR
STARTCHAR 201E
ENCODING 8222
SWIDTH 514 0
DWIDTH 10 0
BBX 8 6 1 -3
BITMAP
E7
E7
E7
21
63
C6
ENDCHAR
STARTCHAR 2020
ENCODING 8224
SWIDTH 565 0
DWIDTH 11 0
BBX 9 17 1 -3
BITMAP
1C00
1C00
1C00
1C00
FF80
FF80
FF80
1C00
1C00
1C00
1C00
1C00
1C00
1C00
1C00
1C00
1C00
ENDCHAR
STARTCHAR 2021
ENCODING 8225
SWIDTH 565 0
DWIDTH 11 0
BBX 11 17 0 -3
BITMAP
0E00
0E00
0E00
FFE0
FFE0
FFE0
0E00
0E00
0E00
0E00
0E00
FFE0
FFE0
FFE0
0E00
0E00
0E00
ENDCHAR
STARTCHAR 2022
ENCODING 8226
SWIDTH 360 0
DWIDTH 7 0
BBX 5 5 0 4
BITMAP
70
F8
F8
F8
70
ENDCHAR
STARTCHAR 2026
ENCODING 8230
SWIDTH 977 0
DWIDTH 19 0
BBX 17 3 2 0
BITMAP
E1C380
E1C380
E1C380
ENDCHAR
STARTCHAR 202A
ENCODING 8234
SWIDTH 0 0
DWIDTH 0 0
BBX 5 14 0 -3
BITMAP
F8
80
80
80
80
80
80
80
80
80
80
80
80
80
ENDCHAR
STARTCHAR 202B
ENCODING 8235
SWIDTH 0 0
DWIDTH 0 0
BBX 5 14 -4 -3
BITMAP
F8
08
08
08
08
08
08
08
08
08
08
08
08
08
ENDCHAR
STARTCHAR 202C
ENCODING 8236
SWIDTH 0 0
DWIDTH 0 0
BBX 5 16 -2 -3
BITMAP
F8
F8
F8
F8
20
20
20
20
20
20
20
20
20
20
20
20
ENDCHAR
STARTCHAR 202D
ENCODING 8237
SWIDTH 0 0
DWIDTH 0 0
BBX 5 17 -2 -3
BITMAP
F8
80
80
80
F8
20
20
20
20
20
20
20
20
20
20
20
20
ENDCHAR
STARTCHAR 202E
ENCODING 8238
SWIDTH 0 0
DWIDTH 0 0
BBX 5 17 -2 -3
BITMAP
F8
08
08
08
F8
20
20
20
20
20
20
20
20
20
20
20
20
ENDCHAR
STARTCHAR 2030
ENCODING 8240
SWIDTH 1080 0
DWIDTH 21 0
BBX 21 15 0 -1
BITMAP
786000
CCC000
CCC000
CCC000
CD8000
CD8000
7B0000
030000
0378F0
06CD98
06CD98
0CCD98
0CCD98
0CCD98
1878F0
ENDCHAR
STARTCHAR 2032
ENCODING 8242
SWIDTH 257 0
DWIDTH 5 0
BBX 4 5 1 9
BITMAP
70
E0
E0
E0
C0
ENDCHAR
STARTCHAR 2033
ENCODING 8243
SWIDTH 462 0
DWIDTH 9 0
BBX 8 5 1 9
BITMAP
77
EE
EE
EE
CC
ENDCHAR
STARTCHAR 2039
ENCODING 8249
SWIDTH 308 0
DWIDTH 6 0
BBX 5 9 0 1
BITMAP
18
30
70
60
E0
60
70
30
18
ENDCHAR
STARTCHAR 203A
ENCODING 8250
SWIDTH 308 0
DWIDTH 6 0
BBX 5 9 1 1
BITMAP
C0
60
70
30
38
30
70
60
C0
ENDCHAR
STARTCHAR 203C
ENCODING 8252
SWIDTH 565 0
DWIDTH 11 0
BBX 8 14 2 0
BITMAP
E7
E7
E7
E7
E7
E7
E7
E7
42
42
00
E7
E7
E7
ENDCHAR
STARTCHAR 203E
ENCODING 8254
SWIDTH 308 0
DWIDTH 6 0
BBX 6 2 0 11
BITMAP
FC
FC
ENDCHAR
STARTCHAR 2044
ENCODING 8260
SWIDTH 154 0
DWIDTH 3 0
BBX 8 15 -2 -1
BITMAP
01
01
02
02
04
08
08
10
10
20
20
40
40
80
80
ENDCHAR
STARTCHAR 206A
ENCODING 8298
SWIDTH 0 0
DWIDTH 0 0
BBX 5 17 -2 -3
BITMAP
F8
20
20
20
F8
20
20
20
20
20
20
20
20
20
20
20
20
ENDCHAR
STARTCHAR 206B
ENCODING 8299
SWIDTH 0 0
DWIDTH 0 0
BBX 5 17 -2 -3
BITMAP
F8
88
88
88
F8
20
20
20
20
20
20
20
20
20
20
20
20
ENDCHAR
STARTCHAR 206C
ENCODING 8300
SWIDTH 0 0
DWIDTH 0 0
BBX 5 16 -2 -3
BITMAP
F8
70
20
20
20
20
20
20
20
20
20
20
20
20
20
20
ENDCHAR
STARTCHAR 206D
ENCODING 8301
SWIDTH 0 0
DWIDTH 0 0
BBX 5 16 -2 -3
BITMAP
20
20
70
F8
20
20
20
20
20
20
20
20
20
20
20
20
ENDCHAR
STARTCHAR 206E
ENCODING 8302
SWIDTH 0 0
DWIDTH 0 0
BBX 5 17 -2 -3
BITMAP
20
50
88
50
20
20
20
20
20
20
20
20
20
20
20
20
20
ENDCHAR
STARTCHAR 206F
ENCODING 8303
SWIDTH 0 0
DWIDTH 0 0
BBX 5 17 -2 -3
BITMAP
E0
20
20
20
F8
20
20
20
20
20
20
20
20
20
20
20
20
ENDCHAR
STARTCHAR 207F
ENCODING 8319
SWIDTH 411 0
DWIDTH 8 0
BBX 6 6 1 5
BITMAP
F8
CC
CC
CC
CC
CC
ENDCHAR
STARTCHAR 20A3
ENCODING 8355
SWIDTH 565 0
DWIDTH 11 0
BBX 10 14 0 0
BITMAP
7FC0
7FC0
7FC0
7000
7000
7F80
7F80
7F80
7000
FC00
FC00
FC00
7000
7000
ENDCHAR
STARTCHAR 20A4
ENCODING 8356
SWIDTH 565 0
DWIDTH 11 0
BBX 11 14 0 0
BITMAP
1F00
3F80
73C0
71C0
7000
FE00
FE00
3800
FE00
FE00
3000
7C40
FFE0
43C0
ENDCHAR
STARTCHAR 20A7
ENCODING 8359
SWIDTH 1131 0
DWIDTH 22 0
BBX 22 14 0 0
BITMAP
FE3800
FF3800
E7B800
E3FFF0
E3FFFC
E3BB9C
E73B80
FF3BE0
FE39F8
E0387C
E0381C
E03B9C
E03FF8
E01DF0
ENDCHAR
STARTCHAR 20AA
ENCODING 8362
SWIDTH 822 0
DWIDTH 16 0
BBX 14 11 1 0
BITMAP
FF8C
FFCC
C0CC
C0CC
CCCC
CCCC
CCCC
CC0C
CC0C
CFFC
CFF8
ENDCHAR
STARTCHAR 20AB
ENCODING 8363
SWIDTH 514 0
DWIDTH 10 0
BBX 8 12 1 2
BITMAP
06
1F
06
7E
C6
C6
C6
C6
EE
7E
00
FF
ENDCHAR
STARTCHAR 20AC
ENCODING 8364
SWIDTH 565 0
DWIDTH 11 0
BBX 10 14 0 0
BITMAP
07C0
1FC0
3FC0
3840
7000
FF80
7000
FF00
7000
7000
3840
3FC0
1FC0
07C0
ENDCHAR
STARTCHAR 2105
ENCODING 8453
SWIDTH 874 0
DWIDTH 17 0
BBX 16 14 0 0
BITMAP
7830
CC30
C060
C0E0
C0C0
CD80
7980
031C
0336
0663
0E63
0C63
1836
181C
ENDCHAR
STARTCHAR 2113
ENCODING 8467
SWIDTH 462 0
DWIDTH 9 0
BBX 8 14 0 0
BITMAP
1E
3F
33
73
77
76
7E
78
F0
70
70
71
3F
1E
ENDCHAR
STARTCHAR 2116
ENCODING 8470
SWIDTH 1080 0
DWIDTH 21 0
BBX 19 14 1 0
BITMAP
E0E000
F0E000
F0E380
F8E7C0
FCEC60
FCEC60
EEEC60
EEEC60
E7E7C0
E7E380
E3E000
E1EFE0
E1EFE0
E0E000
ENDCHAR
STARTCHAR 2122
ENCODING 8482
SWIDTH 977 0
DWIDTH 19 0
BBX 16 8 2 6
BITMAP
FDC7
31C7
31EF
31AB
31AB
31BB
3193
3193
ENDCHAR
STARTCHAR 2126
ENCODING 8486
SWIDTH 771 0
DWIDTH 15 0
BBX 14 14 1 0
BITMAP
0FC0
3FF0
7FF8
7878
F03C
E01C
E01C
E01C
E01C
7038
3870
FCFC
FCFC
FCFC
ENDCHAR
STARTCHAR 212E
ENCODING 8494
SWIDTH 565 0
DWIDTH 11 0
BBX 9 11 1 0
BITMAP
3C00
6300
4100
C180
C180
FF80
C000
C000
4080
6100
1E00
ENDCHAR
STARTCHAR 2153
ENCODING 8531
SWIDTH 822 0
DWIDTH 16 0
BBX 14 14 1 0
BITMAP
3060
70C0
F0C0
3180
3180
3300
3300
0678
06CC
0C0C
0C38
180C
18CC
3078
ENDCHAR
STARTCHAR 2154
ENCODING 8532
SWIDTH 822 0
DWIDTH 16 0
BBX 15 14 0 0
BITMAP
7030
D860
1860
38C0
70C0
E180
FB80
033C
0666
0606
0C1C
0C06
1866
183C
ENDCHAR
STARTCHAR 215B
ENCODING 8539
SWIDTH 822 0
DWIDTH 16 0
BBX 14 14 1 0
BITMAP
3060
70C0
F0C0
3180
3180
3300
3300
0678
06CC
0CCC
0C78
18CC
18CC
3078
ENDCHAR
STARTCHAR 215C
ENCODING 8540
SWIDTH 822 0
DWIDTH 16 0
BBX 15 14 0 0
BITMAP
7830
CC60
0C60
38C0
0CC0
CD80
7980
033C
0366
0666
0C3C
0C66
1866
183C
ENDCHAR
STARTCHAR 215D
ENCODING 8541
SWIDTH 822 0
DWIDTH 16 0
BBX 15 14 0 0
BITMAP
7C30
4060
F860
CCC0
0CC0
CD80
7B00
033C
0666
0666
0C3C
0C66
1866
183C
ENDCHAR
STARTCHAR 215E
ENCODING 8542
SWIDTH 822 0
DWIDTH 16 0
BBX 15 14 0 0
BITMAP
F860
1060
30C0
31C0
6180
6300
6300
063C
0666
0C66
183C
1866
3066
303C
ENDCHAR
STARTCHAR 2190
ENCODING 8592
SWIDTH 977 0
DWIDTH 19 0
BBX 17 6 1 2
BITMAP
100000
200000
600000
FFFF80
600000
100000
ENDCHAR
STARTCHAR 2191
ENCODING 8593
SWIDTH 514 0
DWIDTH 10 0
BBX 7 16 1 -4
BITMAP
10
38
7C
D2
10
10
10
10
10
10
10
10
10
10
10
10
ENDCHAR
STARTCHAR 2192
ENCODING 8594
SWIDTH 977 0
DWIDTH 19 0
BBX 17 6 1 2
BITMAP
000400
000200
000300
FFFF80
000200
000400
ENDCHAR
STARTCHAR 2193
ENCODING 8595
SWIDTH 514 0
DWIDTH 10 0
BBX 7 16 1 -4
BITMAP
10
10
10
10
10
10
10
10
10
10
10
90
56
3C
18
10
ENDCHAR
STARTCHAR 2194
ENCODING 8596
SWIDTH 977 0
DWIDTH 19 0
BBX 17 7 1 1
BITMAP
100400
200200
600300
FFFF80
600300
100400
100400
ENDCHAR
STARTCHAR 2195
ENCODING 8597
SWIDTH 514 0
DWIDTH 10 0
BBX 7 18 1 -4
BITMAP
10
18
38
74
92
10
10
10
10
10
10
10
10
90
56
3C
18
10
ENDCHAR
STARTCHAR 21A8
ENCODING 8616
SWIDTH 514 0
DWIDTH 10 0
BBX 7 20 1 -6
BITMAP
10
18
38
74
92
10
10
10
10
10
10
10
10
90
56
3C
18
10
00
FE
ENDCHAR
STARTCHAR 2202
ENCODING 8706
SWIDTH 462 0
DWIDTH 9 0
BBX 8 14 0 0
BITMAP
0E
1E
33
21
01
0F
3F
71
E1
C2
C2
C6
FC
78
ENDCHAR
STARTCHAR 2206
ENCODING 8710
SWIDTH 565 0
DWIDTH 11 0
BBX 11 15 0 0
BITMAP
0400
0400
0400
0E00
0E00
1300
1300
1300
2180
2180
4180
40C0
40C0
8060
FFE0
ENDCHAR
STARTCHAR 220F
ENCODING 8719
SWIDTH 822 0
DWIDTH 16 0
BBX 13 18 1 -4
BITMAP
FFF8
FFF8
C018
C018
C018
C018
C018
C018
C018
C018
C018
C018
C018
C018
C018
C018
C018
C018
ENDCHAR
STARTCHAR 2211
ENCODING 8721
SWIDTH 720 0
DWIDTH 14 0
BBX 11 18 2 -4
BITMAP
FFE0
FFE0
C000
6000
3000
1800
0C00
0600
0700
0600
0C00
1800
1800
3000
6000
C000
FFE0
FFE0
ENDCHAR
STARTCHAR 2212
ENCODING 8722
SWIDTH 565 0
DWIDTH 11 0
BBX 9 3 1 6
BITMAP
FF80
FF80
FF80
ENDCHAR
STARTCHAR 2215
ENCODING 8725
SWIDTH 154 0
DWIDTH 3 0
BBX 8 15 -2 -1
BITMAP
01
01
02
02
04
08
08
10
10
20
20
40
40
80
80
ENDCHAR
STARTCHAR 2219
ENCODING 8729
SWIDTH 257 0
DWIDTH 5 0
BBX 3 3 1 5
BITMAP
E0
E0
E0
ENDCHAR
STARTCHAR 221A
ENCODING 8730
SWIDTH 565 0
DWIDTH 11 0
BBX 10 18 1 0
BITMAP
0040
0040
0040
0080
0080
0080
0080
2080
5080
9180
0900
0900
0900
0500
0500
0300
0200
0200
ENDCHAR
STARTCHAR 221E
ENCODING 8734
SWIDTH 720 0
DWIDTH 14 0
BBX 10 6 2 5
BITMAP
0380
7440
8840
8840
7440
0380
ENDCHAR
STARTCHAR 221F
ENCODING 8735
SWIDTH 977 0
DWIDTH 19 0
BBX 12 12 3 0
BITMAP
8000
8000
8000
8000
8000
8000
8000
8000
8000
8000
8000
FFF0
ENDCHAR
STARTCHAR 2229
ENCODING 8745
SWIDTH 720 0
DWIDTH 14 0
BBX 12 14 1 0
BITMAP
0F00
3FC0
70E0
E070
C030
C030
C030
C030
C030
C030
C030
C030
C030
C030
ENDCHAR
STARTCHAR 222B
ENCODING 8747
SWIDTH 257 0
DWIDTH 5 0
BBX 5 19 0 -2
BITMAP
18
28
20
20
20
20
20
20
20
20
20
20
20
20
20
20
20
C0
C0
ENDCHAR
STARTCHAR 2248
ENCODING 8776
SWIDTH 514 0
DWIDTH 10 0
BBX 9 9 0 3
BITMAP
7880
FF80
FF80
8F00
0000
7880
FF80
FF80
8F00
ENDCHAR
STARTCHAR 2260
ENCODING 8800
SWIDTH 514 0
DWIDTH 10 0
BBX 10 14 0 0
BITMAP
0380
0300
0300
FFC0
FFC0
FFC0
0C00
0C00
FFC0
FFC0
FFC0
3000
3000
6000
ENDCHAR
STARTCHAR 2261
ENCODING 8801
SWIDTH 565 0
DWIDTH 11 0
BBX 9 13 1 -1
BITMAP
FF80
FF80
FF80
0000
0000
FF80
FF80
FF80
0000
0000
FF80
FF80
FF80
ENDCHAR
STARTCHAR 2264
ENCODING 8804
SWIDTH 514 0
DWIDTH 10 0
BBX 9 14 0 0
BITMAP
0080
0380
1F80
7E00
F000
F000
7E00
1F80
0380
0080
0000
FF80
FF80
FF80
ENDCHAR
STARTCHAR 2265
ENCODING 8805
SWIDTH 514 0
DWIDTH 10 0
BBX 9 14 0 0
BITMAP
8000
E000
FC00
3F00
0780
0780
3F00
FC00
E000
8000
0000
FF80
FF80
FF80
ENDCHAR
STARTCHAR 2302
ENCODING 8962
SWIDTH 565 0
DWIDTH 11 0
BBX 9 10 1 0
BITMAP
0C00
1200
2100
4100
8080
8080
8080
8080
8080
FF80
ENDCHAR
STARTCHAR 2310
ENCODING 8976
SWIDTH 565 0
DWIDTH 11 0
BBX 10 7 1 4
BITMAP
FFC0
FFC0
FFC0
E000
E000
E000
E000
ENDCHAR
STARTCHAR 2320
ENCODING 8992
SWIDTH 565 0
DWIDTH 11 0
BBX 4 21 5 -5
BITMAP
70
90
80
80
80
80
80
80
80
80
80
80
80
80
80
80
80
80
80
80
80
ENDCHAR
STARTCHAR 2321
ENCODING 8993
SWIDTH 565 0
DWIDTH 11 0
BBX 4 21 2 -5
BITMAP
10
10
10
10
10
10
10
10
10
10
10
10
10
10
10
10
10
10
10
D0
60
ENDCHAR
STARTCHAR 2500
ENCODING 9472
SWIDTH 668 0
DWIDTH 13 0
BBX 14 2 0 5
BITMAP
FFFC
FFFC
ENDCHAR
STARTCHAR 2502
ENCODING 9474
SWIDTH 617 0
DWIDTH 12 0
BBX 2 23 4 -6
BITMAP
C0
C0
C0
C0
C0
C0
C0
C0
C0
C0
C0
C0
C0
C0
C0
C0
C0
C0
C0
C0
C0
C0
C0
ENDCHAR
STARTCHAR 250C
ENCODING 9484
SWIDTH 668 0
DWIDTH 13 0
BBX 8 13 6 -6
BITMAP
FF
FF
C0
C0
C0
C0
C0
C0
C0
C0
C0
C0
C0
ENDCHAR
STARTCHAR 2510
ENCODING 9488
SWIDTH 668 0
DWIDTH 13 0
BBX 8 13 0 -6
BITMAP
FF
FF
03
03
03
03
03
03
03
03
03
03
03
ENDCHAR
STARTCHAR 2514
ENCODING 9492
SWIDTH 668 0
DWIDTH 13 0
BBX 8 12 6 5
BITMAP
C0
C0
C0
C0
C0
C0
C0
C0
C0
C0
FF
FF
ENDCHAR
STARTCHAR 2518
ENCODING 9496
SWIDTH 668 0
DWIDTH 13 0
BBX 8 12 0 5
BITMAP
03
03
03
03
03
03
03
03
03
03
FF
FF
ENDCHAR
STARTCHAR 251C
ENCODING 9500
SWIDTH 668 0
DWIDTH 13 0
BBX 8 23 6 -6
BITMAP
C0
C0
C0
C0
C0
C0
C0
C0
C0
C0
FF
FF
C0
C0
C0
C0
C0
C0
C0
C0
C0
C0
C0
ENDCHAR
STARTCHAR 2524
ENCODING 9508
SWIDTH 668 0
DWIDTH 13 0
BBX 8 23 0 -6
BITMAP
03
03
03
03
03
03
03
03
03
03
FF
FF
03
03
03
03
03
03
03
03
03
03
03
ENDCHAR
STARTCHAR 252C
ENCODING 9516
SWIDTH 668 0
DWIDTH 13 0
BBX 14 13 0 -6
BITMAP
FFFC
FFFC
0300
0300
0300
0300
0300
0300
0300
0300
0300
0300
0300
ENDCHAR
STARTCHAR 2534
ENCODING 9524
SWIDTH 668 0
DWIDTH 13 0
BBX 14 12 0 5
BITMAP
0300
0300
0300
0300
0300
0300
0300
0300
0300
0300
FFFC
FFFC
ENDCHAR
STARTCHAR 253C
ENCODING 9532
SWIDTH 668 0
DWIDTH 13 0
BBX 14 23 0 -6
BITMAP
0300
0300
0300
0300
0300
0300
0300
0300
0300
0300
FFFC
FFFC
0300
0300
0300
0300
0300
0300
0300
0300
0300
0300
0300
ENDCHAR
STARTCHAR 2550
ENCODING 9552
SWIDTH 668 0
DWIDTH 13 0
BBX 14 5 0 3
BITMAP
FFFC
0000
0000
FFFC
FFFC
ENDCHAR
STARTCHAR 2551
ENCODING 9553
SWIDTH 668 0
DWIDTH 13 0
BBX 5 23 4 -6
BITMAP
C8
C8
C8
C8
C8
C8
C8
C8
C8
C8
C8
C8
C8
C8
C8
C8
C8
C8
C8
C8
C8
C8
C8
ENDCHAR
STARTCHAR 2552
ENCODING 9554
SWIDTH 668 0
DWIDTH 13 0
BBX 8 14 6 -6
BITMAP
FF
C0
C0
FF
FF
C0
C0
C0
C0
C0
C0
C0
C0
C0
ENDCHAR
STARTCHAR 2553
ENCODING 9555
SWIDTH 668 0
DWIDTH 13 0
BBX 10 13 4 -6
BITMAP
FFC0
FFC0
C800
C800
C800
C800
C800
C800
C800
C800
C800
C800
C800
ENDCHAR
STARTCHAR 2554
ENCODING 9556
SWIDTH 668 0
DWIDTH 13 0
BBX 10 14 4 -6
BITMAP
FFC0
C000
C000
CFC0
CFC0
C800
C800
C800
C800
C800
C800
C800
C800
C800
ENDCHAR
STARTCHAR 2555
ENCODING 9557
SWIDTH 668 0
DWIDTH 13 0
BBX 8 14 0 -6
BITMAP
FF
03
03
FF
FF
03
03
03
03
03
03
03
03
03
ENDCHAR
STARTCHAR 2556
ENCODING 9558
SWIDTH 668 0
DWIDTH 13 0
BBX 9 13 0 -6
BITMAP
FF80
FF80
0C80
0C80
0C80
0C80
0C80
0C80
0C80
0C80
0C80
0C80
0C80
ENDCHAR
STARTCHAR 2557
ENCODING 9559
SWIDTH 668 0
DWIDTH 13 0
BBX 9 14 0 -6
BITMAP
FF80
0080
0080
FC80
FC80
0C80
0C80
0C80
0C80
0C80
0C80
0C80
0C80
0C80
ENDCHAR
STARTCHAR 2558
ENCODING 9560
SWIDTH 668 0
DWIDTH 13 0
BBX 8 14 6 3
BITMAP
C0
C0
C0
C0
C0
C0
C0
C0
C0
FF
C0
C0
FF
FF
ENDCHAR
STARTCHAR 2559
ENCODING 9561
SWIDTH 668 0
DWIDTH 13 0
BBX 10 12 4 5
BITMAP
C800
C800
C800
C800
C800
C800
C800
C800
C800
C800
FFC0
FFC0
ENDCHAR
STARTCHAR 255A
ENCODING 9562
SWIDTH 668 0
DWIDTH 13 0
BBX 10 14 4 3
BITMAP
C800
C800
C800
C800
C800
C800
C800
C800
C800
CFC0
C000
C000
FFC0
FFC0
ENDCHAR
STARTCHAR 255B
ENCODING 9563
SWIDTH 668 0
DWIDTH 13 0
BBX 8 14 0 3
BITMAP
03
03
03
03
03
03
03
03
03
FF
03
03
FF
FF
ENDCHAR
STARTCHAR 255C
ENCODING 9564
SWIDTH 668 0
DWIDTH 13 0
BBX 9 12 0 5
BITMAP
0C80
0C80
0C80
0C80
0C80
0C80
0C80
0C80
0C80
0C80
FF80
FF80
ENDCHAR
STARTCHAR 255D
ENCODING 9565
SWIDTH 668 0
DWIDTH 13 0
BBX 9 14 0 3
BITMAP
0C80
0C80
0C80
0C80
0C80
0C80
0C80
0C80
0C80
FC80
0080
0080
FF80
FF80
ENDCHAR
STARTCHAR 255E
ENCODING 9566
SWIDTH 668 0
DWIDTH 13 0
BBX 8 23 6 -6
BITMAP
C0
C0
C0
C0
C0
C0
C0
C0
C0
FF
C0
C0
FF
FF
C0
C0
C0
C0
C0
C0
C0
C0
C0
ENDCHAR
STARTCHAR 255F
ENCODING 9567
SWIDTH 668 0
DWIDTH 13 0
BBX 10 23 4 -6
BITMAP
C800
C800
C800
C800
C800
C800
C800
C800
C800
C800
CFC0
CFC0
C800
C800
C800
C800
C800
C800
C800
C800
C800
C800
C800
ENDCHAR
STARTCHAR 2560
ENCODING 9568
SWIDTH 668 0
DWIDTH 13 0
BBX 10 23 4 -6
BITMAP
C800
C800
C800
C800
C800
C800
C800
C800
C800
CFC0
C000
C000
CFC0
CFC0
C800
C800
C800
C800
C800
C800
C800
C800
C800
ENDCHAR
STARTCHAR 2561
ENCODING 9569
SWIDTH 668 0
DWIDTH 13 0
BBX 8 23 0 -6
BITMAP
03
03
03
03
03
03
03
03
03
FF
03
03
FF
FF
03
03
03
03
03
03
03
03
03
ENDCHAR
STARTCHAR 2562
ENCODING 9570
SWIDTH 668 0
DWIDTH 13 0
BBX 9 23 0 -6
BITMAP
0C80
0C80
0C80
0C80
0C80
0C80
0C80
0C80
0C80
0C80
FC80
FC80
0C80
0C80
0C80
0C80
0C80
0C80
0C80
0C80
0C80
0C80
0C80
ENDCHAR
STARTCHAR 2563
ENCODING 9571
SWIDTH 668 0
DWIDTH 13 0
BBX 9 23 0 -6
BITMAP
0C80
0C80
0C80
0C80
0C80
0C80
0C80
0C80
0C80
FC80
0080
0080
FC80
FC80
0C80
0C80
0C80
0C80
0C80
0C80
0C80
0C80
0C80
ENDCHAR
STARTCHAR 2564
ENCODING 9572
SWIDTH 668 0
DWIDTH 13 0
BBX 14 14 0 -6
BITMAP
FFFC
0000
0000
FFFC
FFFC
0300
0300
0300
0300
0300
0300
0300
0300
0300
ENDCHAR
STARTCHAR 2565
ENCODING 9573
SWIDTH 668 0
DWIDTH 13 0
BBX 14 13 0 -6
BITMAP
FFFC
FFFC
0C80
0C80
0C80
0C80
0C80
0C80
0C80
0C80
0C80
0C80
0C80
ENDCHAR
STARTCHAR 2566
ENCODING 9574
SWIDTH 668 0
DWIDTH 13 0
BBX 14 14 0 -6
BITMAP
FFFC
0000
0000
FCFC
FCFC
0C80
0C80
0C80
0C80
0C80
0C80
0C80
0C80
0C80
ENDCHAR
STARTCHAR 2567
ENCODING 9575
SWIDTH 668 0
DWIDTH 13 0
BBX 14 14 0 3
BITMAP
0300
0300
0300
0300
0300
0300
0300
0300
0300
FFFC
0000
0000
FFFC
FFFC
ENDCHAR
STARTCHAR 2568
ENCODING 9576
SWIDTH 668 0
DWIDTH 13 0
BBX 14 12 0 5
BITMAP
0C80
0C80
0C80
0C80
0C80
0C80
0C80
0C80
0C80
0C80
FFFC
FFFC
ENDCHAR
STARTCHAR 2569
ENCODING 9577
SWIDTH 668 0
DWIDTH 13 0
BBX 14 14 0 3
BITMAP
0C80
0C80
0C80
0C80
0C80
0C80
0C80
0C80
0C80
FCFC
0000
0000
FFFC
FFFC
ENDCHAR
STARTCHAR 256A
ENCODING 9578
SWIDTH 668 0
DWIDTH 13 0
BBX 14 23 0 -6
BITMAP
0300
0300
0300
0300
0300
0300
0300
0300
0300
FFFC
0300
0300
FFFC
FFFC
0300
0300
0300
0300
0300
0300
0300
0300
0300
ENDCHAR
STARTCHAR 256B
ENCODING 9579
SWIDTH 668 0
DWIDTH 13 0
BBX 14 23 0 -6
BITMAP
0C80
0C80
0C80
0C80
0C80
0C80
0C80
0C80
0C80
0C80
FFFC
FFFC
0C80
0C80
0C80
0C80
0C80
0C80
0C80
0C80
0C80
0C80
0C80
ENDCHAR
STARTCHAR 256C
ENCODING 9580
SWIDTH 668 0
DWIDTH 13 0
BBX 14 23 0 -6
BITMAP
0C80
0C80
0C80
0C80
0C80
0C80
0C80
0C80
0C80
FCFC
0000
0000
FCFC
FCFC
0C80
0C80
0C80
0C80
0C80
0C80
0C80
0C80
0C80
ENDCHAR
STARTCHAR 2580
ENCODING 9600
SWIDTH 668 0
DWIDTH 13 0
BBX 14 11 0 6
BITMAP
FFFC
FFFC
FFFC
FFFC
FFFC
FFFC
FFFC
FFFC
FFFC
FFFC
FFFC
ENDCHAR
STARTCHAR 2584
ENCODING 9604
SWIDTH 668 0
DWIDTH 13 0
BBX 14 12 0 -6
BITMAP
FFFC
FFFC
FFFC
FFFC
FFFC
FFFC
FFFC
FFFC
FFFC
FFFC
FFFC
FFFC
ENDCHAR
STARTCHAR 2588
ENCODING 9608
SWIDTH 668 0
DWIDTH 13 0
BBX 14 23 0 -6
BITMAP
FFFC
FFFC
FFFC
FFFC
FFFC
FFFC
FFFC
FFFC
FFFC
FFFC
FFFC
FFFC
FFFC
FFFC
FFFC
FFFC
FFFC
FFFC
FFFC
FFFC
FFFC
FFFC
FFFC
ENDCHAR
STARTCHAR 258C
ENCODING 9612
SWIDTH 668 0
DWIDTH 13 0
BBX 7 23 0 -6
BITMAP
FE
FE
FE
FE
FE
FE
FE
FE
FE
FE
FE
FE
FE
FE
FE
FE
FE
FE
FE
FE
FE
FE
FE
ENDCHAR
STARTCHAR 2590
ENCODING 9616
SWIDTH 668 0
DWIDTH 13 0
BBX 7 23 7 -6
BITMAP
FE
FE
FE
FE
FE
FE
FE
FE
FE
FE
FE
FE
FE
FE
FE
FE
FE
FE
FE
FE
FE
FE
FE
ENDCHAR
STARTCHAR 2591
ENCODING 9617
SWIDTH 668 0
DWIDTH 13 0
BBX 13 22 1 -5
BITMAP
8440
0000
2118
0000
8440
0000
0000
2118
0000
8440
0000
2118
0000
0000
8440
0000
2118
0000
8440
0000
0000
2118
ENDCHAR
STARTCHAR 2592
ENCODING 9618
SWIDTH 668 0
DWIDTH 13 0
BBX 14 22 0 -5
BITMAP
52A4
0000
AD58
0000
52A4
0000
0000
AD58
0000
52A4
0000
AD58
0000
0000
52A4
0000
AD58
0000
52A4
0000
0000
AD58
ENDCHAR
STARTCHAR 2593
ENCODING 9619
SWIDTH 720 0
DWIDTH 14 0
BBX 14 23 0 -6
BITMAP
5AB4
FFFC
A548
FFFC
5AB4
FFFC
FFFC
A548
FFFC
5AB4
FFFC
A548
FFFC
FFFC
5AB4
FFFC
A548
FFFC
5AB4
FFFC
FFFC
A548
FFFC
ENDCHAR
STARTCHAR 25A0
ENCODING 9632
SWIDTH 565 0
DWIDTH 11 0
BBX 9 9 1 0
BITMAP
FF80
FF80
FF80
FF80
FF80
FF80
FF80
FF80
FF80
ENDCHAR
STARTCHAR 25A1
ENCODING 9633
SWIDTH 565 0
DWIDTH 11 0
BBX 9 9 1 0
BITMAP
FF80
8080
8080
8080
8080
8080
8080
8080
FF80
ENDCHAR
STARTCHAR 25AA
ENCODING 9642
SWIDTH 360 0
DWIDTH 7 0
BBX 5 5 1 4
BITMAP
F8
F8
F8
F8
F8
ENDCHAR
STARTCHAR 25AB
ENCODING 9643
SWIDTH 360 0
DWIDTH 7 0
BBX 5 6 1 3
BITMAP
F8
88
88
88
88
70
ENDCHAR
STARTCHAR 25AC
ENCODING 9644
SWIDTH 977 0
DWIDTH 19 0
BBX 19 4 0 3
BITMAP
FFFFE0
FFFFE0
FFFFE0
FFFFE0
ENDCHAR
STARTCHAR 25B2
ENCODING 9650
SWIDTH 977 0
DWIDTH 19 0
BBX 13 13 3 0
BITMAP
0200
0200
0700
0700
0F80
0F80
1FC0
1FC0
3FE0
3FE0
7FF0
7FF0
FFF8
ENDCHAR
STARTCHAR 25BA
ENCODING 9658
SWIDTH 977 0
DWIDTH 19 0
BBX 13 13 3 0
BITMAP
8000
E000
F800
FE00
FF80
FFE0
FFF8
FFE0
FF80
FE00
F800
E000
8000
ENDCHAR
STARTCHAR 25BC
ENCODING 9660
SWIDTH 977 0
DWIDTH 19 0
BBX 13 13 3 0
BITMAP
FFF8
7FF0
7FF0
3FE0
3FE0
1FC0
1FC0
0F80
0F80
0700
0700
0200
0200
ENDCHAR
STARTCHAR 25C4
ENCODING 9668
SWIDTH 977 0
DWIDTH 19 0
BBX 13 13 3 0
BITMAP
0008
0038
00F8
03F8
0FF8
3FF8
FFF8
3FF8
0FF8
03F8
00F8
0038
0008
ENDCHAR
STARTCHAR 25CA
ENCODING 9674
SWIDTH 462 0
DWIDTH 9 0
BBX 8 14 0 0
BITMAP
18
18
24
24
42
42
81
81
42
42
24
24
18
18
ENDCHAR
STARTCHAR 25CB
ENCODING 9675
SWIDTH 565 0
DWIDTH 11 0
BBX 9 8 1 1
BITMAP
3E00
4100
4080
8080
8080
4100
2100
1E00
ENDCHAR
STARTCHAR 25CF
ENCODING 9679
SWIDTH 565 0
DWIDTH 11 0
BBX 8 8 2 1
BITMAP
7C
FE
FF
FF
FF
FE
7E
38
ENDCHAR
STARTCHAR 25D8
ENCODING 9688
SWIDTH 565 0
DWIDTH 11 0
BBX 9 9 1 0
BITMAP
FF80
FF80
FF80
E380
E180
E380
FF80
FF80
FF80
ENDCHAR
STARTCHAR 25D9
ENCODING 9689
SWIDTH 565 0
DWIDTH 11 0
BBX 11 11 0 0
BITMAP
FFE0
FFE0
E6E0
DF60
DFA0
FFA0
FFA0
DFE0
EF60
F1E0
FFE0
ENDCHAR
STARTCHAR 25E6
ENCODING 9702
SWIDTH 360 0
DWIDTH 7 0
BBX 6 6 0 3
BITMAP
38
44
84
44
68
10
ENDCHAR
STARTCHAR 263A
ENCODING 9786
SWIDTH 977 0
DWIDTH 19 0
BBX 12 12 4 -1
BITMAP
0E00
3180
4040
8020
91A0
9190
8010
8020
9120
4E20
20C0
1F00
ENDCHAR
STARTCHAR 263B
ENCODING 9787
SWIDTH 1028 0
DWIDTH 20 0
BBX 12 12 4 -1
BITMAP
0F00
3FC0
7FE0
7FE0
EF70
EF70
FFF0
FFF0
7FE0
79E0
3FC0
1F80
ENDCHAR
STARTCHAR 263C
ENCODING 9788
SWIDTH 874 0
DWIDTH 17 0
BBX 17 17 0 -2
BITMAP
008000
008000
208200
11E400
0E1800
080800
100400
100400
F00780
100400
100400
080800
0C1800
13E400
208200
008000
008000
ENDCHAR
STARTCHAR 2640
ENCODING 9792
SWIDTH 720 0
DWIDTH 14 0
BBX 10 17 2 -3
BITMAP
1E00
6180
8080
8040
8040
8040
8040
4080
2100
1E00
0800
0800
0800
7FC0
0800
0800
0800
ENDCHAR
STARTCHAR 2642
ENCODING 9794
SWIDTH 720 0
DWIDTH 14 0
BBX 12 18 1 -3
BITMAP
0060
01E0
0660
00A0
0090
0110
0100
0200
3F00
4080
8080
8040
8040
8040
8080
4080
2100
1E00
ENDCHAR
STARTCHAR 2660
ENCODING 9824
SWIDTH 514 0
DWIDTH 10 0
BBX 9 10 1 0
BITMAP
1800
3C00
7E00
FF00
FF00
FF80
F700
1000
1800
3E00
ENDCHAR
STARTCHAR 2663
ENCODING 9827
SWIDTH 617 0
DWIDTH 12 0
BBX 11 11 1 0
BITMAP
1E00
1F00
1F00
7EC0
FFE0
FFE0
FFE0
FBC0
0400
0C00
3F00
ENDCHAR
STARTCHAR 2665
ENCODING 9829
SWIDTH 565 0
DWIDTH 11 0
BBX 10 11 1 0
BITMAP
F780
FFC0
FFC0
FF80
7F80
7F00
3E00
1E00
1C00
0800
0800
ENDCHAR
STARTCHAR 2666
ENCODING 9830
SWIDTH 514 0
DWIDTH 10 0
BBX 8 11 1 0
BITMAP
10
18
3C
7E
FE
FF
FE
7C
3C
18
10
ENDCHAR
STARTCHAR 266A
ENCODING 9834
SWIDTH 514 0
DWIDTH 10 0
BBX 9 13 0 0
BITMAP
0600
0780
0B80
0880
0880
0800
0800
0800
0800
7800
F800
F800
7800
ENDCHAR
STARTCHAR 266B
ENCODING 9835
SWIDTH 720 0
DWIDTH 14 0
BBX 11 15 1 -1
BITMAP
0060
03E0
0FE0
0E20
0820
0820
0820
0820
0820
09E0
0BE0
FBE0
F9E0
F800
F000
ENDCHAR
STARTCHAR E801
ENCODING 59393
SWIDTH 257 0
DWIDTH 5 0
BBX 4 13 0 0
BITMAP
80
00
70
70
70
70
70
70
70
70
70
70
70
ENDCHAR
STARTCHAR E802
ENCODING 59394
SWIDTH 514 0
DWIDTH 10 0
BBX 9 15 0 -4
BITMAP
FC00
FF00
0700
0380
0380
0380
0380
1380
0380
1380
0380
0380
0380
0380
0380
ENDCHAR
STARTCHAR E803
ENCODING 59395
SWIDTH 514 0
DWIDTH 10 0
BBX 9 15 0 -4
BITMAP
FC00
FF00
0700
0380
0380
0380
0380
3B80
1380
1380
0380
0380
0380
0380
0380
ENDCHAR
STARTCHAR E804
ENCODING 59396
SWIDTH 462 0
DWIDTH 9 0
BBX 9 14 -1 0
BITMAP
3800
B800
3800
3F80
3F80
0380
0380
0380
0780
0700
0F00
0E00
0E00
0E00
ENDCHAR
STARTCHAR E805
ENCODING 59397
SWIDTH 462 0
DWIDTH 9 0
BBX 9 14 -1 0
BITMAP
3800
B800
3800
3F80
3F80
0380
0380
1380
0780
0700
0F00
0E00
0E00
0E00
ENDCHAR
STARTCHAR E818
ENCODING 59416
SWIDTH 205 0
DWIDTH 4 0
BBX 3 7 1 13
BITMAP
60
80
60
80
20
E0
80
ENDCHAR
STARTCHAR E83A
ENCODING 59450
SWIDTH 617 0
DWIDTH 12 0
BBX 13 3 -1 3
BITMAP
FFF8
FFF8
FFF8
ENDCHAR
STARTCHAR F001
ENCODING 61441
SWIDTH 617 0
DWIDTH 12 0
BBX 11 14 0 0
BITMAP
3EE0
7EE0
7000
FCE0
FCE0
70E0
70E0
70E0
70E0
70E0
70E0
70E0
70E0
70E0
ENDCHAR
STARTCHAR F002
ENCODING 61442
SWIDTH 617 0
DWIDTH 12 0
BBX 11 14 0 0
BITMAP
3EE0
7EE0
70E0
FCE0
FCE0
70E0
70E0
70E0
70E0
70E0
70E0
70E0
70E0
70E0
ENDCHAR
STARTCHAR F004
ENCODING 61444
SWIDTH 308 0
DWIDTH 6 0
BBX 3 4 2 -5
BITMAP
E0
E0
60
C0
ENDCHAR
STARTCHAR F005
ENCODING 61445
SWIDTH 308 0
DWIDTH 6 0
BBX 5 3 0 -3
BITMAP
70
18
F0
ENDCHAR
STARTCHAR F006
ENCODING 61446
SWIDTH 0 0
DWIDTH 0 0
BBX 3 2 -5 16
BITMAP
60
C0
ENDCHAR
STARTCHAR F007
ENCODING 61447
SWIDTH 0 0
DWIDTH 0 0
BBX 3 2 -8 16
BITMAP
60
C0
ENDCHAR
STARTCHAR F008
ENCODING 61448
SWIDTH 0 0
DWIDTH 0 0
BBX 4 3 -4 15
BITMAP
70
60
C0
ENDCHAR
STARTCHAR F009
ENCODING 61449
SWIDTH 0 0
DWIDTH 0 0
BBX 4 3 -7 15
BITMAP
70
60
C0
ENDCHAR
STARTCHAR F00A
ENCODING 61450
SWIDTH 0 0
DWIDTH 0 0
BBX 1 21 0 -4
BITMAP
80
80
80
80
80
80
80
80
80
00
00
00
80
80
80
80
80
80
80
80
80
ENDCHAR
STARTCHAR F00B
ENCODING 61451
SWIDTH 0 0
DWIDTH 0 0
BBX 5 21 -2 -4
BITMAP
F8
20
20
20
20
20
20
20
20
20
20
20
20
20
20
20
20
20
20
20
F8
ENDCHAR
STARTCHAR F00C
ENCODING 61452
SWIDTH 0 0
DWIDTH 0 0
BBX 3 21 0 -4
BITMAP
80
E0
C0
80
80
80
80
80
80
80
80
80
80
80
80
80
80
80
80
80
80
ENDCHAR
STARTCHAR F00D
ENCODING 61453
SWIDTH 0 0
DWIDTH 0 0
BBX 3 21 -2 -4
BITMAP
20
E0
60
20
20
20
20
20
20
20
20
20
20
20
20
20
20
20
20
20
20
ENDCHAR
STARTCHAR F00E
ENCODING 61454
SWIDTH 0 0
DWIDTH 0 0
BBX 3 21 0 -4
BITMAP
80
80
80
80
80
80
80
80
80
80
80
80
80
80
80
80
80
80
80
80
E0
ENDCHAR
STARTCHAR F00F
ENCODING 61455
SWIDTH 0 0
DWIDTH 0 0
BBX 4 3 -8 15
BITMAP
E0
60
30
ENDCHAR
STARTCHAR F010
ENCODING 61456
SWIDTH 0 0
DWIDTH 0 0
BBX 3 2 -5 16
BITMAP
E0
40
ENDCHAR
STARTCHAR F011
ENCODING 61457
SWIDTH 0 0
DWIDTH 0 0
BBX 3 2 -8 16
BITMAP
E0
40
ENDCHAR
STARTCHAR F012
ENCODING 61458
SWIDTH 0 0
DWIDTH 0 0
BBX 3 3 -4 12
BITMAP
E0
20
40
ENDCHAR
STARTCHAR F013
ENCODING 61459
SWIDTH 0 0
DWIDTH 0 0
BBX 3 3 -7 15
BITMAP
E0
20
40
ENDCHAR
STARTCHAR F014
ENCODING 61460
SWIDTH 0 0
DWIDTH 0 0
BBX 3 3 -7 12
BITMAP
E0
20
40
ENDCHAR
STARTCHAR F015
ENCODING 61461
SWIDTH 0 0
DWIDTH 0 0
BBX 6 2 -10 16
BITMAP
64
98
ENDCHAR
STARTCHAR F016
ENCODING 61462
SWIDTH 0 0
DWIDTH 0 0
BBX 6 2 -10 15
BITMAP
64
98
ENDCHAR
STARTCHAR F017
ENCODING 61463
SWIDTH 0 0
DWIDTH 0 0
BBX 6 2 -12 15
BITMAP
64
98
ENDCHAR
STARTCHAR F018
ENCODING 61464
SWIDTH 0 0
DWIDTH 0 0
BBX 6 2 -11 15
BITMAP
64
98
ENDCHAR
STARTCHAR F019
ENCODING 61465
SWIDTH 0 0
DWIDTH 0 0
BBX 6 4 -8 12
BITMAP
64
FC
98
80
ENDCHAR
STARTCHAR F01A
ENCODING 61466
SWIDTH 0 0
DWIDTH 0 0
BBX 6 4 -10 12
BITMAP
64
FC
98
80
ENDCHAR
STARTCHAR F01B
ENCODING 61467
SWIDTH 0 0
DWIDTH 0 0
BBX 6 4 -10 12
BITMAP
64
FC
98
80
ENDCHAR
STARTCHAR F01C
ENCODING 61468
SWIDTH 0 0
DWIDTH 0 0
BBX 6 2 -6 15
BITMAP
64
98
ENDCHAR
STARTCHAR F01D
ENCODING 61469
SWIDTH 0 0
DWIDTH 0 0
BBX 6 4 -6 12
BITMAP
64
FC
98
80
ENDCHAR
STARTCHAR F01E
ENCODING 61470
SWIDTH 0 0
DWIDTH 0 0
BBX 3 3 -8 -4
BITMAP
E0
E0
E0
ENDCHAR
STARTCHAR F01F
ENCODING 61471
SWIDTH 0 0
DWIDTH 0 0
BBX 3 3 -9 -4
BITMAP
E0
E0
E0
ENDCHAR
STARTCHAR F020
ENCODING 61472
SWIDTH 0 0
DWIDTH 0 0
BBX 3 3 -11 -4
BITMAP
E0
E0
E0
ENDCHAR
STARTCHAR F021
ENCODING 61473
SWIDTH 0 0
DWIDTH 0 0
BBX 3 3 -9 -4
BITMAP
E0
E0
E0
ENDCHAR
STARTCHAR F022
ENCODING 61474
SWIDTH 0 0
DWIDTH 0 0
BBX 3 3 -10 -4
BITMAP
E0
E0
E0
ENDCHAR
STARTCHAR F023
ENCODING 61475
SWIDTH 0 0
DWIDTH 0 0
BBX 3 3 -7 -4
BITMAP
E0
E0
E0
ENDCHAR
STARTCHAR F024
ENCODING 61476
SWIDTH 0 0
DWIDTH 0 0
BBX 3 3 -7 -4
BITMAP
E0
E0
E0
ENDCHAR
STARTCHAR F025
ENCODING 61477
SWIDTH 0 0
DWIDTH 0 0
BBX 3 3 -8 -4
BITMAP
E0
E0
E0
ENDCHAR
STARTCHAR F026
ENCODING 61478
SWIDTH 0 0
DWIDTH 0 0
BBX 3 3 -10 -4
BITMAP
E0
E0
E0
ENDCHAR
STARTCHAR F027
ENCODING 61479
SWIDTH 0 0
DWIDTH 0 0
BBX 3 3 -8 -4
BITMAP
E0
E0
E0
ENDCHAR
STARTCHAR F028
ENCODING 61480
SWIDTH 0 0
DWIDTH 0 0
BBX 3 3 -10 -4
BITMAP
E0
E0
E0
ENDCHAR
STARTCHAR F029
ENCODING 61481
SWIDTH 0 0
DWIDTH 0 0
BBX 3 3 -5 -4
BITMAP
E0
E0
E0
ENDCHAR
STARTCHAR F02A
ENCODING 61482
SWIDTH 0 0
DWIDTH 0 0
BBX 3 3 -5 -4
BITMAP
E0
E0
E0
ENDCHAR
STARTCHAR F02B
ENCODING 61483
SWIDTH 0 0
DWIDTH 0 0
BBX 3 3 -8 -4
BITMAP
E0
E0
E0
ENDCHAR
STARTCHAR F02C
ENCODING 61484
SWIDTH 0 0
DWIDTH 0 0
BBX 3 3 -4 -4
BITMAP
E0
E0
E0
ENDCHAR
STARTCHAR F02D
ENCODING 61485
SWIDTH 0 0
DWIDTH 0 0
BBX 6 2 -9 16
BITMAP
64
98
ENDCHAR
STARTCHAR F02E
ENCODING 61486
SWIDTH 0 0
DWIDTH 0 0
BBX 6 2 -9 15
BITMAP
64
98
ENDCHAR
STARTCHAR F02F
ENCODING 61487
SWIDTH 0 0
DWIDTH 0 0
BBX 6 2 -10 16
BITMAP
64
98
ENDCHAR
STARTCHAR F030
ENCODING 61488
SWIDTH 0 0
DWIDTH 0 0
BBX 6 2 -11 15
BITMAP
64
98
ENDCHAR
STARTCHAR F031
ENCODING 61489
SWIDTH 257 0
DWIDTH 5 0
BBX 3 11 1 0
BITMAP
E0
E0
E0
E0
E0
E0
E0
E0
E0
E0
E0
ENDCHAR
STARTCHAR FB01
ENCODING 64257
SWIDTH 617 0
DWIDTH 12 0
BBX 11 14 0 0
BITMAP
3EE0
7EE0
7000
FCE0
FCE0
70E0
70E0
70E0
70E0
70E0
70E0
70E0
70E0
70E0
ENDCHAR
STARTCHAR FB02
ENCODING 64258
SWIDTH 617 0
DWIDTH 12 0
BBX 11 14 0 0
BITMAP
3EE0
7EE0
70E0
FCE0
FCE0
70E0
70E0
70E0
70E0
70E0
70E0
70E0
70E0
70E0
ENDCHAR
STARTCHAR FB1D
ENCODING 64285
SWIDTH 257 0
DWIDTH 5 0
BBX 3 9 1 2
BITMAP
E0
E0
E0
E0
E0
E0
E0
00
40
ENDCHAR
STARTCHAR FB1E
ENCODING 64286
SWIDTH 0 0
DWIDTH 0 0
BBX 5 2 -3 12
BITMAP
88
70
ENDCHAR
STARTCHAR FB1F
ENCODING 64287
SWIDTH 514 0
DWIDTH 10 0
BBX 8 9 1 2
BITMAP
E7
E7
E7
E7
E7
E7
E7
00
FF
ENDCHAR
STARTCHAR FB20
ENCODING 64288
SWIDTH 565 0
DWIDTH 11 0
BBX 10 11 0 0
BITMAP
71C0
71C0
71C0
39C0
39C0
39C0
39C0
3980
1B80
FF00
FE00
ENDCHAR
STARTCHAR FB2A
ENCODING 64298
SWIDTH 771 0
DWIDTH 15 0
BBX 13 13 1 0
BITMAP
0010
0000
E738
E738
E738
EF38
FE38
FC38
F078
7070
78F0
3FE0
0F80
ENDCHAR
STARTCHAR FB2B
ENCODING 64299
SWIDTH 771 0
DWIDTH 15 0
BBX 13 13 1 0
BITMAP
4000
0000
E738
E738
E738
EF38
FE38
FC38
F078
7070
78F0
3FE0
0F80
ENDCHAR
STARTCHAR FB2C
ENCODING 64300
SWIDTH 771 0
DWIDTH 15 0
BBX 13 13 1 0
BITMAP
0010
0000
E738
E738
E738
EF38
FE38
FC38
F178
7070
78F0
3FE0
0F80
ENDCHAR
STARTCHAR FB2D
ENCODING 64301
SWIDTH 771 0
DWIDTH 15 0
BBX 13 13 1 0
BITMAP
4000
0000
E738
E738
E738
EF38
FE38
FC38
F178
7070
78F0
3FE0
0F80
ENDCHAR
STARTCHAR FB2E
ENCODING 64302
SWIDTH 565 0
DWIDTH 11 0
BBX 10 14 1 -3
BITMAP
E380
7380
3B80
3B80
7F00
7F00
EE00
E700
E780
E380
E1C0
0000
0000
1E00
ENDCHAR
STARTCHAR FB2F
ENCODING 64303
SWIDTH 565 0
DWIDTH 11 0
BBX 10 16 1 -5
BITMAP
E380
7380
3B80
3B80
7F00
7F00
EE00
E700
E780
E380
E1C0
0000
0000
1C00
0800
0800
ENDCHAR
STARTCHAR FB30
ENCODING 64304
SWIDTH 565 0
DWIDTH 11 0
BBX 10 11 1 0
BITMAP
E380
7380
3B80
3B80
7F00
7F00
EE00
E700
E780
EB80
E1C0
ENDCHAR
STARTCHAR FB31
ENCODING 64305
SWIDTH 565 0
DWIDTH 11 0
BBX 10 11 1 0
BITMAP
FC00
FE00
0F00
0700
0700
2700
0700
0700
0700
FFC0
FFC0
ENDCHAR
STARTCHAR FB32
ENCODING 64306
SWIDTH 462 0
DWIDTH 9 0
BBX 9 11 0 0
BITMAP
3C00
3E00
0700
0700
1700
0700
1F00
3F00
7700
7380
E380
ENDCHAR
STARTCHAR FB33
ENCODING 64307
SWIDTH 514 0
DWIDTH 10 0
BBX 10 11 0 0
BITMAP
FFC0
FFC0
0700
0700
1700
0700
0700
0700
0700
0700
0700
ENDCHAR
STARTCHAR FB34
ENCODING 64308
SWIDTH 617 0
DWIDTH 12 0
BBX 10 11 1 0
BITMAP
FE00
FF80
0380
01C0
01C0
E9C0
E1C0
E1C0
E1C0
E1C0
E1C0
ENDCHAR
STARTCHAR FB35
ENCODING 64309
SWIDTH 308 0
DWIDTH 6 0
BBX 5 11 0 0
BITMAP
38
38
38
38
38
B8
38
38
38
38
38
ENDCHAR
STARTCHAR FB36
ENCODING 64310
SWIDTH 411 0
DWIDTH 8 0
BBX 8 11 0 0
BITMAP
7F
7F
0E
1C
1C
9C
1C
1C
1C
1C
1C
ENDCHAR
STARTCHAR FB38
ENCODING 64312
SWIDTH 617 0
DWIDTH 12 0
BBX 10 11 1 0
BITMAP
E700
EF80
E9C0
E1C0
E5C0
E1C0
E1C0
E1C0
7380
7F80
1E00
ENDCHAR
STARTCHAR FB39
ENCODING 64313
SWIDTH 308 0
DWIDTH 6 0
BBX 5 7 0 4
BITMAP
38
38
38
38
B8
38
38
ENDCHAR
STARTCHAR FB3A
ENCODING 64314
SWIDTH 514 0
DWIDTH 10 0
BBX 9 15 0 -4
BITMAP
FC00
FF00
0700
0380
0380
0380
1380
0380
0380
0380
0380
0380
0380
0380
0380
ENDCHAR
STARTCHAR FB3B
ENCODING 64315
SWIDTH 462 0
DWIDTH 9 0
BBX 7 11 1 0
BITMAP
F0
FC
1C
0E
0E
4E
0E
0E
1C
FC
F0
ENDCHAR
STARTCHAR FB3C
ENCODING 64316
SWIDTH 462 0
DWIDTH 9 0
BBX 7 14 1 0
BITMAP
E0
E0
E0
FE
FE
0E
0E
4E
1E
1C
3C
38
38
38
ENDCHAR
STARTCHAR FB3E
ENCODING 64318
SWIDTH 617 0
DWIDTH 12 0
BBX 10 11 1 0
BITMAP
E700
EF80
79C0
71C0
71C0
75C0
71C0
61C0
E1C0
E7C0
E7C0
ENDCHAR
STARTCHAR FB40
ENCODING 64320
SWIDTH 360 0
DWIDTH 7 0
BBX 5 11 1 0
BITMAP
F0
F8
38
38
38
B8
38
38
38
F8
F8
ENDCHAR
STARTCHAR FB41
ENCODING 64321
SWIDTH 617 0
DWIDTH 12 0
BBX 10 11 1 0
BITMAP
1E00
7F80
7380
E1C0
E1C0
E5C0
E1C0
E1C0
7380
7F80
1E00
ENDCHAR
STARTCHAR FB43
ENCODING 64323
SWIDTH 565 0
DWIDTH 11 0
BBX 9 15 1 -4
BITMAP
FE00
FF00
E780
E380
EB80
E380
F380
7380
0380
0380
0380
0380
0380
0380
0380
ENDCHAR
STARTCHAR FB44
ENCODING 64324
SWIDTH 565 0
DWIDTH 11 0
BBX 9 11 1 0
BITMAP
FC00
FF00
E700
E380
EB80
E380
7380
0380
4700
FF00
7C00
ENDCHAR
STARTCHAR FB46
ENCODING 64326
SWIDTH 514 0
DWIDTH 10 0
BBX 9 11 0 0
BITMAP
E380
7380
7380
3B80
1F00
1F00
4E00
0E00
0700
7F80
7F80
ENDCHAR
STARTCHAR FB47
ENCODING 64327
SWIDTH 565 0
DWIDTH 11 0
BBX 9 15 1 -4
BITMAP
FF80
FF80
0380
0380
0B80
E380
E780
E700
E700
E700
E700
E000
E000
E000
E000
ENDCHAR
STARTCHAR FB48
ENCODING 64328
SWIDTH 514 0
DWIDTH 10 0
BBX 9 11 0 0
BITMAP
FC00
FF00
0700
0380
0380
0380
1380
0380
0380
0380
0380
ENDCHAR
STARTCHAR FB49
ENCODING 64329
SWIDTH 771 0
DWIDTH 15 0
BBX 13 11 1 0
BITMAP
E738
E738
E738
EF38
FE38
FC38
F178
7070
78F0
3FE0
0F80
ENDCHAR
STARTCHAR FB4A
ENCODING 64330
SWIDTH 668 0
DWIDTH 13 0
BBX 12 11 0 0
BITMAP
FF80
FFE0
38E0
3870
3870
3A70
3870
3870
3870
F870
F070
ENDCHAR
STARTCHAR FB4B
ENCODING 64331
SWIDTH 257 0
DWIDTH 5 0
BBX 3 13 1 0
BITMAP
40
00
E0
E0
E0
E0
E0
E0
E0
E0
E0
E0
E0
ENDCHAR
STARTCHAR FB4C
ENCODING 64332
SWIDTH 565 0
DWIDTH 11 0
BBX 10 13 1 0
BITMAP
3C00
0000
FC00
FE00
0F00
0700
0700
0700
0700
0700
0700
FFC0
FFC0
ENDCHAR
STARTCHAR FB4D
ENCODING 64333
SWIDTH 462 0
DWIDTH 9 0
BBX 7 13 1 0
BITMAP
F0
00
F0
FC
1C
0E
0E
0E
0E
0E
1C
FC
F0
ENDCHAR
STARTCHAR FB4E
ENCODING 64334
SWIDTH 565 0
DWIDTH 11 0
BBX 9 13 1 0
BITMAP
3C00
0000
FC00
FF00
E700
E380
E380
F380
7380
0380
4700
FF00
7C00
ENDCHAR
STARTCHAR FB4F
ENCODING 64335
SWIDTH 617 0
DWIDTH 12 0
BBX 12 14 0 0
BITMAP
E000
E000
E000
F8E0
F8E0
1CE0
0EE0
3FC0
3FC0
3B80
71C0
71C0
70E0
7070
ENDCHAR
STARTCHAR FB50
ENCODING 64336
SWIDTH 205 0
DWIDTH 4 0
BBX 4 14 0 3
BITMAP
30
F0
80
20
20
20
20
20
20
20
20
20
20
20
ENDCHAR
STARTCHAR FB51
ENCODING 64337
SWIDTH 205 0
DWIDTH 4 0
BBX 5 14 -1 3
BITMAP
30
F0
80
40
60
60
20
20
20
20
20
38
38
18
ENDCHAR
STARTCHAR FB52
ENCODING 64338
SWIDTH 617 0
DWIDTH 12 0
BBX 11 13 1 -4
BITMAP
4040
8060
8020
FFE0
FFE0
7FE0
0000
0200
0700
0200
0100
0380
0100
ENDCHAR
STARTCHAR FB53
ENCODING 64339
SWIDTH 617 0
DWIDTH 12 0
BBX 11 13 1 -4
BITMAP
4040
8060
8020
FFE0
FFE0
7FE0
0000
0200
0700
0200
0100
0380
0100
ENDCHAR
STARTCHAR FB54
ENCODING 64340
SWIDTH 257 0
DWIDTH 5 0
BBX 6 13 -1 -4
BITMAP
08
0C
04
FC
FC
FC
00
10
38
10
08
1C
08
ENDCHAR
STARTCHAR FB55
ENCODING 64341
SWIDTH 257 0
DWIDTH 5 0
BBX 6 13 -1 -4
BITMAP
08
0C
04
FC
FC
FC
00
10
38
10
08
1C
08
ENDCHAR
STARTCHAR FB56
ENCODING 64342
SWIDTH 617 0
DWIDTH 12 0
BBX 11 13 1 -4
BITMAP
4040
8060
8020
FFE0
FFE0
7FE0
0000
0100
0B80
1D00
0900
0380
0100
ENDCHAR
STARTCHAR FB57
ENCODING 64343
SWIDTH 617 0
DWIDTH 12 0
BBX 11 13 1 -4
BITMAP
4040
8060
8020
FFE0
FFE0
7FE0
0000
0100
0B80
1D00
0900
0380
0100
ENDCHAR
STARTCHAR FB58
ENCODING 64344
SWIDTH 257 0
DWIDTH 5 0
BBX 7 13 -1 -4
BITMAP
08
0C
04
FC
FC
FC
00
04
2E
74
24
0E
04
ENDCHAR
STARTCHAR FB59
ENCODING 64345
SWIDTH 257 0
DWIDTH 5 0
BBX 7 13 -1 -4
BITMAP
08
0C
04
FC
FC
FC
00
04
2E
74
24
0E
04
ENDCHAR
STARTCHAR FB5A
ENCODING 64346
SWIDTH 617 0
DWIDTH 12 0
BBX 11 13 1 -4
BITMAP
4040
8060
8020
FFE0
FFE0
7FE0
0000
0100
0B80
1D80
0DC0
0E80
0400
ENDCHAR
STARTCHAR FB5B
ENCODING 64347
SWIDTH 617 0
DWIDTH 12 0
BBX 11 13 1 -4
BITMAP
4040
8060
8020
FFE0
FFE0
7FE0
0000
0100
0B80
1D80
0DC0
0E80
0400
ENDCHAR
STARTCHAR FB5C
ENCODING 64348
SWIDTH 257 0
DWIDTH 5 0
BBX 7 13 -1 -4
BITMAP
08
0C
04
FC
FC
FC
00
08
5C
EC
6E
74
20
ENDCHAR
STARTCHAR FB5D
ENCODING 64349
SWIDTH 257 0
DWIDTH 5 0
BBX 7 13 -1 -4
BITMAP
08
0C
04
FC
FC
FC
00
08
5C
EC
6E
74
20
ENDCHAR
STARTCHAR FB5E
ENCODING 64350
SWIDTH 617 0
DWIDTH 12 0
BBX 11 12 1 3
BITMAP
0400
0E00
0400
0200
0700
0200
4040
8060
8020
FFE0
FFE0
7FE0
ENDCHAR
STARTCHAR FB5F
ENCODING 64351
SWIDTH 617 0
DWIDTH 12 0
BBX 11 12 1 3
BITMAP
0400
0E00
0400
0200
0700
0200
4040
8060
8020
FFE0
FFE0
7FE0
ENDCHAR
STARTCHAR FB60
ENCODING 64352
SWIDTH 257 0
DWIDTH 5 0
BBX 6 13 -1 3
BITMAP
20
70
20
10
38
10
00
08
0C
04
FC
FC
FC
ENDCHAR
STARTCHAR FB61
ENCODING 64353
SWIDTH 257 0
DWIDTH 5 0
BBX 6 13 -1 3
BITMAP
20
70
20
10
38
10
00
08
0C
04
FC
FC
FC
ENDCHAR
STARTCHAR FB62
ENCODING 64354
SWIDTH 617 0
DWIDTH 12 0
BBX 11 12 1 3
BITMAP
0200
1700
3B00
1B80
1D00
0800
4040
8060
8020
FFE0
FFE0
7FE0
ENDCHAR
STARTCHAR FB63
ENCODING 64355
SWIDTH 617 0
DWIDTH 12 0
BBX 11 12 1 3
BITMAP
0200
1700
3B00
1B80
1D00
0800
4040
8060
8020
FFE0
FFE0
7FE0
ENDCHAR
STARTCHAR FB64
ENCODING 64356
SWIDTH 257 0
DWIDTH 5 0
BBX 7 13 -1 3
BITMAP
08
5C
EC
6E
74
20
00
08
0C
04
FC
FC
FC
ENDCHAR
STARTCHAR FB65
ENCODING 64357
SWIDTH 257 0
DWIDTH 5 0
BBX 7 13 -1 3
BITMAP
08
5C
EC
6E
74
20
00
08
0C
04
FC
FC
FC
ENDCHAR
STARTCHAR FB66
ENCODING 64358
SWIDTH 617 0
DWIDTH 12 0
BBX 11 13 1 3
BITMAP
1800
0C00
0800
0F00
0900
1F00
0000
4040
8060
8020
FFE0
FFE0
7FE0
ENDCHAR
STARTCHAR FB67
ENCODING 64359
SWIDTH 617 0
DWIDTH 12 0
BBX 11 13 1 3
BITMAP
1800
0C00
0800
0F00
0900
1F00
0000
4040
8060
8020
FFE0
FFE0
7FE0
ENDCHAR
STARTCHAR FB68
ENCODING 64360
SWIDTH 257 0
DWIDTH 5 0
BBX 6 13 -1 3
BITMAP
60
30
20
3C
24
7C
00
08
0C
04
FC
FC
FC
ENDCHAR
STARTCHAR FB69
ENCODING 64361
SWIDTH 257 0
DWIDTH 5 0
BBX 6 13 -1 3
BITMAP
60
30
20
3C
24
7C
00
08
0C
04
FC
FC
FC
ENDCHAR
STARTCHAR FB6A
ENCODING 64362
SWIDTH 720 0
DWIDTH 14 0
BBX 13 15 1 3
BITMAP
0040
00E0
0050
00B8
01D0
0080
0000
0000
0030
4078
80C8
80F8
FFF8
FFF8
7FF8
ENDCHAR
STARTCHAR FB6B
ENCODING 64363
SWIDTH 720 0
DWIDTH 14 0
BBX 13 15 1 3
BITMAP
0040
00E0
0050
00B8
01D0
0080
0000
0000
0030
4078
80C8
80F8
FFF8
FFF8
7FF8
ENDCHAR
STARTCHAR FB6C
ENCODING 64364
SWIDTH 308 0
DWIDTH 6 0
BBX 7 13 -1 3
BITMAP
30
0C
30
00
18
3C
26
3E
1A
02
FE
FE
FE
ENDCHAR
STARTCHAR FB6D
ENCODING 64365
SWIDTH 308 0
DWIDTH 6 0
BBX 8 14 -1 3
BITMAP
08
1C
0A
17
3A
10
0C
1E
1E
12
1E
FE
FE
FE
ENDCHAR
STARTCHAR FB6E
ENCODING 64366
SWIDTH 720 0
DWIDTH 14 0
BBX 13 15 1 3
BITMAP
0020
0170
03B0
01B8
01D0
0080
0000
0000
0030
4078
80C8
80F8
FFF8
FFF8
7FF8
ENDCHAR
STARTCHAR FB6F
ENCODING 64367
SWIDTH 720 0
DWIDTH 14 0
BBX 13 15 1 3
BITMAP
0020
0170
03B0
01B8
01D0
0080
0000
0000
0030
4078
80C8
80F8
FFF8
FFF8
7FF8
ENDCHAR
STARTCHAR FB70
ENCODING 64368
SWIDTH 308 0
DWIDTH 6 0
BBX 7 14 -1 3
BITMAP
0C
30
0C
30
00
18
3C
26
3E
1A
02
FE
FE
FE
ENDCHAR
STARTCHAR FB71
ENCODING 64369
SWIDTH 308 0
DWIDTH 6 0
BBX 8 14 -1 3
BITMAP
04
2E
76
37
3A
10
0C
1E
1E
12
1E
FE
FE
FE
ENDCHAR
STARTCHAR FB72
ENCODING 64370
SWIDTH 565 0
DWIDTH 11 0
BBX 10 14 1 -4
BITMAP
7F80
FF80
9C00
2000
4400
8E00
8400
8200
8700
C200
F000
7FC0
7F80
1E00
ENDCHAR
STARTCHAR FB73
ENCODING 64371
SWIDTH 565 0
DWIDTH 11 0
BBX 10 14 1 -4
BITMAP
7F80
FF80
9E00
2200
53C0
BBC0
91C0
8800
9C00
C800
F000
7FC0
7F80
1E00
ENDCHAR
STARTCHAR FB74
ENCODING 64372
SWIDTH 514 0
DWIDTH 10 0
BBX 11 14 -1 -4
BITMAP
1C00
3E00
0700
0380
FFE0
FFE0
FFE0
0000
0400
0E00
0400
0200
0700
0200
ENDCHAR
STARTCHAR FB75
ENCODING 64373
SWIDTH 514 0
DWIDTH 10 0
BBX 11 14 -1 -4
BITMAP
1C00
3E00
0700
0380
FFE0
FFE0
FFE0
0000
0400
0E00
0400
0200
0700
0200
ENDCHAR
STARTCHAR FB76
ENCODING 64374
SWIDTH 565 0
DWIDTH 11 0
BBX 10 14 1 -4
BITMAP
7F80
FF80
9C00
2000
4100
8B80
9D00
8800
8000
C000
F000
7FC0
7F80
1E00
ENDCHAR
STARTCHAR FB77
ENCODING 64375
SWIDTH 565 0
DWIDTH 11 0
BBX 10 14 1 -4
BITMAP
7F80
FF80
9E00
2200
43C0
81C0
85C0
AE00
F400
A000
C000
7FC0
7F80
1E00
ENDCHAR
STARTCHAR FB78
ENCODING 64376
SWIDTH 514 0
DWIDTH 10 0
BBX 11 12 -1 -2
BITMAP
1C00
3E00
0700
0380
FFE0
FFE0
FFE0
0000
0100
0B80
1D00
0800
ENDCHAR
STARTCHAR FB79
ENCODING 64377
SWIDTH 514 0
DWIDTH 10 0
BBX 11 12 -1 -2
BITMAP
1C00
3E00
0700
0380
FFE0
FFE0
FFE0
0000
0100
0B80
1D00
0800
ENDCHAR
STARTCHAR FB7A
ENCODING 64378
SWIDTH 565 0
DWIDTH 11 0
BBX 10 14 1 -4
BITMAP
7F80
FF80
9C00
2000
4200
9700
BA00
9200
8700
C200
F000
7FC0
7F80
1E00
ENDCHAR
STARTCHAR FB7B
ENCODING 64379
SWIDTH 565 0
DWIDTH 11 0
BBX 10 14 1 -4
BITMAP
7F80
FF80
9E00
2200
43C0
AFC0
B5C0
9800
9800
C000
F000
7FC0
7F80
1E00
ENDCHAR
STARTCHAR FB7C
ENCODING 64380
SWIDTH 514 0
DWIDTH 10 0
BBX 11 14 -1 -4
BITMAP
1C00
3E00
0700
0380
FFE0
FFE0
FFE0
0000
0200
1700
3A00
1200
0700
0200
ENDCHAR
STARTCHAR FB7D
ENCODING 64381
SWIDTH 514 0
DWIDTH 10 0
BBX 11 14 -1 -4
BITMAP
1C00
3E00
0700
0380
FFE0
FFE0
FFE0
0000
0200
1700
3A00
1200
0700
0200
ENDCHAR
STARTCHAR FB7E
ENCODING 64382
SWIDTH 565 0
DWIDTH 11 0
BBX 10 14 1 -4
BITMAP
7F80
FF80
9C00
2000
4200
9700
BB00
9B80
9D00
C800
F000
7FC0
7F80
1E00
ENDCHAR
STARTCHAR FB7F
ENCODING 64383
SWIDTH 565 0
DWIDTH 11 0
BBX 10 14 1 -4
BITMAP
7F80
FF80
9E00
2200
43C0
83C0
8DC0
B000
8600
9800
E000
7FC0
7F80
1E00
ENDCHAR
STARTCHAR FB80
ENCODING 64384
SWIDTH 514 0
DWIDTH 10 0
BBX 11 14 -1 -4
BITMAP
1C00
3E00
0700
0380
FFE0
FFE0
FFE0
0000
0100
0B80
1D80
0DC0
0E80
0400
ENDCHAR
STARTCHAR FB81
ENCODING 64385
SWIDTH 514 0
DWIDTH 10 0
BBX 11 14 -1 -4
BITMAP
1C00
3E00
0700
0380
FFE0
FFE0
FFE0
0000
0100
0B80
1D80
0DC0
0E80
0400
ENDCHAR
STARTCHAR FB82
ENCODING 64386
SWIDTH 360 0
DWIDTH 7 0
BBX 6 13 1 -2
BITMAP
10
18
1C
0C
84
FC
FC
FC
00
08
5C
E8
40
ENDCHAR
STARTCHAR FB83
ENCODING 64387
SWIDTH 360 0
DWIDTH 7 0
BBX 6 13 1 -2
BITMAP
10
18
1C
0C
84
FC
FC
FC
00
08
5C
E8
40
ENDCHAR
STARTCHAR FB84
ENCODING 64388
SWIDTH 360 0
DWIDTH 7 0
BBX 6 12 1 3
BITMAP
08
5C
E8
40
10
18
1C
0C
84
FC
FC
FC
ENDCHAR
STARTCHAR FB85
ENCODING 64389
SWIDTH 360 0
DWIDTH 7 0
BBX 6 12 1 3
BITMAP
08
5C
E8
40
10
18
1C
0C
84
FC
FC
FC
ENDCHAR
STARTCHAR FB86
ENCODING 64390
SWIDTH 360 0
DWIDTH 7 0
BBX 6 14 1 3
BITMAP
20
70
28
5C
E8
40
10
18
1C
0C
84
FC
FC
FC
ENDCHAR
STARTCHAR FB87
ENCODING 64391
SWIDTH 360 0
DWIDTH 7 0
BBX 6 14 1 3
BITMAP
20
70
28
5C
E8
40
10
18
1C
0C
84
FC
FC
FC
ENDCHAR
STARTCHAR FB88
ENCODING 64392
SWIDTH 360 0
DWIDTH 7 0
BBX 6 14 1 3
BITMAP
C0
60
40
78
48
F8
10
18
1C
0C
84
FC
FC
FC
ENDCHAR
STARTCHAR FB89
ENCODING 64393
SWIDTH 360 0
DWIDTH 7 0
BBX 6 14 1 3
BITMAP
C0
60
40
78
48
F8
10
18
1C
0C
84
FC
FC
FC
ENDCHAR
STARTCHAR FB8A
ENCODING 64394
SWIDTH 411 0
DWIDTH 8 0
BBX 9 17 0 -1
BITMAP
0400
0E00
0500
0B80
1D00
0800
0000
0200
0300
0300
0100
0100
0100
0300
8F00
7E00
1C00
ENDCHAR
STARTCHAR FB8B
ENCODING 64395
SWIDTH 411 0
DWIDTH 8 0
BBX 9 17 0 -1
BITMAP
0400
0E00
0500
0B80
1D00
0800
0000
0200
0300
0300
0100
0100
0100
0300
8F00
7E00
1C00
ENDCHAR
STARTCHAR FB8C
ENCODING 64396
SWIDTH 411 0
DWIDTH 8 0
BBX 8 16 0 -1
BITMAP
18
0C
08
0F
09
1F
02
03
03
01
01
01
03
8F
7E
1C
ENDCHAR
STARTCHAR FB8D
ENCODING 64397
SWIDTH 411 0
DWIDTH 8 0
BBX 8 16 0 -1
BITMAP
18
0C
08
0F
09
1F
02
03
03
01
01
01
03
8F
7E
1C
ENDCHAR
STARTCHAR FB8E
ENCODING 64398
SWIDTH 720 0
DWIDTH 14 0
BBX 13 10 1 3
BITMAP
0030
00F0
01C0
4180
80E0
8070
8018
FFF8
FFF8
7FF8
ENDCHAR
STARTCHAR FB8F
ENCODING 64399
SWIDTH 874 0
DWIDTH 17 0
BBX 16 10 1 3
BITMAP
0018
00F8
01E0
4180
80C0
8070
8038
FFEF
FFEF
7F83
ENDCHAR
STARTCHAR FB90
ENCODING 64400
SWIDTH 360 0
DWIDTH 7 0
BBX 8 10 -1 3
BITMAP
06
1E
38
30
1C
06
03
FF
FF
FF
ENDCHAR
STARTCHAR FB91
ENCODING 64401
SWIDTH 514 0
DWIDTH 10 0
BBX 11 10 -1 3
BITMAP
0300
1F00
3C00
3000
1800
0E00
0700
FDE0
F9E0
F060
ENDCHAR
STARTCHAR FB92
ENCODING 64402
SWIDTH 720 0
DWIDTH 14 0
BBX 13 13 1 3
BITMAP
0030
01F0
03C0
0230
00F0
01C0
4180
80E0
8070
8018
FFF8
FFF8
7FF8
ENDCHAR
STARTCHAR FB93
ENCODING 64403
SWIDTH 874 0
DWIDTH 17 0
BBX 16 13 1 3
BITMAP
0018
00F8
01E0
0118
00F8
01E0
4180
80C0
8070
8038
FFEF
FFEF
7F83
ENDCHAR
STARTCHAR FB94
ENCODING 64404
SWIDTH 360 0
DWIDTH 7 0
BBX 8 13 -1 3
BITMAP
06
3E
78
46
1E
38
30
1C
06
03
FF
FF
FF
ENDCHAR
STARTCHAR FB95
ENCODING 64405
SWIDTH 514 0
DWIDTH 10 0
BBX 11 13 -1 3
BITMAP
0300
1F00
3C00
2300
1F00
3C00
3000
1800
0E00
0700
FDE0
F9E0
F060
ENDCHAR
STARTCHAR FB96
ENCODING 64406
SWIDTH 720 0
DWIDTH 14 0
BBX 13 20 1 -4
BITMAP
0030
01F0
03C0
0230
00F0
01C0
4180
80E0
8070
8018
FFF8
FFF8
7FF8
0000
0200
0700
0200
0100
0380
0100
ENDCHAR
STARTCHAR FB97
ENCODING 64407
SWIDTH 874 0
DWIDTH 17 0
BBX 16 20 1 -4
BITMAP
0018
00F8
01E0
0118
00F8
01E0
4180
80C0
8070
8038
FFEF
FFEF
7F83
0000
0400
0E00
0400
0200
0700
0200
ENDCHAR
STARTCHAR FB98
ENCODING 64408
SWIDTH 360 0
DWIDTH 7 0
BBX 8 20 -1 -4
BITMAP
06
3E
78
46
1E
38
30
1C
06
03
FF
FF
FF
00
08
1C
08
04
0E
04
ENDCHAR
STARTCHAR FB99
ENCODING 64409
SWIDTH 514 0
DWIDTH 10 0
BBX 11 20 -1 -4
BITMAP
0300
1F00
3C00
2300
1F00
3C00
3000
1800
0E00
0700
FDE0
F9E0
F060
0000
1000
3800
1000
0800
1C00
0800
ENDCHAR
STARTCHAR FB9A
ENCODING 64410
SWIDTH 720 0
DWIDTH 14 0
BBX 13 15 1 3
BITMAP
00C0
03C0
0330
00F0
03C0
0230
00F0
01C0
4180
80E0
8070
8018
FFF8
FFF8
7FF8
ENDCHAR
STARTCHAR FB9B
ENCODING 64411
SWIDTH 874 0
DWIDTH 17 0
BBX 16 15 1 3
BITMAP
0060
01E0
0198
0078
01E0
0118
00F8
01E0
4180
80C0
8070
8038
FFEF
FFEF
7F83
ENDCHAR
STARTCHAR FB9C
ENCODING 64412
SWIDTH 360 0
DWIDTH 7 0
BBX 8 15 -1 3
BITMAP
18
78
66
1E
78
46
1E
38
30
1C
06
03
FF
FF
FF
ENDCHAR
STARTCHAR FB9D
ENCODING 64413
SWIDTH 514 0
DWIDTH 10 0
BBX 11 15 -1 3
BITMAP
0C00
3C00
3300
0F00
3C00
2300
1F00
3C00
3000
1800
0E00
0700
FDE0
F9E0
F060
ENDCHAR
STARTCHAR FB9E
ENCODING 64414
SWIDTH 514 0
DWIDTH 10 0
BBX 9 10 1 -1
BITMAP
0100
2180
4180
8080
8080
8080
C180
FF80
7F00
3E00
ENDCHAR
STARTCHAR FB9F
ENCODING 64415
SWIDTH 514 0
DWIDTH 10 0
BBX 9 10 1 -1
BITMAP
0100
2180
4180
8080
8080
8080
C180
FF80
7F00
3E00
ENDCHAR
STARTCHAR FBA0
ENCODING 64416
SWIDTH 514 0
DWIDTH 10 0
BBX 9 16 1 -1
BITMAP
3000
1800
1000
1E00
1200
3E00
0100
2180
4180
8080
8080
8080
C180
FF80
7F00
3E00
ENDCHAR
STARTCHAR FBA1
ENCODING 64417
SWIDTH 514 0
DWIDTH 10 0
BBX 9 16 1 -1
BITMAP
3000
1800
1000
1E00
1200
3E00
0100
2180
4180
8080
8080
8080
C180
FF80
7F00
3E00
ENDCHAR
STARTCHAR FBA2
ENCODING 64418
SWIDTH 257 0
DWIDTH 5 0
BBX 6 13 -1 3
BITMAP
60
30
20
3C
24
7C
00
08
0C
04
FC
FC
FC
ENDCHAR
STARTCHAR FBA3
ENCODING 64419
SWIDTH 257 0
DWIDTH 5 0
BBX 6 13 -1 3
BITMAP
60
30
20
3C
24
7C
00
08
0C
04
FC
FC
FC
ENDCHAR
STARTCHAR FBA4
ENCODING 64420
SWIDTH 360 0
DWIDTH 7 0
BBX 5 10 1 3
BITMAP
10
20
70
40
70
78
88
F8
F8
F0
ENDCHAR
STARTCHAR FBA5
ENCODING 64421
SWIDTH 411 0
DWIDTH 8 0
BBX 8 12 0 3
BITMAP
20
40
E8
08
08
18
28
48
FC
F7
07
03
ENDCHAR
STARTCHAR FBA6
ENCODING 64422
SWIDTH 360 0
DWIDTH 7 0
BBX 5 7 1 3
BITMAP
40
70
78
88
F8
F8
F0
ENDCHAR
STARTCHAR FBA7
ENCODING 64423
SWIDTH 360 0
DWIDTH 7 0
BBX 7 6 0 2
BITMAP
18
3C
7E
4E
C6
80
ENDCHAR
STARTCHAR FBA8
ENCODING 64424
SWIDTH 257 0
DWIDTH 5 0
BBX 6 11 -1 -2
BITMAP
08
0C
04
FC
FC
FC
00
10
20
30
30
ENDCHAR
STARTCHAR FBA9
ENCODING 64425
SWIDTH 308 0
DWIDTH 6 0
BBX 7 12 -1 -4
BITMAP
08
10
F6
F6
DE
18
08
00
08
10
18
18
ENDCHAR
STARTCHAR FBAA
ENCODING 64426
SWIDTH 462 0
DWIDTH 9 0
BBX 9 9 -1 3
BITMAP
1000
1C00
1E00
3F00
2500
3C80
FF80
FF80
F780
ENDCHAR
STARTCHAR FBAB
ENCODING 64427
SWIDTH 411 0
DWIDTH 8 0
BBX 8 10 0 3
BITMAP
08
08
08
18
28
48
FC
F7
07
03
ENDCHAR
STARTCHAR FBAC
ENCODING 64428
SWIDTH 462 0
DWIDTH 9 0
BBX 9 9 -1 3
BITMAP
1000
1C00
1E00
3F00
2500
3C80
FF80
FF80
F780
ENDCHAR
STARTCHAR FBAD
ENCODING 64429
SWIDTH 462 0
DWIDTH 9 0
BBX 10 13 -1 -2
BITMAP
0200
0700
0F00
0900
1200
FFC0
FFC0
FFC0
1300
1900
0900
0E00
0600
ENDCHAR
STARTCHAR FBAE
ENCODING 64430
SWIDTH 771 0
DWIDTH 15 0
BBX 14 9 1 0
BITMAP
0200
0700
0F00
3900
7000
C000
FFFC
FFF8
FFF0
ENDCHAR
STARTCHAR FBAF
ENCODING 64431
SWIDTH 771 0
DWIDTH 15 0
BBX 14 10 1 -4
BITMAP
00FC
07FC
1FFC
3C00
7000
4000
8000
FFFC
FFF8
FFF0
ENDCHAR
STARTCHAR FBB0
ENCODING 64432
SWIDTH 771 0
DWIDTH 15 0
BBX 14 11 1 0
BITMAP
0800
1000
3A00
0700
0F00
3900
7000
C000
FFFC
FFF8
FFF0
ENDCHAR
STARTCHAR FBB1
ENCODING 64433
SWIDTH 771 0
DWIDTH 15 0
BBX 14 14 1 -4
BITMAP
0040
0080
01C0
0000
00FC
07FC
1FFC
3C00
7000
4000
8000
FFFC
FFF8
FFF0
ENDCHAR
STARTCHAR FBD3
ENCODING 64467
SWIDTH 514 0
DWIDTH 10 0
BBX 9 13 1 3
BITMAP
3000
0D00
3380
0B80
1180
1D00
5D00
8480
9880
8080
FF80
FF80
7F80
ENDCHAR
STARTCHAR FBD4
ENCODING 64468
SWIDTH 514 0
DWIDTH 10 0
BBX 9 13 1 3
BITMAP
3000
0D00
3380
0B80
1180
1D00
5D00
8480
9880
8080
FF80
FF80
7F80
ENDCHAR
STARTCHAR FBD5
ENCODING 64469
SWIDTH 360 0
DWIDTH 7 0
BBX 8 13 -1 3
BITMAP
30
0C
30
06
1E
38
30
1C
06
03
FF
FF
FF
ENDCHAR
STARTCHAR FBD6
ENCODING 64470
SWIDTH 360 0
DWIDTH 7 0
BBX 8 13 -1 3
BITMAP
30
0C
30
06
1E
38
30
1C
06
03
FF
FF
FF
ENDCHAR
STARTCHAR FBD7
ENCODING 64471
SWIDTH 462 0
DWIDTH 9 0
BBX 9 16 0 -1
BITMAP
0300
0300
0100
0200
0000
0000
0300
0780
0480
0480
0780
0380
0180
8300
7F00
1C00
ENDCHAR
STARTCHAR FBD8
ENCODING 64472
SWIDTH 462 0
DWIDTH 9 0
BBX 9 16 0 -1
BITMAP
0300
0300
0100
0200
0000
0000
0300
0780
0480
0480
0780
0380
0180
8300
7F00
1C00
ENDCHAR
STARTCHAR FBD9
ENCODING 64473
SWIDTH 462 0
DWIDTH 9 0
BBX 9 13 0 -1
BITMAP
0500
0200
0000
0300
0780
0480
0480
0780
0380
0180
8300
7F00
1C00
ENDCHAR
STARTCHAR FBDA
ENCODING 64474
SWIDTH 462 0
DWIDTH 9 0
BBX 9 13 0 -1
BITMAP
0500
0200
0000
0300
0780
0480
0480
0780
0380
0180
8300
7F00
1C00
ENDCHAR
STARTCHAR FBDB
ENCODING 64475
SWIDTH 462 0
DWIDTH 9 0
BBX 9 17 0 -1
BITMAP
0200
0200
0200
0200
0200
0200
0000
0300
0780
0480
0480
0780
0380
0180
8300
7F00
1C00
ENDCHAR
STARTCHAR FBDC
ENCODING 64476
SWIDTH 462 0
DWIDTH 9 0
BBX 9 17 0 -1
BITMAP
0200
0200
0200
0200
0200
0200
0000
0300
0780
0480
0480
0780
0380
0180
8300
7F00
1C00
ENDCHAR
STARTCHAR FBDD
ENCODING 64477
SWIDTH 462 0
DWIDTH 9 0
BBX 10 15 0 -1
BITMAP
0C00
0C40
0480
09C0
0000
0300
0780
0480
0480
0780
0380
0180
8300
7F00
1C00
ENDCHAR
STARTCHAR FBDE
ENCODING 64478
SWIDTH 462 0
DWIDTH 9 0
BBX 9 16 0 -1
BITMAP
0400
0E00
0500
0B80
1D00
0800
0300
0780
0480
0480
0780
0380
0180
8300
7F00
1C00
ENDCHAR
STARTCHAR FBDF
ENCODING 64479
SWIDTH 462 0
DWIDTH 9 0
BBX 9 16 0 -1
BITMAP
0400
0E00
0500
0B80
1D00
0800
0300
0780
0480
0480
0780
0380
0180
8300
7F00
1C00
ENDCHAR
STARTCHAR FBE0
ENCODING 64480
SWIDTH 462 0
DWIDTH 9 0
BBX 9 10 0 -1
BITMAP
0300
0780
0480
0480
0780
0380
1980
8700
7F00
1C00
ENDCHAR
STARTCHAR FBE1
ENCODING 64481
SWIDTH 462 0
DWIDTH 9 0
BBX 9 10 0 -1
BITMAP
0300
0780
0480
0480
0780
0380
1980
8700
7F00
1C00
ENDCHAR
STARTCHAR FBE2
ENCODING 64482
SWIDTH 462 0
DWIDTH 9 0
BBX 9 13 0 -1
BITMAP
0200
0500
0000
0300
0780
0480
0480
0780
0380
0180
8300
7F00
1C00
ENDCHAR
STARTCHAR FBE3
ENCODING 64483
SWIDTH 462 0
DWIDTH 9 0
BBX 9 13 0 -1
BITMAP
0200
0500
0000
0300
0780
0480
0480
0780
0380
0180
8300
7F00
1C00
ENDCHAR
STARTCHAR FBE4
ENCODING 64484
SWIDTH 617 0
DWIDTH 12 0
BBX 10 13 1 -4
BITMAP
00C0
01C0
4140
4200
83C0
83C0
8040
8380
FF00
7C00
0000
0800
0800
ENDCHAR
STARTCHAR FBE5
ENCODING 64485
SWIDTH 565 0
DWIDTH 11 0
BBX 11 10 0 -4
BITMAP
20E0
43E0
87E0
8780
8080
FF80
FF00
7E00
0800
0800
ENDCHAR
STARTCHAR FBE6
ENCODING 64486
SWIDTH 257 0
DWIDTH 5 0
BBX 6 13 -1 -4
BITMAP
08
0C
04
FC
FC
FC
00
10
38
10
08
1C
08
ENDCHAR
STARTCHAR FBE7
ENCODING 64487
SWIDTH 257 0
DWIDTH 5 0
BBX 6 13 -1 -4
BITMAP
08
0C
04
FC
FC
FC
00
10
38
10
08
1C
08
ENDCHAR
STARTCHAR FBFC
ENCODING 64508
SWIDTH 617 0
DWIDTH 12 0
BBX 10 10 1 -1
BITMAP
00C0
01C0
4140
4200
83C0
83C0
8040
8380
FF00
7C00
ENDCHAR
STARTCHAR FBFD
ENCODING 64509
SWIDTH 565 0
DWIDTH 11 0
BBX 11 9 0 -3
BITMAP
20E0
43E0
43E0
8700
8780
8180
FF00
FE00
7C00
ENDCHAR
STARTCHAR FBFE
ENCODING 64510
SWIDTH 257 0
DWIDTH 5 0
BBX 7 11 -1 -2
BITMAP
08
0C
04
FC
FC
FC
00
04
2E
74
20
ENDCHAR
STARTCHAR FBFF
ENCODING 64511
SWIDTH 257 0
DWIDTH 5 0
BBX 7 11 -1 -2
BITMAP
08
0C
04
FC
FC
FC
00
04
2E
74
20
ENDCHAR
STARTCHAR FC5E
ENCODING 64606
SWIDTH 205 0
DWIDTH 4 0
BBX 3 6 1 13
BITMAP
20
A0
C0
20
E0
80
ENDCHAR
STARTCHAR FC5F
ENCODING 64607
SWIDTH 205 0
DWIDTH 4 0
BBX 3 7 1 13
BITMAP
20
E0
80
60
80
60
80
ENDCHAR
STARTCHAR FC60
ENCODING 64608
SWIDTH 205 0
DWIDTH 4 0
BBX 3 5 1 13
BITMAP
60
80
20
E0
80
ENDCHAR
STARTCHAR FC61
ENCODING 64609
SWIDTH 205 0
DWIDTH 4 0
BBX 3 6 1 13
BITMAP
60
60
80
20
E0
80
ENDCHAR
STARTCHAR FC62
ENCODING 64610
SWIDTH 205 0
DWIDTH 4 0
BBX 3 5 1 13
BITMAP
20
E0
80
60
80
ENDCHAR
STARTCHAR FD3E
ENCODING 64830
SWIDTH 308 0
DWIDTH 6 0
BBX 4 19 1 -4
BITMAP
10
30
20
60
60
40
C0
C0
C0
C0
C0
C0
C0
40
60
60
20
30
10
ENDCHAR
STARTCHAR FD3F
ENCODING 64831
SWIDTH 308 0
DWIDTH 6 0
BBX 4 19 1 -4
BITMAP
80
C0
40
60
60
20
30
30
30
30
30
30
30
20
60
60
40
C0
80
ENDCHAR
STARTCHAR FDF2
ENCODING 65010
SWIDTH 668 0
DWIDTH 13 0
BBX 11 15 1 2
BITMAP
0800
0400
0400
0100
0700
0440
0240
1240
1240
1120
3120
71A0
5FE0
FFE0
EEE0
ENDCHAR
STARTCHAR FE80
ENCODING 65152
SWIDTH 462 0
DWIDTH 9 0
BBX 7 9 1 1
BITMAP
3C
78
78
C0
E6
7C
30
40
80
ENDCHAR
STARTCHAR FE81
ENCODING 65153
SWIDTH 257 0
DWIDTH 5 0
BBX 5 14 0 3
BITMAP
48
B0
00
20
20
20
20
20
20
20
20
20
20
20
ENDCHAR
STARTCHAR FE82
ENCODING 65154
SWIDTH 257 0
DWIDTH 5 0
BBX 6 14 -1 3
BITMAP
48
B0
00
20
30
30
10
10
10
10
10
1C
1C
0C
ENDCHAR
STARTCHAR FE83
ENCODING 65155
SWIDTH 205 0
DWIDTH 4 0
BBX 3 14 1 3
BITMAP
20
40
E0
00
40
40
40
40
40
40
40
40
40
40
ENDCHAR
STARTCHAR FE84
ENCODING 65156
SWIDTH 205 0
DWIDTH 4 0
BBX 5 14 -1 3
BITMAP
20
40
E0
00
40
60
60
20
20
20
20
38
38
18
ENDCHAR
STARTCHAR FE85
ENCODING 65157
SWIDTH 462 0
DWIDTH 9 0
BBX 9 14 0 -1
BITMAP
0400
0800
1C00
0000
0300
0780
0480
0480
0780
0380
0180
8300
7F00
1C00
ENDCHAR
STARTCHAR FE86
ENCODING 65158
SWIDTH 462 0
DWIDTH 9 0
BBX 9 14 0 -1
BITMAP
0400
0800
1C00
0000
0300
0780
0480
0480
0780
0380
0180
8300
7F00
1C00
ENDCHAR
STARTCHAR FE87
ENCODING 65159
SWIDTH 205 0
DWIDTH 4 0
BBX 3 15 0 -1
BITMAP
20
20
20
20
20
20
20
20
20
20
20
00
20
40
E0
ENDCHAR
STARTCHAR FE88
ENCODING 65160
SWIDTH 205 0
DWIDTH 4 0
BBX 4 16 0 -2
BITMAP
80
C0
C0
40
40
40
40
40
70
70
30
00
00
10
20
70
ENDCHAR
STARTCHAR FE89
ENCODING 65161
SWIDTH 617 0
DWIDTH 12 0
BBX 10 12 1 -1
BITMAP
2000
4000
E0C0
01C0
4140
4200
83C0
83C0
8040
8380
FF00
7C00
ENDCHAR
STARTCHAR FE8A
ENCODING 65162
SWIDTH 565 0
DWIDTH 11 0
BBX 11 12 0 -1
BITMAP
1000
2000
7000
0000
2000
40E0
83E0
83E0
C0C0
FFC0
FF80
7E00
ENDCHAR
STARTCHAR FE8B
ENCODING 65163
SWIDTH 257 0
DWIDTH 5 0
BBX 6 10 -1 3
BITMAP
04
08
1C
00
08
0C
04
FC
FC
FC
ENDCHAR
STARTCHAR FE8C
ENCODING 65164
SWIDTH 257 0
DWIDTH 5 0
BBX 6 10 -1 3
BITMAP
04
08
1C
00
08
0C
04
FC
FC
FC
ENDCHAR
STARTCHAR FE8D
ENCODING 65165
SWIDTH 205 0
DWIDTH 4 0
BBX 1 11 2 3
BITMAP
80
80
80
80
80
80
80
80
80
80
80
ENDCHAR
STARTCHAR FE8E
ENCODING 65166
SWIDTH 205 0
DWIDTH 4 0
BBX 4 11 0 3
BITMAP
80
C0
C0
40
40
40
40
40
70
70
30
ENDCHAR
STARTCHAR FE8F
ENCODING 65167
SWIDTH 617 0
DWIDTH 12 0
BBX 11 10 1 -1
BITMAP
4040
8060
8020
FFE0
FFE0
7FE0
0000
0200
0700
0200
ENDCHAR
STARTCHAR FE90
ENCODING 65168
SWIDTH 617 0
DWIDTH 12 0
BBX 11 10 1 -1
BITMAP
4040
8060
8020
FFE0
FFE0
7FE0
0000
0200
0700
0200
ENDCHAR
STARTCHAR FE91
ENCODING 65169
SWIDTH 257 0
DWIDTH 5 0
BBX 6 10 -1 -1
BITMAP
08
0C
04
FC
FC
FC
00
10
38
10
ENDCHAR
STARTCHAR FE92
ENCODING 65170
SWIDTH 257 0
DWIDTH 5 0
BBX 6 10 -1 -1
BITMAP
08
0C
04
FC
FC
FC
00
10
38
10
ENDCHAR
STARTCHAR FE93
ENCODING 65171
SWIDTH 360 0
DWIDTH 7 0
BBX 6 12 0 3
BITMAP
08
5C
E8
40
00
20
38
3C
44
7C
7C
78
ENDCHAR
STARTCHAR FE94
ENCODING 65172
SWIDTH 411 0
DWIDTH 8 0
BBX 8 14 0 3
BITMAP
08
5C
E8
40
08
08
08
18
28
48
FC
F7
07
03
ENDCHAR
STARTCHAR FE95
ENCODING 65173
SWIDTH 617 0
DWIDTH 12 0
BBX 11 10 1 3
BITMAP
0100
0B80
1D00
0800
4040
8060
8020
FFE0
FFE0
7FE0
ENDCHAR
STARTCHAR FE96
ENCODING 65174
SWIDTH 617 0
DWIDTH 12 0
BBX 11 10 1 3
BITMAP
0100
0B80
1D00
0800
4040
8060
8020
FFE0
FFE0
7FE0
ENDCHAR
STARTCHAR FE97
ENCODING 65175
SWIDTH 257 0
DWIDTH 5 0
BBX 7 11 -1 3
BITMAP
04
2E
74
20
00
08
0C
04
FC
FC
FC
ENDCHAR
STARTCHAR FE98
ENCODING 65176
SWIDTH 257 0
DWIDTH 5 0
BBX 7 11 -1 3
BITMAP
04
2E
74
20
00
08
0C
04
FC
FC
FC
ENDCHAR
STARTCHAR FE99
ENCODING 65177
SWIDTH 617 0
DWIDTH 12 0
BBX 11 12 1 3
BITMAP
0400
0E00
0500
0B80
1D00
0800
4040
8060
8020
FFE0
FFE0
7FE0
ENDCHAR
STARTCHAR FE9A
ENCODING 65178
SWIDTH 617 0
DWIDTH 12 0
BBX 11 12 1 3
BITMAP
0400
0E00
0500
0B80
1D00
0800
4040
8060
8020
FFE0
FFE0
7FE0
ENDCHAR
STARTCHAR FE9B
ENCODING 65179
SWIDTH 257 0
DWIDTH 5 0
BBX 7 13 -1 3
BITMAP
10
38
14
2E
74
20
00
08
0C
04
FC
FC
FC
ENDCHAR
STARTCHAR FE9C
ENCODING 65180
SWIDTH 257 0
DWIDTH 5 0
BBX 7 13 -1 3
BITMAP
10
38
14
2E
74
20
00
08
0C
04
FC
FC
FC
ENDCHAR
STARTCHAR FE9D
ENCODING 65181
SWIDTH 565 0
DWIDTH 11 0
BBX 10 14 1 -4
BITMAP
7F80
FF80
9C00
2000
4000
8400
8E00
8400
8000
C000
F000
7FC0
7F80
1E00
ENDCHAR
STARTCHAR FE9E
ENCODING 65182
SWIDTH 565 0
DWIDTH 11 0
BBX 10 14 1 -4
BITMAP
7F80
FF80
9E00
2200
43C0
83C0
89C0
9C00
8800
C000
F000
7FC0
7F80
1E00
ENDCHAR
STARTCHAR FE9F
ENCODING 65183
SWIDTH 514 0
DWIDTH 10 0
BBX 11 11 -1 -1
BITMAP
1C00
3E00
0700
0380
FFE0
FFE0
FFE0
0000
0400
0E00
0400
ENDCHAR
STARTCHAR FEA0
ENCODING 65184
SWIDTH 514 0
DWIDTH 10 0
BBX 11 11 -1 -1
BITMAP
1C00
3E00
0700
0380
FFE0
FFE0
FFE0
0000
0400
0E00
0400
ENDCHAR
STARTCHAR FEA1
ENCODING 65185
SWIDTH 565 0
DWIDTH 11 0
BBX 10 14 1 -4
BITMAP
7F80
FF80
9C00
2000
4000
8000
8000
8000
8000
C000
F000
7FC0
7F80
1E00
ENDCHAR
STARTCHAR FEA2
ENCODING 65186
SWIDTH 565 0
DWIDTH 11 0
BBX 10 14 1 -4
BITMAP
7F80
FF80
9E00
2200
43C0
83C0
81C0
8000
8000
C000
F000
7FC0
7F80
1E00
ENDCHAR
STARTCHAR FEA3
ENCODING 65187
SWIDTH 514 0
DWIDTH 10 0
BBX 11 7 -1 3
BITMAP
1C00
3E00
0700
0380
FFE0
FFE0
FFE0
ENDCHAR
STARTCHAR FEA4
ENCODING 65188
SWIDTH 514 0
DWIDTH 10 0
BBX 11 7 -1 3
BITMAP
1C00
3E00
0700
0380
FFE0
FFE0
FFE0
ENDCHAR
STARTCHAR FEA5
ENCODING 65189
SWIDTH 565 0
DWIDTH 11 0
BBX 10 18 1 -4
BITMAP
0800
1C00
0800
0000
7F80
FF80
9C00
2000
4000
8000
8000
8000
8000
C000
F000
7FC0
7F80
1E00
ENDCHAR
STARTCHAR FEA6
ENCODING 65190
SWIDTH 565 0
DWIDTH 11 0
BBX 10 18 1 -4
BITMAP
0800
1C00
0800
0000
7F80
FF80
9E00
2200
43C0
83C0
81C0
8000
8000
C000
F000
7FC0
7F80
1E00
ENDCHAR
STARTCHAR FEA7
ENCODING 65191
SWIDTH 514 0
DWIDTH 10 0
BBX 11 11 -1 3
BITMAP
0400
0E00
0400
0000
1C00
3E00
0700
0380
FFE0
FFE0
FFE0
ENDCHAR
STARTCHAR FEA8
ENCODING 65192
SWIDTH 514 0
DWIDTH 10 0
BBX 11 11 -1 3
BITMAP
0400
0E00
0400
0000
1C00
3E00
0700
0380
FFE0
FFE0
FFE0
ENDCHAR
STARTCHAR FEA9
ENCODING 65193
SWIDTH 360 0
DWIDTH 7 0
BBX 6 8 1 3
BITMAP
10
18
1C
0C
84
FC
FC
FC
ENDCHAR
STARTCHAR FEAA
ENCODING 65194
SWIDTH 360 0
DWIDTH 7 0
BBX 6 8 1 3
BITMAP
10
18
1C
0C
84
FC
FC
FC
ENDCHAR
STARTCHAR FEAB
ENCODING 65195
SWIDTH 360 0
DWIDTH 7 0
BBX 6 12 1 3
BITMAP
20
70
20
00
10
18
1C
0C
84
FC
FC
FC
ENDCHAR
STARTCHAR FEAC
ENCODING 65196
SWIDTH 360 0
DWIDTH 7 0
BBX 6 12 1 3
BITMAP
20
70
20
00
10
18
1C
0C
84
FC
FC
FC
ENDCHAR
STARTCHAR FEAD
ENCODING 65197
SWIDTH 411 0
DWIDTH 8 0
BBX 8 10 0 -1
BITMAP
02
03
03
01
01
01
03
8F
7E
1C
ENDCHAR
STARTCHAR FEAE
ENCODING 65198
SWIDTH 411 0
DWIDTH 8 0
BBX 8 10 0 -1
BITMAP
02
03
03
01
01
01
03
8F
7E
1C
ENDCHAR
STARTCHAR FEAF
ENCODING 65199
SWIDTH 411 0
DWIDTH 8 0
BBX 8 14 0 -1
BITMAP
04
0E
04
00
02
03
03
01
01
01
03
8F
7E
1C
ENDCHAR
STARTCHAR FEB0
ENCODING 65200
SWIDTH 411 0
DWIDTH 8 0
BBX 8 14 0 -1
BITMAP
04
0E
04
00
02
03
03
01
01
01
03
8F
7E
1C
ENDCHAR
STARTCHAR FEB1
ENCODING 65201
SWIDTH 874 0
DWIDTH 17 0
BBX 16 10 1 -1
BITMAP
0100
2185
4185
80FF
80FF
80FB
C180
FF80
7F00
3E00
ENDCHAR
STARTCHAR FEB2
ENCODING 65202
SWIDTH 874 0
DWIDTH 17 0
BBX 16 10 1 -1
BITMAP
0100
2185
4185
80FF
80FF
80FB
C180
FF80
7F00
3E00
ENDCHAR
STARTCHAR FEB3
ENCODING 65203
SWIDTH 617 0
DWIDTH 12 0
BBX 13 5 -1 3
BITMAP
0828
1828
FFF8
F7F8
E7D8
ENDCHAR
STARTCHAR FEB4
ENCODING 65204
SWIDTH 617 0
DWIDTH 12 0
BBX 13 5 -1 3
BITMAP
0828
1828
FFF8
F7F8
E7D8
ENDCHAR
STARTCHAR FEB5
ENCODING 65205
SWIDTH 874 0
DWIDTH 17 0
BBX 16 16 1 -1
BITMAP
0008
001C
000A
0017
003A
0010
0100
2185
4185
80FF
80FF
80FB
C180
FF80
7F00
3E00
ENDCHAR
STARTCHAR FEB6
ENCODING 65206
SWIDTH 874 0
DWIDTH 17 0
BBX 16 16 1 -1
BITMAP
0008
001C
000A
0017
003A
0010
0100
2185
4185
80FF
80FF
80FB
C180
FF80
7F00
3E00
ENDCHAR
STARTCHAR FEB7
ENCODING 65207
SWIDTH 617 0
DWIDTH 12 0
BBX 13 12 -1 3
BITMAP
0080
01C0
00A0
0170
03A0
0100
0000
0828
1828
FFF8
F7F8
E7D8
ENDCHAR
STARTCHAR FEB8
ENCODING 65208
SWIDTH 617 0
DWIDTH 12 0
BBX 13 12 -1 3
BITMAP
0080
01C0
00A0
0170
03A0
0100
0000
0828
1828
FFF8
F7F8
E7D8
ENDCHAR
STARTCHAR FEB9
ENCODING 65209
SWIDTH 1028 0
DWIDTH 20 0
BBX 19 11 1 -1
BITMAP
0001C0
0103E0
218C20
41B820
80FFE0
80FFE0
80FFE0
C18000
FF8000
7F0000
3E0000
ENDCHAR
STARTCHAR FEBA
ENCODING 65210
SWIDTH 1028 0
DWIDTH 20 0
BBX 19 11 1 -1
BITMAP
0001C0
0103E0
218C20
41B820
80FFE0
80FFE0
80FFE0
C18000
FF8000
7F0000
3E0000
ENDCHAR
STARTCHAR FEBB
ENCODING 65211
SWIDTH 771 0
DWIDTH 15 0
BBX 16 7 -1 3
BITMAP
000E
081F
0861
19C1
FFFF
F7FF
E3FF
ENDCHAR
STARTCHAR FEBC
ENCODING 65212
SWIDTH 771 0
DWIDTH 15 0
BBX 16 7 -1 3
BITMAP
000E
081F
0861
19C1
FFFF
F7FF
E3FF
ENDCHAR
STARTCHAR FEBD
ENCODING 65213
SWIDTH 1028 0
DWIDTH 20 0
BBX 19 15 1 -1
BITMAP
000800
001C00
000800
000000
0001C0
0103E0
218C20
41B820
80FFE0
80FFE0
80FFE0
C18000
FF8000
7F0000
3E0000
ENDCHAR
STARTCHAR FEBE
ENCODING 65214
SWIDTH 1028 0
DWIDTH 20 0
BBX 19 15 1 -1
BITMAP
000800
001C00
000800
000000
0001C0
0103E0
218C20
41B820
80FFE0
80FFE0
80FFE0
C18000
FF8000
7F0000
3E0000
ENDCHAR
STARTCHAR FEBF
ENCODING 65215
SWIDTH 771 0
DWIDTH 15 0
BBX 16 11 -1 3
BITMAP
0040
00E0
0040
0000
000E
081F
0861
19C1
FFFF
F7FF
E3FF
ENDCHAR
STARTCHAR FEC0
ENCODING 65216
SWIDTH 771 0
DWIDTH 15 0
BBX 16 11 -1 3
BITMAP
0040
00E0
0040
0000
000E
081F
0861
19C1
FFFF
F7FF
E3FF
ENDCHAR
STARTCHAR FEC1
ENCODING 65217
SWIDTH 514 0
DWIDTH 10 0
BBX 11 12 -1 3
BITMAP
1000
3800
3800
1800
1000
09C0
0FE0
0C20
1820
FFE0
FFE0
FFE0
ENDCHAR
STARTCHAR FEC2
ENCODING 65218
SWIDTH 514 0
DWIDTH 10 0
BBX 11 12 -1 3
BITMAP
1000
3800
3800
1800
1000
09C0
0FE0
0C20
1820
FFE0
FFE0
FFE0
ENDCHAR
STARTCHAR FEC3
ENCODING 65219
SWIDTH 514 0
DWIDTH 10 0
BBX 11 12 -1 3
BITMAP
1000
3800
3800
1800
1000
09C0
0FE0
0C20
1820
FFE0
FFE0
FFE0
ENDCHAR
STARTCHAR FEC4
ENCODING 65220
SWIDTH 514 0
DWIDTH 10 0
BBX 11 12 -1 3
BITMAP
1000
3800
3800
1800
1000
09C0
0FE0
0C20
1820
FFE0
FFE0
FFE0
ENDCHAR
STARTCHAR FEC5
ENCODING 65221
SWIDTH 514 0
DWIDTH 10 0
BBX 11 12 -1 3
BITMAP
1000
3900
3B80
1900
1000
09C0
0FE0
0C20
1820
FFE0
FFE0
FFE0
ENDCHAR
STARTCHAR FEC6
ENCODING 65222
SWIDTH 514 0
DWIDTH 10 0
BBX 11 12 -1 3
BITMAP
1000
3900
3B80
1900
1000
09C0
0FE0
0C20
1820
FFE0
FFE0
FFE0
ENDCHAR
STARTCHAR FEC7
ENCODING 65223
SWIDTH 514 0
DWIDTH 10 0
BBX 11 12 -1 3
BITMAP
1000
3900
3B80
1900
1000
09C0
0FE0
0C20
1820
FFE0
FFE0
FFE0
ENDCHAR
STARTCHAR FEC8
ENCODING 65224
SWIDTH 514 0
DWIDTH 10 0
BBX 11 12 -1 3
BITMAP
1000
3900
3B80
1900
1000
09C0
0FE0
0C20
1820
FFE0
FFE0
FFE0
ENDCHAR
STARTCHAR FEC9
ENCODING 65225
SWIDTH 514 0
DWIDTH 10 0
BBX 9 15 1 -4
BITMAP
1C00
3E00
7000
6000
7300
7F00
3E00
3800
4000
8000
8000
C000
FF80
7F00
3E00
ENDCHAR
STARTCHAR FECA
ENCODING 65226
SWIDTH 462 0
DWIDTH 9 0
BBX 9 14 1 -4
BITMAP
3800
7C00
7C00
1800
3F00
6F00
4700
8000
8000
8000
E000
FF80
7F00
3C00
ENDCHAR
STARTCHAR FECB
ENCODING 65227
SWIDTH 514 0
DWIDTH 10 0
BBX 10 8 -1 3
BITMAP
0F00
3F80
2000
30C0
1FC0
FF80
FF00
F000
ENDCHAR
STARTCHAR FECC
ENCODING 65228
SWIDTH 360 0
DWIDTH 7 0
BBX 8 7 -1 3
BITMAP
1C
3E
3E
0C
FF
FF
E7
ENDCHAR
STARTCHAR FECD
ENCODING 65229
SWIDTH 514 0
DWIDTH 10 0
BBX 9 19 1 -4
BITMAP
1000
3800
1000
0000
1C00
3E00
7000
6000
7300
7F00
3E00
3800
4000
8000
8000
C000
FF80
7F00
3E00
ENDCHAR
STARTCHAR FECE
ENCODING 65230
SWIDTH 462 0
DWIDTH 9 0
BBX 9 18 1 -4
BITMAP
1000
3800
1000
0000
3800
7C00
7C00
1800
3F00
6F00
4700
8000
8000
8000
E000
FF80
7F00
3C00
ENDCHAR
STARTCHAR FECF
ENCODING 65231
SWIDTH 514 0
DWIDTH 10 0
BBX 10 12 -1 3
BITMAP
0400
0E00
0400
0000
0F00
3F80
2000
30C0
1FC0
FF80
FF00
F000
ENDCHAR
STARTCHAR FED0
ENCODING 65232
SWIDTH 360 0
DWIDTH 7 0
BBX 8 12 -1 3
BITMAP
08
1C
08
00
00
1C
3E
3E
0C
FF
FF
E7
ENDCHAR
STARTCHAR FED1
ENCODING 65233
SWIDTH 720 0
DWIDTH 14 0
BBX 13 11 1 3
BITMAP
0010
0038
0010
0000
0030
4078
80C8
80F8
FFF8
FFF8
7FF8
ENDCHAR
STARTCHAR FED2
ENCODING 65234
SWIDTH 720 0
DWIDTH 14 0
BBX 13 11 1 3
BITMAP
0010
0038
0010
0000
0030
4078
80C8
80F8
FFF8
FFF8
7FF8
ENDCHAR
STARTCHAR FED3
ENCODING 65235
SWIDTH 308 0
DWIDTH 6 0
BBX 7 13 -1 3
BITMAP
10
38
10
00
18
3C
26
3E
1A
02
FE
FE
FE
ENDCHAR
STARTCHAR FED4
ENCODING 65236
SWIDTH 308 0
DWIDTH 6 0
BBX 7 12 -1 3
BITMAP
08
1C
08
00
0C
1E
1E
12
1E
FE
FE
FE
ENDCHAR
STARTCHAR FED5
ENCODING 65237
SWIDTH 617 0
DWIDTH 12 0
BBX 11 15 1 -2
BITMAP
0040
02E0
0740
0200
00C0
01E0
0260
23E0
43E0
81E0
8020
C060
FFE0
7FC0
3F00
ENDCHAR
STARTCHAR FED6
ENCODING 65238
SWIDTH 617 0
DWIDTH 12 0
BBX 11 15 1 -2
BITMAP
0040
02E0
0740
0200
00C0
01E0
0260
23E0
43E0
81E0
8020
C060
FFE0
7FC0
3F00
ENDCHAR
STARTCHAR FED7
ENCODING 65239
SWIDTH 308 0
DWIDTH 6 0
BBX 7 14 -1 3
BITMAP
04
2E
74
20
00
18
3C
26
3E
1A
02
FE
FE
FE
ENDCHAR
STARTCHAR FED8
ENCODING 65240
SWIDTH 308 0
DWIDTH 6 0
BBX 7 12 -1 3
BITMAP
04
2E
74
20
0C
1E
1E
12
1E
FE
FE
FE
ENDCHAR
STARTCHAR FED9
ENCODING 65241
SWIDTH 514 0
DWIDTH 10 0
BBX 9 12 1 3
BITMAP
0100
0380
0B80
1180
1D00
5D00
8480
9880
8080
FF80
FF80
7F80
ENDCHAR
STARTCHAR FEDA
ENCODING 65242
SWIDTH 514 0
DWIDTH 10 0
BBX 9 12 1 3
BITMAP
0100
0380
0B80
1180
1D00
5D00
8480
9880
8080
FF80
FF80
7F80
ENDCHAR
STARTCHAR FEDB
ENCODING 65243
SWIDTH 360 0
DWIDTH 7 0
BBX 8 10 -1 3
BITMAP
06
1E
38
30
1C
06
03
FF
FF
FF
ENDCHAR
STARTCHAR FEDC
ENCODING 65244
SWIDTH 360 0
DWIDTH 7 0
BBX 8 10 -1 3
BITMAP
06
1E
38
30
1C
06
03
FF
FF
FF
ENDCHAR
STARTCHAR FEDD
ENCODING 65245
SWIDTH 462 0
DWIDTH 9 0
BBX 8 16 1 -1
BITMAP
02
07
07
03
02
02
01
41
41
81
81
81
C3
FF
7E
3C
ENDCHAR
STARTCHAR FEDE
ENCODING 65246
SWIDTH 462 0
DWIDTH 9 0
BBX 8 16 1 -1
BITMAP
02
07
07
03
02
02
01
41
41
81
81
81
C3
FF
7E
3C
ENDCHAR
STARTCHAR FEDF
ENCODING 65247
SWIDTH 205 0
DWIDTH 4 0
BBX 5 12 -1 3
BITMAP
10
38
38
18
10
10
08
08
08
F8
F8
F8
ENDCHAR
STARTCHAR FEE0
ENCODING 65248
SWIDTH 205 0
DWIDTH 4 0
BBX 5 12 -1 3
BITMAP
10
38
38
18
10
10
08
08
08
F8
F8
F8
ENDCHAR
STARTCHAR FEE1
ENCODING 65249
SWIDTH 360 0
DWIDTH 7 0
BBX 6 13 1 -4
BITMAP
30
38
5C
0C
7C
FC
C0
80
80
40
40
40
40
ENDCHAR
STARTCHAR FEE2
ENCODING 65250
SWIDTH 360 0
DWIDTH 7 0
BBX 6 13 1 -4
BITMAP
30
38
5C
0C
7C
FC
C0
80
80
40
40
40
40
ENDCHAR
STARTCHAR FEE3
ENCODING 65251
SWIDTH 411 0
DWIDTH 8 0
BBX 9 6 -1 3
BITMAP
0300
0780
0980
FF80
FF80
F380
ENDCHAR
STARTCHAR FEE4
ENCODING 65252
SWIDTH 411 0
DWIDTH 8 0
BBX 9 6 -1 3
BITMAP
0300
0780
0980
FF80
FF80
F380
ENDCHAR
STARTCHAR FEE5
ENCODING 65253
SWIDTH 514 0
DWIDTH 10 0
BBX 9 13 1 -1
BITMAP
0800
1C00
0800
0100
2180
4180
8080
8080
8080
C180
FF80
7F00
3E00
ENDCHAR
STARTCHAR FEE6
ENCODING 65254
SWIDTH 514 0
DWIDTH 10 0
BBX 9 13 1 -1
BITMAP
0800
1C00
0800
0100
2180
4180
8080
8080
8080
C180
FF80
7F00
3E00
ENDCHAR
STARTCHAR FEE7
ENCODING 65255
SWIDTH 257 0
DWIDTH 5 0
BBX 6 10 -1 3
BITMAP
08
1C
08
00
08
0C
04
FC
FC
FC
ENDCHAR
STARTCHAR FEE8
ENCODING 65256
SWIDTH 257 0
DWIDTH 5 0
BBX 6 10 -1 3
BITMAP
08
1C
08
00
08
0C
04
FC
FC
FC
ENDCHAR
STARTCHAR FEE9
ENCODING 65257
SWIDTH 360 0
DWIDTH 7 0
BBX 5 7 1 3
BITMAP
40
70
78
88
F8
F8
F0
ENDCHAR
STARTCHAR FEEA
ENCODING 65258
SWIDTH 411 0
DWIDTH 8 0
BBX 8 10 0 3
BITMAP
08
08
08
18
28
48
FC
F7
07
03
ENDCHAR
STARTCHAR FEEB
ENCODING 65259
SWIDTH 462 0
DWIDTH 9 0
BBX 9 9 -1 3
BITMAP
1000
1C00
1E00
3F00
2500
3C80
FF80
FF80
F780
ENDCHAR
STARTCHAR FEEC
ENCODING 65260
SWIDTH 462 0
DWIDTH 9 0
BBX 10 13 -1 -2
BITMAP
0200
0700
0F00
0900
1200
FFC0
FFC0
FFC0
1300
1900
0900
0E00
0600
ENDCHAR
STARTCHAR FEED
ENCODING 65261
SWIDTH 462 0
DWIDTH 9 0
BBX 9 10 0 -1
BITMAP
0300
0780
0480
0480
0780
0380
0180
8300
7F00
1C00
ENDCHAR
STARTCHAR FEEE
ENCODING 65262
SWIDTH 462 0
DWIDTH 9 0
BBX 9 10 0 -1
BITMAP
0300
0780
0480
0480
0780
0380
0180
8300
7F00
1C00
ENDCHAR
STARTCHAR FEEF
ENCODING 65263
SWIDTH 617 0
DWIDTH 12 0
BBX 10 10 1 -1
BITMAP
00C0
01C0
4140
4200
83C0
83C0
8040
8380
FF00
7C00
ENDCHAR
STARTCHAR FEF0
ENCODING 65264
SWIDTH 565 0
DWIDTH 11 0
BBX 11 9 0 -3
BITMAP
20E0
43E0
43E0
8700
8780
8180
FF00
FE00
7C00
ENDCHAR
STARTCHAR FEF1
ENCODING 65265
SWIDTH 617 0
DWIDTH 12 0
BBX 10 13 1 -4
BITMAP
00C0
01C0
4140
4200
83C0
83C0
8040
8380
FF00
7C00
0000
1400
1A00
ENDCHAR
STARTCHAR FEF2
ENCODING 65266
SWIDTH 565 0
DWIDTH 11 0
BBX 11 11 0 -4
BITMAP
2000
40E0
83E0
83E0
C0C0
FFC0
FF80
7E00
0000
1600
1A00
ENDCHAR
STARTCHAR FEF3
ENCODING 65267
SWIDTH 257 0
DWIDTH 5 0
BBX 7 11 -1 -2
BITMAP
08
0C
04
FC
FC
FC
00
04
2E
74
20
ENDCHAR
STARTCHAR FEF4
ENCODING 65268
SWIDTH 257 0
DWIDTH 5 0
BBX 7 11 -1 -2
BITMAP
08
0C
04
FC
FC
FC
00
04
2E
74
20
ENDCHAR
STARTCHAR FEF5
ENCODING 65269
SWIDTH 514 0
DWIDTH 10 0
BBX 10 15 0 1
BITMAP
4800
B000
0080
41C0
71C0
78C0
7880
3C80
0680
0300
0380
0580
0F80
0F80
0F00
ENDCHAR
STARTCHAR FEF6
ENCODING 65270
SWIDTH 565 0
DWIDTH 11 0
BBX 11 14 0 2
BITMAP
4800
B080
0080
6080
7080
7880
1C80
0680
0280
0180
0360
0F60
3E60
7800
ENDCHAR
ENDFONT
